<svg xmlns="http://www.w3.org/2000/svg" viewBox="0 0 1364 960" width="550" height="550"><linearGradient id="a" x1="682.211" x2="682.211" y1="450.432" y2="215.188" gradientUnits="userSpaceOnUse"><stop offset="0" stop-color="#d6f4ff" class="stopColord6f4ff svgShape"></stop><stop offset="1" stop-color="#55bbe6" class="stopColor55bbe6 svgShape"></stop></linearGradient><path fill="url(#a)" d="M1237.529 673.563a256.951 256.951 0 0 1-5.604 7.636c-15.842 20.808-34.711 39.318-56.123 54.579h-.011c-113.719 80.25-224.584 45.179-417.786 52.316-123.874.023-381.961-1.834-466.842-.534-43.763.128-84.938-13.543-120.439-36.417-13.253-19.149-24.347-40.235-32.865-63.422a192.751 192.751 0 0 1-1.938-5.745h-.012a238.33 238.33 0 0 1-5.489-19.891 242.8 242.8 0 0 1-3.9-21.608 245.446 245.446 0 0 1-2.158-34.282v-.012c.046-8.82.568-17.628 1.566-26.367.209-1.95.452-3.888.731-5.826a226.968 226.968 0 0 1 1.869-11.605c2.17-11.617 5.176-23.025 9.029-34.096 4.328-12.51 9.725-24.591 16.166-36.011 5.896-10.421 12.649-20.309 20.285-29.489a148.855 148.855 0 0 1 4.562-5.28 180.657 180.657 0 0 1 10.05-10.41 180.726 180.726 0 0 1 19.125-15.934c32.878-23.744 74.528-38.215 101.51-66.997 4.921-5.246 9.343-10.967 13.149-17.315a97.432 97.432 0 0 0 6.081-11.965c4.503-10.514 7.242-21.632 9.04-33.086v-.023c1.183-7.578 1.962-15.296 2.565-23.083.128-1.625.255-3.249.359-4.886 1.3-18.475 1.915-37.229 5.06-55.241 12.998-74.54 71.87-136.175 141.989-164.631 86.784-38.111 181.007-10.7 271.7-11.721 71.105-.801 144.833 5.292 204.472 46.908 1.056.731 2.1 1.463 3.134 2.228a268.078 268.078 0 0 1 30.858 24.836c31.914 29.732 56.807 66.985 72.311 107.765 8.797 23.106 14.577 47.326 16.932 71.952.686 7.184 1.103 14.448 1.393 21.76.487 11.849.651 23.802 1.068 35.674 1.114 31.067 4.015 61.554 19.288 88.118a109.498 109.498 0 0 0 5.072 8.007 129.463 129.463 0 0 0 7.962 10.352 149.806 149.806 0 0 0 4.607 5.188c8.391 9.029 17.849 17.211 27.609 25.148.824.661 1.636 1.335 2.46 1.996.487.394.975.777 1.462 1.172.522.43 1.056.847 1.579 1.265 3.865 3.087 7.752 6.162 11.616 9.261.011 0 .011.011.011.011 10.004 7.984 19.846 16.108 28.747 24.998 7.903 7.891 15.052 16.387 20.901 25.961a260.426 260.426 0 0 1 3.017 7.567 268.265 268.265 0 0 1 4.248 11.779 208.873 208.873 0 0 1 1.915 5.93c3.063 9.888 5.419 19.543 7.079 28.966.117.662.232 1.323.337 1.984.117.627.221 1.253.301 1.869.07.394.139.789.186 1.172.36 2.321.673 4.631.952 6.917.069.661.151 1.311.22 1.973.012.139.035.29.046.441l.139 1.393c.047.418.082.835.117 1.242.069.685.127 1.37.186 2.042 1.297 15.867.613 31.011-1.894 45.471z"></path><linearGradient id="b" x1="681.172" x2="681.172" y1="713.441" y2="984.992" gradientUnits="userSpaceOnUse"><stop offset="0" stop-color="#fff9f2" class="stopColorfff9f2 svgShape"></stop><stop offset="1" stop-color="#f5d5c1" class="stopColorf5d5c1 svgShape"></stop></linearGradient><path fill="url(#b)" d="M1231.925 662.086v34.142C1179.492 859.072 883.398 926.416 632.61 926.37c-161.022-.046-366.862-37.868-461.886-175.226-13.253-19.149-24.347-40.235-32.865-63.422a192.751 192.751 0 0 1-1.938-5.745h-.012a238.33 238.33 0 0 1-5.489-19.891h1101.505z"></path><linearGradient id="c" x1="710.449" x2="721.045" y1="793.752" y2="711.103" gradientUnits="userSpaceOnUse"><stop offset="0" stop-color="#ffffff" class="stopColorfff svgShape"></stop><stop offset="1" stop-color="#c4a89f" class="stopColorc4a89f svgShape"></stop></linearGradient><path fill="url(#c)" d="M613.166 675.606h205.866v148.153H613.166z"></path><linearGradient id="d" x1="928.711" x2="917.812" y1="806.043" y2="715.22" gradientUnits="userSpaceOnUse"><stop offset="0" stop-color="#ffffff" class="stopColorfff svgShape"></stop><stop offset="1" stop-color="#c4a89f" class="stopColorc4a89f svgShape"></stop></linearGradient><path fill="url(#d)" d="M819.032 823.901h205.865V675.748H819.032z"></path><path fill="#ffdec2" d="M1235.046 685.296c-1.045-.093-2.077-.197-3.121-.29-.07-.011-.139-.011-.21-.023a6071.954 6071.954 0 0 0-35.221-3.133 6057.625 6057.625 0 0 0-35.442-2.936c-7.66-.615-15.319-1.207-22.978-1.799-2.553-.197-5.107-.394-7.66-.58a2023.18 2023.18 0 0 0-11.767-.87l-10.526-.766a6123.035 6123.035 0 0 0-35.476-2.437c-5.826-.383-11.652-.766-17.478-1.126-.069 0-.139-.012-.208-.012-2.321-.151-4.653-.29-6.974-.429-6.743-.418-13.498-.824-20.24-1.219-3.389-.209-6.777-.394-10.166-.592-3.795-.22-7.578-.43-11.362-.627-3.517-.197-7.021-.383-10.526-.569-3.504-.197-7.021-.383-10.526-.557-7.01-.36-14.03-.708-21.051-1.044-7.067-.348-14.147-.673-21.215-.987-6.463-.29-12.939-.568-19.404-.835-1.508-.07-3.029-.128-4.538-.186-6.173-.256-12.336-.499-18.498-.731-7.439-.279-14.867-.546-22.306-.801-.069 0-.127-.012-.197-.012a7177.6 7177.6 0 0 0-35.314-1.102 6018.907 6018.907 0 0 0-35.535-.906c-5.641-.128-11.28-.255-16.909-.36-1.52-.023-3.028-.058-4.537-.081-8.716-.174-17.42-.325-26.135-.453-2.553-.035-5.107-.081-7.659-.116-5.873-.081-11.733-.151-17.594-.208-.383-.012-.755-.012-1.125-.012a1502.5 1502.5 0 0 0-10.398-.104c-.082 0-.152-.012-.221 0a6786.726 6786.726 0 0 0-34.363-.22c-7.079-.023-14.157-.035-21.237-.035h-.835c-6.755 0-13.497.012-20.251.035-5.094.011-10.19.035-15.284.07-7.671.046-15.342.104-23.002.185-.139-.011-.266 0-.406 0-3.377.023-6.755.07-10.132.105-5.245.058-10.491.128-15.736.197-3.11.047-6.232.081-9.342.139-.348 0-.697 0-1.045.011-2.669.035-5.338.081-8.007.139-.708 0-1.417.011-2.124.035-12.163.209-24.337.453-36.498.732-.708.023-1.416.035-2.124.046-2.182.046-4.363.105-6.545.163-5.362.128-10.723.267-16.085.418-1.196.024-2.403.046-3.598.093-.011-.011-.023-.011-.034 0-2.31.058-4.631.116-6.94.186-11.431.337-22.874.696-34.316 1.091-6.245.22-12.476.441-18.708.673-9.969.371-19.95.766-29.918 1.195-4.445.186-8.901.383-13.357.58-1.056.035-2.101.082-3.157.139l-9.214.418c-5.118.232-10.247.475-15.366.731-5.838.278-11.674.58-17.501.882-.069 0-.139 0-.209.012-.104 0-.197.011-.301.011-4.434.232-8.89.453-13.323.708-.151 0-.301.012-.464.023-3.667.198-7.335.406-11.014.615-3.389.174-6.79.371-10.19.568-5.838.337-11.674.673-17.523 1.033-3.331.197-6.673.406-10.015.615-8.473.522-16.956 1.068-25.427 1.625-.07 0-.139.011-.21.011a5155.369 5155.369 0 0 0-35.268 2.437c-5.78.418-11.57.836-17.361 1.277-3.47.255-6.952.511-10.433.789a4732.09 4732.09 0 0 0-25.137 1.973c-.069 0-.127.011-.197.011-2.263.186-4.525.372-6.789.546-9.203.754-18.418 1.52-27.62 2.321h-.012c-4.375-13.473-7.497-27.388-9.388-41.5a245.446 245.446 0 0 1-2.158-34.282c-.151.058-.29.128-.43.185.139-.069.279-.139.43-.197.046-8.82.568-17.628 1.566-26.367.209-1.95.452-3.888.731-5.826a226.968 226.968 0 0 1 1.869-11.605h1095.167a268.265 268.265 0 0 1 4.248 11.779 208.873 208.873 0 0 1 1.915 5.93c3.063 9.888 5.419 19.543 7.079 28.966.117.662.232 1.323.337 1.984.117.627.221 1.253.301 1.869.07.394.139.789.186 1.172.36 2.321.673 4.631.952 6.917.069.661.151 1.311.22 1.973.012 0 .024 0 .046.011v.43l.139 1.393c.047.418.082.835.117 1.242.069.685.127 1.37.186 2.042 1.657 20.207.089 39.262-4.378 57.204z" class="colorFFDEC2 svgShape"></path><path fill="#b07858" d="M1229.859 580.095a42586.927 42586.927 0 0 0-1103.93-.278c.209-1.95.452-3.888.731-5.826a64029.463 64029.463 0 0 1 1101.284.174 208.873 208.873 0 0 1 1.915 5.93z" class="colorB07858 svgShape"></path><path fill="#251811" d="m179.905 622.262-2.314.095v-4.114l2.314-.088v4.107z" class="color251811 svgShape"></path><path fill="#f5c167" d="M178.748 619.507c-3.32.134-6.028-1.588-6.022-3.84v-7.218c4.015-.128 8.029-.253 12.046-.377v7.159c-.001 2.229-2.695 4.148-6.024 4.276z" class="colorF5C167 svgShape"></path><path fill="#f2e3ba" d="M178.748 617.756c-2.291.09-4.146-1.096-4.148-2.646v-4.965c2.765-.091 5.531-.18 8.296-.27v4.937c.002 1.54-1.86 2.856-4.148 2.944z" class="colorF2E3BA svgShape"></path><path fill="#b07858" d="m181.472 624.11-5.447.229c-1.256.054-2.28-.592-2.28-1.444v-.001c.003-.854 1.021-1.578 2.28-1.634l5.447-.218c1.257-.051 2.278.596 2.279 1.44.001.845-1.024 1.579-2.279 1.628zM186.365 610.846c-.002-.007.004-.019.002-.027-.001-2.822-3.412-5.005-7.619-4.884-4.207.122-7.616 2.536-7.618 5.39.001.01 0 .019.003.028 5.078-.171 10.155-.34 15.232-.507z" class="colorB07858 svgShape"></path><path fill="#251811" d="m268.317 618.984-2.318.078v-3.888l2.318-.072v3.882z" class="color251811 svgShape"></path><path fill="#f5c167" d="M267.159 616.374c-3.329.107-6.03-1.528-6.028-3.657v-6.819c4.018-.104 8.036-.207 12.055-.308v6.77c-.002 2.112-2.7 3.909-6.027 4.014z" class="colorF5C167 svgShape"></path><path fill="#f2e3ba" d="M267.159 614.72c-2.294.07-4.153-1.055-4.152-2.521v-4.691c2.768-.074 5.535-.148 8.303-.22v4.668c0 1.456-1.858 2.694-4.151 2.764z" class="colorF2E3BA svgShape"></path><path fill="#b07858" d="m269.884 620.739-5.451.188c-1.26.047-2.281-.572-2.281-1.377v-.001c-.002-.804 1.022-1.489 2.281-1.532 1.817-.06 3.633-.12 5.451-.178 1.264-.044 2.281.576 2.281 1.374 0 .001 0 .001 0 0 .001.801-1.02 1.481-2.281 1.526zM274.781 608.221c-.005-.006.004-.019.002-.026-.001-2.667-3.416-4.747-7.624-4.648-4.212.1-7.624 2.37-7.625 5.063-.002.01.003.02.002.026 5.081-.141 10.163-.279 15.245-.415z" class="colorB07858 svgShape"></path><path fill="#251811" d="m356.789 616.361-2.318.061v-3.707l2.318-.056v3.702z" class="color251811 svgShape"></path><path fill="#f5c167" d="M355.63 613.866c-3.33.081-6.033-1.494-6.031-3.519v-6.497c4.022-.082 8.041-.162 12.063-.24v6.46c.002 2.011-2.704 3.712-6.032 3.796z" class="colorF5C167 svgShape"></path><path fill="#f2e3ba" d="M355.63 612.289c-2.293.056-4.154-1.028-4.154-2.425v-4.471l8.308-.172v4.453c.003 1.39-1.858 2.561-4.154 2.615z" class="colorF2E3BA svgShape"></path><path fill="#b07858" d="m358.357 618.045-5.455.147c-1.26.035-2.287-.56-2.283-1.327v-.001c.006-.769 1.022-1.413 2.283-1.446l5.455-.139c1.257-.031 2.284.56 2.283 1.324.002.763-1.021 1.408-2.283 1.442zM363.257 606.128l.002-.024c0-2.545-3.416-4.55-7.63-4.469-4.214.074-7.628 2.222-7.628 4.791l.002.024c5.085-.11 10.169-.217 15.254-.322z" class="colorB07858 svgShape"></path><path fill="#251811" d="M445.309 614.394c-.773.015-1.547.03-2.319.043v-3.57c.772-.012 1.546-.027 2.319-.04v3.567z" class="color251811 svgShape"></path><path fill="#f5c167" d="M444.15 611.983c-3.332.061-6.034-1.471-6.034-3.424v-6.255c4.023-.06 8.046-.116 12.068-.172v6.228c.002 1.94-2.7 3.564-6.034 3.623z" class="colorF5C167 svgShape"></path><path fill="#f2e3ba" d="M444.15 610.463c-2.293.036-4.156-1.015-4.156-2.36v-4.305l8.312-.123v4.292c.004 1.339-1.862 2.455-4.156 2.496z" class="colorF2E3BA svgShape"></path><path fill="#b07858" d="M446.877 616.027c-1.819.034-3.637.069-5.456.105-1.261.022-2.284-.556-2.284-1.292v-.001c0-.741 1.023-1.351 2.284-1.379l5.456-.1c1.264-.021 2.286.555 2.284 1.29.001 0 .001 0 0 0 .001.738-1.017 1.353-2.284 1.377zM451.781 604.568c0-.008-.001-.018.002-.024.002-2.454-3.418-4.4-7.632-4.346-4.214.056-7.634 2.106-7.633 4.576-.003.008.001.019.002.024 5.086-.079 10.173-.156 15.261-.23z" class="colorB07858 svgShape"></path><path fill="#251811" d="M533.863 613.081c-.773.009-1.546.019-2.319.026v-3.479l2.319-.024v3.477z" class="color251811 svgShape"></path><path fill="#f5c167" d="M532.703 610.724c-3.33.036-6.038-1.477-6.035-3.375v-6.091c4.024-.036 8.047-.071 12.072-.104v6.075c.002 1.893-2.705 3.459-6.037 3.495z" class="colorF5C167 svgShape"></path><path fill="#f2e3ba" d="M532.703 609.243c-2.297.024-4.161-1.015-4.158-2.325v-4.194l8.315-.074v4.186c.003 1.306-1.861 2.381-4.157 2.407z" class="colorF2E3BA svgShape"></path><path fill="#b07858" d="M535.433 614.684c-1.82.02-3.639.042-5.458.063-1.259.015-2.289-.556-2.284-1.274v-.001c-.002-.718 1.021-1.313 2.284-1.327l5.458-.06c1.263-.011 2.283.558 2.285 1.275.001.719-1.026 1.311-2.285 1.324zM540.336 603.54c-.002-.007-.003-.015.002-.023.002-2.391-3.421-4.313-7.635-4.278-4.214.031-7.637 2.013-7.635 4.417l.002.023c5.089-.05 10.178-.096 15.266-.139z" class="colorB07858 svgShape"></path><path fill="#251811" d="m622.438 612.425-2.321.008V609l2.321-.008v3.433z" class="color251811 svgShape"></path><path fill="#f5c167" d="M621.279 610.089c-3.336.012-6.037-1.495-6.037-3.369v-6.006c4.024-.013 8.049-.024 12.074-.036v6.001c-.001 1.868-2.705 3.4-6.037 3.41z" class="colorF5C167 svgShape"></path><path fill="#f2e3ba" d="M621.279 608.628c-2.292.012-4.162-1.031-4.159-2.322v-4.136c2.772-.01 5.545-.016 8.316-.025v4.134c.003 1.289-1.862 2.341-4.157 2.349z" class="colorF2E3BA svgShape"></path><path fill="#b07858" d="m624.008 614.019-5.459.022c-1.258.005-2.287-.566-2.285-1.274v-.001c0-.709 1.025-1.286 2.285-1.293 1.819-.008 3.639-.015 5.459-.02 1.257-.004 2.285.563 2.285 1.275-.001.708-1.025 1.287-2.285 1.291zM628.912 603.045c-.001-.009.001-.012.002-.023-.002-2.368-3.418-4.277-7.636-4.267-4.219.01-7.633 1.946-7.636 4.315a.062.062 0 0 0 .002.023c5.09-.019 10.179-.035 15.268-.048z" class="colorB07858 svgShape"></path><path fill="#251811" d="m711.02 612.423-2.319-.007v-3.432l2.319.007v3.432z" class="color251811 svgShape"></path><path fill="#f5c167" d="M709.86 610.08c-3.335-.008-6.041-1.539-6.036-3.407v-6c4.024.01 8.049.021 12.073.033v6.005c-.001 1.872-2.7 3.382-6.037 3.369z" class="colorF5C167 svgShape"></path><path fill="#f2e3ba" d="M709.86 608.618c-2.296-.007-4.162-1.059-4.158-2.347v-4.133l8.317.024v4.135c0 1.291-1.861 2.33-4.159 2.321z" class="colorF2E3BA svgShape"></path><path fill="#b07858" d="M712.589 614.029c-1.82-.008-3.64-.015-5.459-.02-1.263-.003-2.284-.582-2.284-1.29v-.001c.005-.711 1.023-1.278 2.284-1.274l5.459.019c1.266.003 2.282.585 2.285 1.292-.001.712-1.022 1.278-2.285 1.274zM717.494 603.083c.001-.007.003-.015.002-.023-.001-2.37-3.42-4.302-7.636-4.312-4.215-.011-7.636 1.897-7.636 4.267a.038.038 0 0 0 .002.023c5.088.012 10.178.027 15.268.045zM170.527 623.626v55.461c-.069 0-.127.011-.197.011l-6.789.557c-9.203.754-18.418 1.52-27.62 2.321h-.012c-4.375-13.473-7.497-27.388-9.388-41.5a245.446 245.446 0 0 1-2.158-34.282c-.151.058-.29.128-.43.185.139-.069.279-.139.43-.197a23.505 23.505 0 0 1 1.984-.766 26 26 0 0 1 1.752-.534 36.439 36.439 0 0 1 1.845-.429h.011c.952-.198 1.95-.349 2.983-.453.696-.07 1.416-.116 2.159-.151 23.175-.29 26.309 20.541 26.389 21.11 3.018-.439 6.035-.892 9.041-1.333zM223.463 601.432c-23.521.832-26.416 22.03-26.415 22.035l-9.045-.564v54.807a6287.328 6287.328 0 0 1 35.46-2.653 6016.801 6016.801 0 0 1 35.472-2.448v-52.382c-3.017.403-6.033.807-9.05 1.215 0 .009-2.901-20.228-26.422-20.01zM311.906 599.449c-23.538.712-26.433 20.766-26.435 20.766l-9.051-.582v51.845a6184.687 6184.687 0 0 1 70.982-4.083v-49.904c-3.018.364-6.037.734-9.056 1.104.003.006-2.902-19.274-26.44-19.146zM400.403 597.906c-23.55.596-26.453 19.732-26.45 19.734l-9.057-.61v49.486a6191.427 6191.427 0 0 1 71.021-3.065v-48.029c-3.02.333-6.041.667-9.06 1.003-.001.006-2.899-18.551-26.454-18.519zM488.942 596.802c-23.563.484-26.459 18.938-26.46 18.939-3.02-.218-6.041-.435-9.062-.651v47.73c11.839-.409 23.68-.785 35.522-1.125 11.841-.341 23.684-.647 35.527-.921v-46.758c-3.021.303-6.043.606-9.064.912.001.006-2.901-18.065-26.463-18.126zM577.509 596.138c-23.566.37-26.465 18.385-26.468 18.38l-9.063-.7v46.578a6100.725 6100.725 0 0 1 71.064-1.027V613.28c-3.021.275-6.043.552-9.065.831-.001.001-2.903-17.813-26.468-17.973zM692.558 613.968c-.003.004-2.901-17.792-26.47-18.053-23.567.265-26.47 18.062-26.47 18.057-3.023-.254-6.043-.507-9.065-.759v46.029a6189.965 6189.965 0 0 1 71.07-.01v-46.024c-3.021.251-6.043.505-9.065.76zM781.136 614.501c-.002.004-2.9-18.006-26.467-18.372-23.566.161-26.473 17.973-26.469 17.971-3.021-.277-6.043-.555-9.065-.83v46.082c11.844.099 23.689.234 35.533.402 11.844.168 23.687.371 35.531.606v-46.562l-9.063.703z" class="colorB07858 svgShape"></path><path fill="#e6e6e6" d="M790.199 613.807v46.557a13.884 13.884 0 0 1-.206-.004c-17.277-22.38-48.76-38.459-68.62-46.881 2.277.21 4.554.418 6.83.63-.002.003 2.905-17.811 26.473-17.978 23.562.371 26.455 18.378 26.459 18.379l9.064-.703zM701.623 613.213v46.019l-.206-.001c-17.282-21.867-48.768-37.558-68.625-45.83 2.277.191 4.554.384 6.83.577-.001.005 2.901-17.799 26.474-18.064 23.562.265 26.463 18.063 26.462 18.06l9.065-.761zM613.042 613.285v46.085l-.206.002c-17.283-21.632-48.762-37.144-68.62-45.379l6.83.532c-.001-.001 2.9-18.012 26.47-18.387 23.565.164 26.46 17.982 26.46 17.978 3.023-.278 6.043-.555 9.066-.831zM524.469 614.023v46.753l-.207.005c-17.279-21.685-48.751-37.228-68.604-45.527l6.828.494c.004.001 2.898-18.459 26.464-18.946 23.551.065 26.457 18.139 26.455 18.134 3.021-.306 6.042-.611 9.064-.913zM435.917 615.427v48.024l-.207.008c-17.272-22.015-48.735-37.796-68.576-46.277l6.824.465c-.001.002 2.9-19.148 26.453-19.742 23.547-.035 26.446 18.536 26.445 18.525 3.021-.336 6.04-.67 9.061-1.003zM347.402 617.498v49.899l-.207.01c-17.266-22.642-48.711-38.859-68.54-47.628l6.82.443c-.001-.007 2.893-20.056 26.438-20.774 23.531-.126 26.433 19.159 26.432 19.154 3.019-.37 6.038-.738 9.057-1.104zM258.935 620.234v52.377l-.206.014c-17.252-23.55-48.681-40.415-68.492-49.578l6.815.429c0-.005 2.891-21.209 26.419-22.044 23.518-.217 26.413 20.03 26.414 20.018 3.016-.408 6.033-.813 9.05-1.216zM170.527 623.638v55.461c-.069 0-.127.011-.197.011v-.011c-11.059-15.853-27.922-28.816-43.81-38.622a245.446 245.446 0 0 1-2.158-34.282c.638-.279 1.3-.534 1.984-.778a26 26 0 0 1 1.752-.534 36.439 36.439 0 0 1 1.845-.429h.011c.952-.186 1.95-.337 2.983-.453.696-.07 1.416-.116 2.159-.151 23.175-.29 26.309 20.541 26.389 21.11v.011c3.019-.451 6.036-.892 9.042-1.333z" class="colorE6E6E6 svgShape"></path><path fill="#251811" d="m798.995 613.071-2.319-.025v-3.475l2.319.024v3.476z" class="color251811 svgShape"></path><path fill="#f5c167" d="M797.835 610.688c-3.331-.035-6.034-1.595-6.036-3.49v-6.071c4.024.032 8.049.065 12.073.101v6.087c0 1.899-2.707 3.41-6.037 3.373z" class="colorF5C167 svgShape"></path><path fill="#f2e3ba" d="M797.835 609.208c-2.296-.023-4.16-1.098-4.157-2.404v-4.183l8.315.073v4.19c-.001 1.311-1.861 2.349-4.158 2.324z" class="colorF2E3BA svgShape"></path><path fill="#b07858" d="m800.564 614.709-5.459-.062c-1.26-.01-2.289-.605-2.285-1.323-.001 0-.001 0 0 0 0-.717 1.02-1.289 2.285-1.274l5.459.058c1.263.015 2.286.605 2.284 1.327-.003.72-1.023 1.287-2.284 1.274zM805.467 603.648c.003-.007.006-.015.003-.023.001-2.397-3.42-4.379-7.636-4.413-4.216-.031-7.636 1.879-7.635 4.277-.001.009.002.015.003.024 5.089.041 10.177.086 15.265.135z" class="colorB07858 svgShape"></path><path fill="#251811" d="m887.55 614.376-2.32-.043v-3.563l2.32.039v3.567z" class="color251811 svgShape"></path><path fill="#f5c167" d="M886.39 611.924c-.001 0-.001 0 0 0-3.333-.059-6.035-1.676-6.034-3.618v-6.221c4.022.055 8.045.112 12.069.17v6.247c-.002 1.952-2.702 3.481-6.035 3.422z" class="colorF5C167 svgShape"></path><path fill="#f2e3ba" d="M886.39 610.407c-.001 0-.001 0 0 0-2.298-.041-4.154-1.155-4.156-2.492v-4.288c2.77.039 5.541.081 8.312.121v4.3c0 1.346-1.86 2.395-4.156 2.359z" class="colorF2E3BA svgShape"></path><path fill="#b07858" d="M889.118 616.067a9744 9744 0 0 0-5.456-.103c-1.26-.026-2.283-.638-2.284-1.372v-.001c-.002-.737 1.02-1.314 2.284-1.29 1.819.033 3.638.065 5.456.099 1.265.026 2.282.641 2.284 1.376 0-.001 0-.001 0 0-.001.736-1.023 1.318-2.284 1.291zM894.02 604.747c-.001-.011.007-.015.002-.024-.005-2.466-3.416-4.512-7.633-4.569-4.216-.056-7.634 1.892-7.633 4.342.002.009 0 .015.002.024 5.088.073 10.175.149 15.262.227z" class="colorB07858 svgShape"></path><path fill="#251811" d="M976.07 616.335c-.773-.019-1.546-.04-2.318-.06v-3.696l2.318.056v3.7z" class="color251811 svgShape"></path><path fill="#f5c167" d="M974.911 613.785c-3.331-.079-6.032-1.781-6.032-3.789v-6.45c4.021.077 8.042.156 12.063.238v6.487c-.001 2.017-2.702 3.599-6.031 3.514z" class="colorF5C167 svgShape"></path><path fill="#f2e3ba" d="M974.911 612.209c-2.294-.056-4.155-1.223-4.155-2.609v-4.446c2.769.056 5.54.112 8.309.17v4.464c.001 1.395-1.858 2.476-4.154 2.421z" class="colorF2E3BA svgShape"></path><path fill="#b07858" d="m977.638 618.102-5.455-.145c-1.254-.029-2.284-.679-2.282-1.439v-.001c-.003-.762 1.023-1.353 2.282-1.321l5.455.138c1.26.034 2.286.675 2.283 1.444.001.764-1.022 1.357-2.283 1.324zM982.538 606.379a.044.044 0 0 1 .002-.025c-.002-2.56-3.415-4.706-7.629-4.783-4.215-.078-7.63 1.92-7.63 4.464-.003.009.002.017.002.024 5.085.105 10.17.211 15.255.32z" class="colorB07858 svgShape"></path><path fill="#251811" d="m1064.543 618.951-2.317-.077v-3.875l2.317.072v3.88z" class="color251811 svgShape"></path><path fill="#f5c167" d="M1063.385 616.269c-3.33-.109-6.03-1.901-6.028-4.005v-6.757c4.019.1 8.036.202 12.055.307v6.805c-.001 2.125-2.697 3.757-6.027 3.65z" class="colorF5C167 svgShape"></path><path fill="#f2e3ba" d="M1063.385 614.618c-2.292-.074-4.15-1.3-4.152-2.758v-4.659l8.303.219v4.682c.003 1.462-1.856 2.59-4.151 2.516z" class="colorF2E3BA svgShape"></path><path fill="#b07858" d="m1066.109 620.813-5.45-.187c-1.261-.046-2.28-.725-2.281-1.522v-.001c-.003-.8 1.02-1.412 2.281-1.371l5.45.177c1.261.044 2.282.725 2.281 1.528 0 .802-1.019 1.418-2.281 1.376zM1071.006 608.545c-.002-.008.002-.015.003-.026.002-2.69-3.415-4.952-7.625-5.052-4.211-.1-7.621 1.981-7.625 4.641l.002.026c5.082.134 10.165.272 15.245.411z" class="colorB07858 svgShape"></path><path fill="#251811" d="m1152.954 622.222-2.315-.094v-4.098l2.315.087v4.105z" class="color251811 svgShape"></path><path fill="#f5c167" d="M1151.797 619.379c-3.327-.133-6.019-2.038-6.022-4.267v-7.143c4.015.124 8.031.248 12.046.375v7.202c-.002 2.249-2.7 3.961-6.024 3.833z" class="colorF5C167 svgShape"></path><path fill="#f2e3ba" d="M1151.797 617.633c-2.293-.088-4.148-1.401-4.148-2.938v-4.926c2.766.09 5.531.178 8.297.269v4.954c.003 1.545-1.861 2.73-4.149 2.641z" class="colorF2E3BA svgShape"></path><path fill="#b07858" d="m1154.521 624.2-5.447-.228c-1.261-.051-2.279-.783-2.28-1.622v-.001c.001-.843 1.02-1.482 2.28-1.438l5.447.217c1.259.047 2.286.781 2.279 1.63.001.85-1.026 1.496-2.279 1.442zM1159.413 611.243c-.003-.01 0-.019.002-.028.001-2.848-3.411-5.253-7.619-5.378-4.207-.123-7.618 2.063-7.619 4.875 0 .01.003.019.002.027 5.078.165 10.157.332 15.234.504z" class="colorB07858 svgShape"></path><path fill="#251811" d="M1239.236 626.052c-.082 0-.175-.011-.256-.011v-2.623l.139 1.393c.047.417.082.834.117 1.241z" class="color251811 svgShape"></path><path fill="#f5c167" d="M1238.933 622.976c-2.75-.534-4.816-2.344-4.816-4.434v-7.613c1.056.035 2.1.082 3.156.116.117.627.221 1.253.301 1.869.07.394.139.789.186 1.172.36 2.321.673 4.631.952 6.917.07.662.152 1.312.221 1.973z" class="colorF5C167 svgShape"></path><path fill="#f2e3ba" d="M1238.713 621.003c-1.59-.475-2.727-1.625-2.727-2.901v-5.246c.534.023 1.055.035 1.589.058.07.394.139.789.186 1.172.361 2.322.674 4.631.952 6.917z" class="colorF2E3BA svgShape"></path><path fill="#b07858" d="m1239.422 628.094-2.008-.104c-1.254-.058-2.275-.835-2.275-1.741 0-.858.94-1.52 2.124-1.52h.151c.522.023 1.045.058 1.566.082h.139c.047.418.082.835.117 1.242.069.683.127 1.368.186 2.041zM1237.761 614.087l-1.775-.07c-.627-.023-1.242-.058-1.869-.081-.534-.012-1.056-.035-1.59-.058v-.023c-.011-2.194 1.799-4.016 4.41-4.793.117.662.232 1.323.337 1.984.117.627.221 1.253.301 1.869.071.394.14.789.186 1.172zM842.635 596.78c-23.565.065-26.463 18.125-26.464 18.12-3.021-.305-6.042-.609-9.063-.91v46.733c11.843.268 23.686.571 35.527.908 11.841.338 23.683.707 35.522 1.112V615.05l-9.061.652c.003-.003-2.903-18.445-26.461-18.922zM931.175 597.872c-23.556-.033-26.454 18.51-26.454 18.505-3.019-.336-6.041-.669-9.06-1v47.989a6190.436 6190.436 0 0 1 71.022 3.039v-49.434l-9.058.612c.001-.002-2.9-19.124-26.45-19.711zM1019.673 599.404c-23.54-.124-26.443 19.135-26.44 19.127-3.018-.369-6.037-.736-9.056-1.102v49.849a6183.875 6183.875 0 0 1 70.983 4.057v-51.777l-9.052.583c.001-.003-2.896-20.028-26.435-20.737zM1108.117 601.376c-23.528-.218-26.422 20-26.422 19.984-3.016-.406-6.033-.811-9.05-1.212v52.311a6186.66 6186.66 0 0 1 70.933 5.075v-54.723l-9.045.564c.003 0-2.898-21.173-26.416-21.999zM1196.494 603.788c-23.501-.3-26.402 21.087-26.4 21.079-3.015-.448-6.03-.893-9.043-1.334v55.377a6185.967 6185.967 0 0 1 70.873 6.092V626.73l-9.036.555c-.006-.004-2.889-22.546-26.394-23.497z" class="colorB07858 svgShape"></path><path fill="#e6e6e6" d="M1231.924 626.74v58.266l-.206-.019c-17.225-29.237-48.624-50.315-68.434-61.122 2.271.335 4.543.673 6.813 1.012.002.011 2.892-21.386 26.404-21.088 23.491.953 26.388 23.499 26.385 23.507l9.038-.556zM1143.578 622.819v54.717l-.206-.015c-17.243-27.302-48.661-46.958-68.493-57.071 2.272.305 4.547.611 6.819.919-.001.009 2.892-20.203 26.426-19.993 23.516.831 26.409 22.003 26.409 22.007 3.016-.186 6.03-.375 9.045-.564zM1055.16 619.566v51.771a14.23 14.23 0 0 1-.206-.013c-17.257-25.642-48.699-44.095-68.54-53.621 2.275.277 4.549.556 6.823.835.002.005 2.897-19.253 26.444-19.134 23.531.712 26.427 20.741 26.427 20.745 3.017-.193 6.034-.388 9.052-.583zM966.682 616.978v49.428l-.207-.01c-17.264-24.268-48.729-41.723-68.577-50.77 2.276.251 4.551.504 6.827.759-.001.009 2.903-18.541 26.457-18.512 23.544.597 26.44 19.713 26.443 19.718l9.057-.613zM878.157 615.056v47.688l-.206-.007c-17.276-23.183-48.746-39.843-68.603-48.521 2.276.228 4.551.457 6.828.69-.001.005 2.9-18.061 26.467-18.127 23.554.481 26.448 18.928 26.452 18.929l9.062-.652z" class="colorE6E6E6 svgShape"></path><path fill="#ffdec2" d="M1223.696 562.386H128.528c2.17-11.617 5.176-23.025 9.029-34.096 4.328-12.51 9.725-24.591 16.166-36.011 5.896-10.421 12.649-20.309 20.285-29.489a148.855 148.855 0 0 1 4.562-5.28 180.657 180.657 0 0 1 10.05-10.41 6180.236 6180.236 0 0 0 925.105 2.367 129.463 129.463 0 0 0 7.962 10.352 149.806 149.806 0 0 0 4.607 5.188c8.391 9.029 17.849 17.211 27.609 25.148.824.661 1.636 1.335 2.46 1.996.487.394.975.777 1.462 1.172.522.43 1.056.847 1.579 1.265 3.865 3.087 7.752 6.162 11.616 9.261.011 0 .011.011.011.011 10.004 7.984 19.846 16.108 28.747 24.998 7.903 7.891 15.052 16.387 20.901 25.961a261.566 261.566 0 0 1 3.017 7.567z" class="colorFFDEC2 svgShape"></path><path fill="#b07858" d="M1126.294 465.007a7225.019 7225.019 0 0 1-952.286-2.217 148.855 148.855 0 0 1 4.562-5.28 6839.26 6839.26 0 0 0 943.117 2.309 148.884 148.884 0 0 0 4.607 5.188z" class="colorB07858 svgShape"></path><path fill="#251811" d="m179.905 506.304-2.314-.089v-4.114l2.314.095v4.108z" class="color251811 svgShape"></path><path fill="#f5c167" d="M178.748 503.458c-3.32-.129-6.028-2.069-6.022-4.32v-7.218c4.015.195 8.029.387 12.046.577v7.159c-.001 2.23-2.695 3.934-6.024 3.802z" class="colorF5C167 svgShape"></path><path fill="#f2e3ba" d="M178.748 501.708c-2.291-.092-4.146-1.43-4.148-2.977v-4.965c2.765.13 5.531.26 8.296.388v4.937c.002 1.539-1.86 2.707-4.148 2.617z" class="colorF2E3BA svgShape"></path><path fill="#b07858" d="m181.472 508.276-5.447-.201c-1.256-.048-2.28-.775-2.28-1.627.003-.849 1.021-1.505 2.28-1.452 1.816.072 3.631.143 5.447.213 1.257.051 2.278.773 2.279 1.62.001.841-1.024 1.494-2.279 1.447zM186.365 495.396c-.002-.008.004-.02.002-.027-.001-2.819-3.412-5.271-7.619-5.483-4.207-.21-7.616 1.927-7.618 4.782.001.009 0 .018.003.028 5.078.237 10.155.471 15.232.7z" class="colorB07858 svgShape"></path><path fill="#251811" d="m268.317 509.375-2.318-.073v-3.888l2.318.078v3.883z" class="color251811 svgShape"></path><path fill="#f5c167" d="M267.159 506.691c-3.329-.109-6.03-1.924-6.028-4.051v-6.818c4.018.16 8.036.318 12.055.473v6.77c-.002 2.107-2.7 3.735-6.027 3.626z" class="colorF5C167 svgShape"></path><path fill="#f2e3ba" d="M267.159 505.036c-2.294-.078-4.153-1.327-4.152-2.791v-4.691c2.768.107 5.535.213 8.303.317v4.668c0 1.454-1.858 2.574-4.151 2.497z" class="colorF2E3BA svgShape"></path><path fill="#b07858" d="M269.884 511.231c-1.818-.054-3.633-.109-5.451-.165-1.26-.037-2.281-.721-2.281-1.526-.002-.806 1.022-1.423 2.281-1.383l5.451.175c1.264.039 2.281.725 2.281 1.521.001.799-1.02 1.416-2.281 1.378zM274.781 499.026c-.005-.009.004-.014.002-.026-.001-2.668-3.416-4.967-7.624-5.138-4.212-.172-7.624 1.869-7.625 4.564-.002.007.003.02.002.026 5.081.196 10.163.387 15.245.574z" class="colorB07858 svgShape"></path><path fill="#251811" d="m356.789 511.831-2.318-.057v-3.707l2.318.061v3.703z" class="color251811 svgShape"></path><path fill="#f5c167" d="M355.63 509.278c0 .001 0 .001 0 0-3.33-.085-6.033-1.798-6.031-3.826v-6.497c4.022.125 8.041.247 12.063.367v6.46c.002 2.018-2.704 3.578-6.032 3.496z" class="colorF5C167 svgShape"></path><path fill="#f2e3ba" d="M355.63 507.701c-2.293-.06-4.154-1.243-4.154-2.636v-4.471c2.769.084 5.54.166 8.308.247v4.453c.003 1.387-1.858 2.466-4.154 2.407z" class="colorF2E3BA svgShape"></path><path fill="#b07858" d="m358.357 513.593-5.455-.128c-1.26-.028-2.287-.677-2.283-1.443.006-.767 1.022-1.363 2.283-1.331l5.455.135c1.257.031 2.284.673 2.283 1.438.002.765-1.021 1.359-2.283 1.329zM363.257 501.92l.002-.025c0-2.544-3.416-4.713-7.63-4.849-4.214-.137-7.628 1.837-7.628 4.402l.002.025c5.085.153 10.169.302 15.254.447z" class="colorB07858 svgShape"></path><path fill="#251811" d="M445.309 513.674c-.773-.012-1.547-.027-2.319-.04v-3.571c.772.016 1.546.029 2.319.043v3.568z" class="color251811 svgShape"></path><path fill="#f5c167" d="M444.15 511.221c-3.332-.056-6.034-1.692-6.034-3.645v-6.255c4.023.09 8.046.178 12.068.263v6.228c.002 1.943-2.7 3.468-6.034 3.409z" class="colorF5C167 svgShape"></path><path fill="#f2e3ba" d="M444.15 509.702c-2.293-.043-4.156-1.166-4.156-2.511v-4.305c2.77.061 5.541.12 8.312.177v4.292c.004 1.339-1.862 2.389-4.156 2.347z" class="colorF2E3BA svgShape"></path><path fill="#b07858" d="m446.877 515.363-5.456-.092c-1.261-.02-2.284-.638-2.284-1.375v-.001c0-.738 1.023-1.318 2.284-1.295l5.456.097c1.264.025 2.286.636 2.284 1.372.001 0 .001 0 0 0 .001.733-1.017 1.32-2.284 1.294zM451.781 504.077c0-.005-.001-.017.002-.024.002-2.452-3.418-4.521-7.632-4.616-4.214-.096-7.634 1.825-7.633 4.297-.003.007.001.016.002.024 5.086.11 10.173.216 15.261.319z" class="colorB07858 svgShape"></path><path fill="#251811" d="m533.863 514.903-2.319-.024V511.4l2.319.026v3.477z" class="color251811 svgShape"></path><path fill="#f5c167" d="M532.703 512.52c-3.33-.036-6.038-1.607-6.035-3.509v-6.091c4.024.055 8.047.108 12.072.158v6.075c.002 1.901-2.705 3.4-6.037 3.367z" class="colorF5C167 svgShape"></path><path fill="#f2e3ba" d="M532.703 511.039c-2.297-.022-4.161-1.11-4.158-2.417v-4.194c2.771.037 5.544.072 8.315.107v4.186c.003 1.304-1.861 2.345-4.157 2.318z" class="colorF2E3BA svgShape"></path><path fill="#b07858" d="m535.433 516.539-5.458-.055c-1.259-.011-2.289-.606-2.284-1.325v-.001c-.002-.721 1.021-1.29 2.284-1.276l5.458.058c1.263.013 2.283.602 2.285 1.323 0-.001 0-.001 0 0 .001.716-1.026 1.289-2.285 1.276zM540.336 505.498c-.002-.009-.003-.012.002-.023.002-2.398-3.421-4.38-7.635-4.439-4.214-.058-7.637 1.841-7.635 4.247l.002.024c5.089.066 10.178.13 15.266.191z" class="colorB07858 svgShape"></path><path fill="#251811" d="m622.438 515.518-2.321-.008v-3.433l2.321.009v3.432z" class="color251811 svgShape"></path><path fill="#f5c167" d="M621.279 513.175c-3.336-.011-6.037-1.546-6.037-3.417v-6.006c4.024.02 8.049.038 12.074.054v6.001c-.001 1.871-2.705 3.382-6.037 3.368z" class="colorF5C167 svgShape"></path><path fill="#f2e3ba" d="M621.279 511.713c-2.292-.009-4.162-1.062-4.159-2.353v-4.136l8.316.036v4.133c.003 1.29-1.862 2.326-4.157 2.32z" class="colorF2E3BA svgShape"></path><path fill="#b07858" d="m624.008 517.123-5.459-.019c-1.258-.003-2.287-.581-2.285-1.292 0-.712 1.025-1.279 2.285-1.275l5.459.02c1.257.005 2.285.583 2.285 1.291-.001.706-1.025 1.281-2.285 1.275zM628.912 506.182c-.001-.01.001-.015.002-.023-.002-2.365-3.418-4.301-7.636-4.319-4.219-.018-7.633 1.882-7.636 4.253a.068.068 0 0 0 .002.023c5.09.026 10.179.048 15.268.066z" class="colorB07858 svgShape"></path><path fill="#251811" d="m711.02 515.52-2.319.008v-3.432l2.319-.008v3.432z" class="color251811 svgShape"></path><path fill="#f5c167" d="M709.86 513.185c-3.335.011-6.041-1.496-6.036-3.369a6000 6000 0 0 1 0-6c4.024-.014 8.049-.032 12.073-.051v6.005c-.001 1.868-2.7 3.405-6.037 3.415z" class="colorF5C167 svgShape"></path><path fill="#f2e3ba" d="M709.86 511.723c-2.296.011-4.162-1.027-4.158-2.32v-4.133l8.317-.034v4.135c0 1.291-1.861 2.341-4.159 2.352z" class="colorF2E3BA svgShape"></path><path fill="#b07858" d="M712.589 517.114c-1.82.006-3.64.011-5.459.018-1.263.003-2.284-.567-2.284-1.276.005-.71 1.023-1.285 2.284-1.29l5.459-.019c1.266-.004 2.282.563 2.285 1.275-.001.708-1.022 1.288-2.285 1.292zM717.494 506.13c.001-.007.003-.017.002-.023-.001-2.37-3.42-4.272-7.636-4.254-4.215.018-7.636 1.95-7.636 4.316-.002.005-.001.015.002.023 5.088-.018 10.178-.039 15.268-.062zM170.527 506.925v55.461h-41.998c2.17-11.617 5.176-23.025 9.029-34.096 4.328-12.51 9.725-24.591 16.166-36.011a26.224 26.224 0 0 1 2.657 3.168 29.082 29.082 0 0 1 2.948 5.153c.301.639.545 1.265.766 1.857.173.453.313.882.452 1.277.082.267.162.522.232.766.545 1.846.707 3.029.707 3.029 3.018-.21 6.035-.407 9.041-.604zM223.463 488.762c-23.521-.875-26.416 20.06-26.415 20.078-3.015-.416-6.03-.837-9.045-1.259v54.806h70.932v-52.382l-9.05.61c0-.001-2.901-20.397-26.422-21.853zM311.906 492.501c-23.538-.657-26.433 19.174-26.435 19.189-3.017-.38-6.034-.763-9.051-1.148v51.844h70.982v-49.904l-9.056.628c.003 0-2.902-19.399-26.44-20.609zM400.403 495.412c-23.55-.437-26.453 18.525-26.45 18.536-3.018-.346-6.037-.696-9.057-1.047v49.485h71.021v-48.029l-9.06.657c-.001-.003-2.899-18.637-26.454-19.602zM488.942 497.493c-23.563-.213-26.459 18.11-26.46 18.12-3.02-.317-6.041-.636-9.062-.956v47.73c11.839-.001 23.68.001 35.522-.001h35.527v-46.757l-9.064.696c.001-.005-2.901-18.108-26.463-18.832zM577.509 498.745c-23.566.015-26.465 17.931-26.468 17.94-3.021-.29-6.042-.583-9.063-.877v46.578h35.531l35.533.001v-46.089l-9.065.745c-.001-.008-2.903-17.814-26.468-18.298zM692.558 517.168c-.003-.005-2.901-17.749-26.47-18-23.567.245-26.47 17.989-26.47 17.997-3.023-.267-6.043-.537-9.065-.806v46.028l35.535.001 35.535-.001v-46.023c-3.021.267-6.043.537-9.065.804zM781.136 516.7c-.002-.005-2.9-17.925-26.467-17.939-23.566.477-26.473 18.284-26.469 18.29l-9.065-.747v46.082h71.064v-46.562c-3.02.295-6.042.585-9.063.876z" class="colorB07858 svgShape"></path><path fill="#e6e6e6" d="M790.199 515.831v46.557h-.206c-17.277-22.018-48.76-37.628-68.62-45.896l6.83.566c-.002-.005 2.905-17.817 26.473-18.297 23.562.018 26.455 17.94 26.459 17.946 3.021-.291 6.044-.582 9.064-.876zM701.623 516.369v46.019h-.206c-17.282-21.747-48.768-37.419-68.625-45.827 2.277.205 4.554.408 6.83.611-.001-.01 2.901-17.756 26.474-18.004 23.562.251 26.463 17.999 26.462 18.008l9.065-.807zM613.042 516.304v46.085l-.206-.001c-17.283-21.761-48.762-37.708-68.62-46.359l6.83.664c-.001-.007 2.9-17.933 26.47-17.948 23.565.488 26.46 18.299 26.46 18.305 3.023-.248 6.043-.496 9.066-.746zM524.469 515.635v46.753h-.207c-17.279-22.06-48.751-38.491-68.604-47.491l6.828.724c.004-.016 2.898-18.335 26.464-18.127 23.551.726 26.457 18.835 26.455 18.839l9.064-.698zM435.917 514.364v48.024h-.207c-17.272-22.646-48.735-39.756-68.576-49.224 2.275.266 4.549.529 6.824.792-.001-.011 2.9-18.979 26.453-18.544 23.547.966 26.446 19.606 26.445 19.609l9.061-.657zM347.402 512.489v49.899l-.207-.001c-17.266-23.516-48.711-41.515-68.54-51.558 2.273.29 4.547.58 6.82.868-.001-.01 2.893-19.856 26.438-19.197 23.531 1.212 26.433 20.617 26.432 20.617 3.019-.208 6.038-.418 9.057-.628zM258.935 510.012v52.377l-.206.001c-17.252-24.671-48.681-43.771-68.492-54.492 2.273.319 4.544.636 6.815.952 0-.015 2.891-20.958 26.419-20.087 23.518 1.463 26.413 21.859 26.414 21.861 3.016-.206 6.033-.41 9.05-.612zM170.527 506.936v55.45h-.197c-8.507-12.882-20.471-24.383-32.772-34.096 4.328-12.51 9.725-24.591 16.166-36.011.51.522.997 1.056 1.439 1.59.428.522.835 1.056 1.218 1.578a29.082 29.082 0 0 1 2.948 5.153c.29.65.545 1.265.766 1.857.173.453.313.882.452 1.277.082.267.162.522.232.766.545 1.846.707 3.029.707 3.029l9.041-.593z" class="colorE6E6E6 svgShape"></path><path fill="#251811" d="m798.995 514.913-2.319.024v-3.475l2.319-.025v3.476z" class="color251811 svgShape"></path><path fill="#f5c167" d="M797.835 512.556c-3.331.035-6.034-1.473-6.036-3.365v-6.071c4.024-.05 8.049-.101 12.073-.155v6.086c0 1.899-2.707 3.473-6.037 3.505z" class="colorF5C167 svgShape"></path><path fill="#f2e3ba" d="M797.835 511.076c-2.296.025-4.16-1.013-4.157-2.317v-4.183c2.771-.034 5.544-.068 8.315-.104v4.19c-.001 1.307-1.861 2.389-4.158 2.414z" class="colorF2E3BA svgShape"></path><path fill="#b07858" d="m800.564 516.518-5.459.054c-1.26.013-2.289-.562-2.285-1.276-.001 0-.001 0 0 0 0-.715 1.02-1.31 2.285-1.321l5.459-.057c1.263-.012 2.286.556 2.284 1.277-.003.721-1.023 1.308-2.284 1.323zM805.467 505.349c.003-.007.006-.017.003-.023.001-2.402-3.42-4.302-7.636-4.246-4.216.054-7.636 2.038-7.635 4.434-.001.008.002.015.003.023 5.089-.06 10.177-.122 15.265-.188z" class="colorB07858 svgShape"></path><path fill="#251811" d="m887.55 513.691-2.32.04v-3.563l2.32-.043v3.566z" class="color251811 svgShape"></path><path fill="#f5c167" d="M886.39 511.282c-.001 0-.001 0 0 0-3.333.059-6.035-1.464-6.034-3.407v-6.221c4.022-.084 8.045-.17 12.069-.259v6.247c-.002 1.95-2.702 3.58-6.035 3.64z" class="colorF5C167 svgShape"></path><path fill="#f2e3ba" d="M886.39 509.764c-.001 0-.001 0 0 0-2.298.04-4.154-1.007-4.156-2.345v-4.287l8.312-.174v4.3c0 1.34-1.86 2.463-4.156 2.506z" class="colorF2E3BA svgShape"></path><path fill="#b07858" d="M889.118 515.327c-1.818.031-3.637.062-5.456.091-1.26.021-2.283-.56-2.284-1.293v-.001c-.002-.731 1.02-1.346 2.284-1.37l5.456-.095c1.265-.022 2.282.556 2.284 1.294-.001.734-1.023 1.355-2.284 1.374zM894.02 503.829c-.001-.01.007-.015.002-.024-.005-2.468-3.416-4.389-7.633-4.294-4.216.095-7.634 2.158-7.633 4.608.002.008 0 .017.002.024 5.088-.101 10.175-.206 15.262-.314z" class="colorB07858 svgShape"></path><path fill="#251811" d="m976.07 511.855-2.318.056v-3.697c.772-.02 1.546-.039 2.318-.06v3.701z" class="color251811 svgShape"></path><path fill="#f5c167" d="M974.911 509.362c-3.331.082-6.032-1.482-6.032-3.492v-6.449c4.021-.119 8.042-.241 12.063-.364v6.487c-.001 2.026-2.702 3.736-6.031 3.818z" class="colorF5C167 svgShape"></path><path fill="#f2e3ba" d="M974.911 507.787c0 .001 0 .001 0 0-2.294.058-4.155-1.018-4.155-2.404v-4.446c2.769-.08 5.54-.162 8.309-.245v4.464c.001 1.393-1.858 2.575-4.154 2.631z" class="colorF2E3BA svgShape"></path><path fill="#b07858" d="M977.638 513.543c-1.818.044-3.636.086-5.455.127-1.254.031-2.284-.566-2.282-1.327-.003-.762 1.023-1.405 2.282-1.435l5.455-.134c1.26-.036 2.286.569 2.283 1.329.001.764-1.022 1.413-2.283 1.44zM982.538 501.572a.043.043 0 0 1 .002-.025c-.002-2.564-3.415-4.531-7.629-4.397-4.215.133-7.63 2.296-7.63 4.839-.003.008.002.018.002.025 5.085-.143 10.17-.291 15.255-.442z" class="colorB07858 svgShape"></path><path fill="#251811" d="m1064.543 509.405-2.317.072v-3.875c.773-.025 1.545-.051 2.317-.078v3.881z" class="color251811 svgShape"></path><path fill="#f5c167" d="M1063.385 506.799c0-.001 0-.001 0 0-3.33.106-6.03-1.513-6.028-3.621v-6.757c4.019-.154 8.036-.31 12.055-.468v6.805c-.001 2.123-2.697 3.932-6.027 4.041z" class="colorF5C167 svgShape"></path><path fill="#f2e3ba" d="M1063.385 505.147c0 .001 0 .001 0 0-2.292.076-4.15-1.042-4.152-2.493v-4.659c2.768-.103 5.535-.209 8.303-.314v4.682c.003 1.459-1.856 2.708-4.151 2.784z" class="colorF2E3BA svgShape"></path><path fill="#b07858" d="m1066.109 511.166-5.45.164c-1.261.039-2.28-.579-2.281-1.378-.003-.796 1.02-1.476 2.281-1.517l5.45-.173c1.261-.039 2.282.577 2.281 1.381 0 .803-1.019 1.485-2.281 1.523zM1071.006 498.579c-.002-.009.002-.015.003-.027.002-2.689-3.415-4.725-7.625-4.557-4.211.172-7.621 2.465-7.625 5.126l.002.026a9614.37 9614.37 0 0 0 15.245-.568z" class="colorB07858 svgShape"></path><path fill="#251811" d="m1152.954 506.342-2.315.088v-4.098l2.315-.095v4.105z" class="color251811 svgShape"></path><path fill="#f5c167" d="M1157.825 493.323v5.953c-.011 1.984-2.1 3.714-4.874 4.19a7.4 7.4 0 0 1-1.148.128c-.396.012-.79 0-1.161-.035-2.774-.244-4.863-1.81-4.863-3.76v-7.149c3.528-.162 7.056-.337 10.584-.499.487.395.975.778 1.462 1.172z" class="colorF5C167 svgShape"></path><path fill="#f2e3ba" d="M1151.797 501.844c-2.293.091-4.148-1.077-4.148-2.613v-4.926c2.766-.127 5.531-.256 8.297-.384v4.954c.003 1.547-1.861 2.878-4.149 2.969z" class="colorF2E3BA svgShape"></path><path fill="#b07858" d="m1154.521 508.197-5.447.2c-1.261.045-2.279-.601-2.28-1.444.001-.841 1.02-1.568 2.28-1.616l5.447-.211c1.259-.049 2.286.599 2.279 1.449.001.848-1.026 1.576-2.279 1.622zM1159.415 494.82v.035l-1.59.069c-.627.035-1.253.058-1.88.082-2.762.139-5.535.255-8.297.383-.627.023-1.242.058-1.869.081l-1.601.07v-.023c0-2.808 3.411-5.257 7.625-5.466.731-.035 1.438 0 2.1.104.824.661 1.636 1.335 2.46 1.996.487.394.975.777 1.462 1.172.522.43 1.056.847 1.579 1.265.011.07.011.151.011.232zM842.635 497.535c-23.565.72-26.463 18.809-26.464 18.816l-9.063-.698v46.733h35.527c11.841-.001 23.683.001 35.522-.001v-47.693c-3.02.321-6.039.638-9.061.954.003-.009-2.903-18.317-26.461-18.111zM931.175 495.475c-23.556.957-26.454 19.578-26.454 19.58l-9.06-.658v47.989l35.515-.001h35.507v-49.433c-3.02.351-6.039.699-9.058 1.045.001-.01-2.9-18.957-26.45-18.522zM1019.673 492.586c-23.54 1.204-26.443 20.58-26.44 20.581l-9.056-.629v49.848h70.983V510.61c-3.017.384-6.035.766-9.052 1.145.001-.009-2.896-19.824-26.435-19.169zM1108.117 488.868c-23.528 1.447-26.422 21.819-26.422 21.819l-9.05-.611v52.311h35.472l35.461-.001v-54.723c-3.015.422-6.03.841-9.045 1.257.003-.014-2.898-20.924-26.416-20.052zM1223.696 562.386h-62.644v-55.38c.742.046 1.486.104 2.228.151l6.812.453a22.4 22.4 0 0 1 .348-1.706c.046-.185.104-.394.162-.603.059-.221.128-.465.197-.708.07-.244.139-.487.221-.742.011 0 .011.011.011.011 10.004 7.984 19.846 16.108 28.747 24.998 7.903 7.891 15.052 16.387 20.901 25.961a259.197 259.197 0 0 1 3.017 7.565z" class="colorB07858 svgShape"></path><path fill="#e6e6e6" d="M1199.778 528.858c-12.882-9.69-26.251-16.92-36.498-21.702 2.275.163 4.549.313 6.812.465v-.012a22.4 22.4 0 0 1 .348-1.706c.046-.185.104-.394.162-.603.059-.221.128-.465.197-.708.07-.232.152-.475.232-.731 10.004 7.984 19.846 16.108 28.747 24.997zM1143.578 507.671v54.717h-.206c-17.243-25.94-48.661-43.343-68.493-52.159 2.272.154 4.547.309 6.819.465-.001-.002 2.892-20.372 26.426-21.827 23.516-.867 26.409 20.049 26.409 20.061 3.016-.416 6.03-.835 9.045-1.257zM1055.16 510.617v51.771l-.206.001c-17.257-24.538-48.699-41.173-68.54-49.693l6.823.479c.002-.001 2.897-19.383 26.444-20.589 23.531-.648 26.427 19.165 26.427 19.178 3.017-.38 6.034-.762 9.052-1.147zM966.682 512.96v49.429l-.207-.001c-17.264-23.408-48.729-39.502-68.577-47.825l6.827.5c-.001-.006 2.903-18.625 26.457-19.588 23.544-.428 26.44 18.518 26.443 18.53 3.018-.346 6.037-.694 9.057-1.045zM878.157 514.7v47.688h-.206c-17.276-22.57-48.746-38.317-68.603-46.559 2.276.176 4.551.354 6.828.529-.001-.005 2.9-18.104 26.467-18.823 23.554-.202 26.448 18.109 26.452 18.12 3.02-.316 6.041-.634 9.062-.955z" class="colorE6E6E6 svgShape"></path><path fill="#232238" d="M819.057 381.772v365.336l-205.631-43.071v-.638l-.072-36.619-.025-11.558-.008-3.38-.024-12.377-.04-16.916-.259-125.79-.032-16.961-.073-34.749 34.188-10.489 1.035-.324 53.323-16.367 1.051-.324 70.608-21.671 1.043-.314z" class="color232238 svgShape"></path><path fill="#d4b08e" d="M819.057 656.886v90.125l-205.631-42.82-.072-36.618-.025-11.559-.008-3.379-.024-12.377 23.21 1.879 1.997.161 27.526 2.22 5.457.441 16.524 1.339 3.76.306 81.165 6.552 4.083.333 32.199 2.606z" class="colorD4B08E svgShape"></path><path fill="#78452a" d="m629.36 669.734-16.009-2.165-.03-14.937 16.01 1.689z" class="color78452A svgShape"></path><path fill="#9c6028" d="m648.6 672.336-17.2-2.326-.029-15.474 17.202 1.815z" class="color9C6028 svgShape"></path><path fill="#78452a" d="m669.267 675.132-18.527-2.506-.027-16.05 18.529 1.955z" class="color78452A svgShape"></path><path fill="#9c6028" d="m691.652 678.159-20.018-2.707-.024-16.671 20.02 2.112z" class="color9C6028 svgShape"></path><path fill="#78452a" d="m715.749 681.451-21.685-2.934-.022-17.339 21.688 2.289z" class="color78452A svgShape"></path><path fill="#9c6028" d="m742.109 685.018-23.581-3.191-.018-18.066 23.585 2.489z" class="color9C6028 svgShape"></path><path fill="#78452a" d="m770.793 688.899-25.732-3.482-.014-18.856 25.737 2.717z" class="color78452A svgShape"></path><path fill="#9c6028" d="m802.302 693.162-28.199-3.815-.008-19.72 28.203 2.977zM621.805 671.434l.029 15.189-8.325-1.418-.03-14.941z" class="color9C6028 svgShape"></path><path fill="#78452a" d="m640.505 689.802-16.69-2.843-.03-15.242 16.692 2.346z" class="color78452A svgShape"></path><path fill="#9c6028" d="m660.537 693.214-17.957-3.059-.028-15.8 17.959 2.525z" class="color9C6028 svgShape"></path><path fill="#78452a" d="m682.207 696.906-19.377-3.301-.026-16.402 19.38 2.724z" class="color78452A svgShape"></path><path fill="#9c6028" d="m705.504 700.906-20.964-3.572-.023-17.048 20.967 2.949z" class="color9C6028 svgShape"></path><path fill="#78452a" d="m730.952 705.242-22.764-3.879-.019-17.75 22.767 3.202z" class="color78452A svgShape"></path><path fill="#9c6028" d="m758.6 709.953-24.801-4.226-.015-18.512 24.805 3.489z" class="color9C6028 svgShape"></path><path fill="#78452a" d="m788.92 715.12-27.132-4.623-.011-19.344 27.137 3.816z" class="color78452A svgShape"></path><path fill="#9c6028" d="m818.124 720.096-25.303-4.311-.005-20.267 25.308 3.56zM615.637 689.035l.03 14.991-2.12-.439-.031-14.928z" class="color9C6028 svgShape"></path><path fill="#78452a" d="m633.876 707.797-16.277-3.368-.03-15.051 16.278 2.885z" class="color78452A svgShape"></path><path fill="#9c6028" d="m653.394 711.837-17.496-3.621-.028-15.594 17.497 3.101z" class="color9C6028 svgShape"></path><path fill="#78452a" d="m674.487 716.203-18.861-3.904-.026-16.18 18.863 3.343z" class="color78452A svgShape"></path><path fill="#9c6028" d="m697.139 720.922-20.382-4.219-.024-16.809 20.385 3.614z" class="color9C6028 svgShape"></path><path fill="#78452a" d="m721.854 726.039-22.106-4.577-.021-17.491 22.11 3.92z" class="color78452A svgShape"></path><path fill="#9c6028" d="m748.671 731.59-24.054-4.979-.017-18.231 24.058 4.266z" class="color9C6028 svgShape"></path><path fill="#78452a" d="m778.038 737.67-26.277-5.44-.013-19.037 26.282 4.66z" class="color78452A svgShape"></path><path fill="#9c6028" d="m810.671 744.426-28.857-5.974-.008-19.93 28.864 5.117zM619.402 640.939l.018 8.9-5.985-.591-.018-8.795z" class="color9C6028 svgShape"></path><path fill="#78452a" d="m637.906 642.442.016 9.223-16.539-1.633-.017-8.933z" class="color78452A svgShape"></path><path fill="#9c6028" d="m657.749 644.053.016 9.571-17.789-1.756-.017-9.259z" class="color9C6028 svgShape"></path><path fill="#78452a" d="m679.206 645.795.014 9.947-19.184-1.894-.015-9.611z" class="color78452A svgShape"></path><path fill="#9c6028" d="m702.272 647.668.013 10.378-20.753-2.049-.013-10.014z" class="color9C6028 svgShape"></path><path fill="#78452a" d="m727.452 649.713.01 10.82-22.519-2.224-.012-10.425z" class="color78452A svgShape"></path><path fill="#9c6028" d="m754.798 651.933.007 11.3-24.523-2.422-.01-10.869z" class="color9C6028 svgShape"></path><path fill="#78452a" d="m784.777 654.367.004 11.827-26.823-2.649-.006-11.356z" class="color78452A svgShape"></path><path fill="#9c6028" d="M818.123 657.075v12.412l-29.487-2.912-.003-11.895z" class="color9C6028 svgShape"></path><path fill="#78452a" d="m818.124 694.475-12.785-1.715-.003-19.026 12.787 1.365z" class="color78452A svgShape"></path><path fill="#9c6028" d="m818.592 746.065-5.211-1.078-.001-20.867 5.211.924z" class="color9C6028 svgShape"></path><path fill="#ffc242" d="m629.757 509.444-16.723 2.887-.021-10.723 16.723-3.246zM667.326 502.956l-19.19 3.314-.02-11.475 19.192-3.725zM676.365 502.462l-7.525-6.191 7.412-8.63 7.711 6.135-7.598 8.686zm-6.308-6.308 6.221 5.118 6.45-7.374-6.376-5.073-6.295 7.329zM710.77 495.454l-22.249 3.842-.016-12.34 22.251-4.319zM721.285 494.723l-8.68-6.509 8.568-9.36 8.912 6.442-8.8 9.427zm-7.407-6.639 7.317 5.487 7.597-8.138-7.515-5.433-7.399 8.084zM761.582 486.679l-26.1 4.507-.011-13.345 26.103-5.067zM773.968 485.651l-10.14-6.866 10.033-10.241 10.436 6.786-10.329 10.321zm-8.802-7.012 8.709 5.896 9.058-9.051-8.965-5.83-8.802 8.985zM819.054 476.754l-28.288 4.885-.004-14.53 28.292-5.491zM637.611 509.142l-6.598-5.909 6.484-8.016 6.75 5.859-6.636 8.066zm-5.426-6.013 5.342 4.784 5.534-6.726-5.466-4.745-5.41 6.687zM819.059 430.825v23.944l-206.058 41.988-.035-16.962z" class="colorFFC242 svgShape"></path><path fill="#232238" d="M819.057 381.772v365.336l205.63-43.071v-.638l.073-36.619.024-11.558.008-3.38.025-12.377.04-16.916.259-125.79.032-16.961.073-34.749-34.188-10.489-1.035-.324-53.324-16.367-1.051-.324-70.607-21.671-1.043-.314z" class="color232238 svgShape"></path><path fill="#d4b08e" d="M819.057 656.886v90.125l205.63-42.82.073-36.618.024-11.559.008-3.379.025-12.377-23.21 1.879-1.997.161-27.527 2.22-5.457.441-16.524 1.339-3.759.306-81.166 6.552-4.082.333-32.2 2.606z" class="colorD4B08E svgShape"></path><path fill="#78452a" d="m1008.754 669.734 16.008-2.165.031-14.937-16.01 1.689z" class="color78452A svgShape"></path><path fill="#9c6028" d="m989.513 672.336 17.201-2.326.029-15.474-17.203 1.815z" class="color9C6028 svgShape"></path><path fill="#78452a" d="m968.847 675.132 18.527-2.506.027-16.05-18.53 1.955z" class="color78452A svgShape"></path><path fill="#9c6028" d="m946.461 678.159 20.018-2.707.025-16.671-20.021 2.112z" class="color9C6028 svgShape"></path><path fill="#78452a" d="m922.365 681.451 21.685-2.934.021-17.339-21.688 2.289z" class="color78452A svgShape"></path><path fill="#9c6028" d="m896.004 685.018 23.582-3.191.018-18.066-23.586 2.489z" class="color9C6028 svgShape"></path><path fill="#78452a" d="m867.32 688.899 25.733-3.482.014-18.856-25.737 2.717z" class="color78452A svgShape"></path><path fill="#9c6028" d="m835.812 693.162 28.198-3.815.009-19.72-28.204 2.977zM1016.309 671.434l-.03 15.189 8.325-1.418.031-14.941z" class="color9C6028 svgShape"></path><path fill="#78452a" d="m997.608 689.802 16.69-2.843.03-15.242-16.692 2.346z" class="color78452A svgShape"></path><path fill="#9c6028" d="m977.577 693.214 17.957-3.059.028-15.8-17.959 2.525z" class="color9C6028 svgShape"></path><path fill="#78452a" d="m955.906 696.906 19.378-3.301.026-16.402-19.38 2.724z" class="color78452A svgShape"></path><path fill="#9c6028" d="m932.61 700.906 20.963-3.572.023-17.048-20.966 2.949z" class="color9C6028 svgShape"></path><path fill="#78452a" d="m907.161 705.242 22.764-3.879.02-17.75-22.768 3.202z" class="color78452A svgShape"></path><path fill="#9c6028" d="m879.513 709.953 24.801-4.226.016-18.512-24.805 3.489z" class="color9C6028 svgShape"></path><path fill="#78452a" d="m849.194 715.12 27.131-4.623.011-19.344-27.136 3.816z" class="color78452A svgShape"></path><path fill="#9c6028" d="m819.99 720.096 25.302-4.311.006-20.267-25.308 3.56zM1022.477 689.035l-.031 14.991 2.121-.439.03-14.928z" class="color9C6028 svgShape"></path><path fill="#78452a" d="m1004.238 707.797 16.277-3.368.03-15.051-16.278 2.885z" class="color78452A svgShape"></path><path fill="#9c6028" d="m984.72 711.837 17.496-3.621.028-15.594-17.497 3.101z" class="color9C6028 svgShape"></path><path fill="#78452a" d="m963.626 716.203 18.861-3.904.026-16.18-18.862 3.343z" class="color78452A svgShape"></path><path fill="#9c6028" d="m940.975 720.922 20.382-4.219.024-16.809-20.385 3.614z" class="color9C6028 svgShape"></path><path fill="#78452a" d="m916.259 726.039 22.107-4.577.021-17.491-22.11 3.92z" class="color78452A svgShape"></path><path fill="#9c6028" d="m889.443 731.59 24.053-4.979.017-18.231-24.057 4.266z" class="color9C6028 svgShape"></path><path fill="#78452a" d="m860.076 737.67 26.277-5.44.013-19.037-26.282 4.66z" class="color78452A svgShape"></path><path fill="#9c6028" d="m827.442 744.426 28.858-5.974.007-19.93-28.863 5.117zM1018.712 640.939l-.018 8.9 5.984-.591.018-8.795z" class="color9C6028 svgShape"></path><path fill="#78452a" d="m1000.208 642.442-.017 9.223 16.539-1.633.018-8.933z" class="color78452A svgShape"></path><path fill="#9c6028" d="m980.364 644.053-.015 9.571 17.789-1.756.016-9.259z" class="color9C6028 svgShape"></path><path fill="#78452a" d="m958.907 645.795-.014 9.947 19.184-1.894.015-9.611z" class="color78452A svgShape"></path><path fill="#9c6028" d="m935.841 647.668-.012 10.378 20.752-2.049.014-10.014z" class="color9C6028 svgShape"></path><path fill="#78452a" d="m910.662 649.713-.01 10.82 22.519-2.224.012-10.425z" class="color78452A svgShape"></path><path fill="#9c6028" d="m883.316 651.933-.008 11.3 24.523-2.422.01-10.869z" class="color9C6028 svgShape"></path><path fill="#78452a" d="m853.337 654.367-.004 11.827 26.822-2.649.007-11.356z" class="color78452A svgShape"></path><path fill="#9c6028" d="M819.99 657.075v12.412l29.487-2.912.004-11.895z" class="color9C6028 svgShape"></path><path fill="#78452a" d="m819.99 694.475 12.785-1.715.002-19.026-12.787 1.365z" class="color78452A svgShape"></path><path fill="#9c6028" d="m819.522 746.065 5.211-1.078.001-20.867-5.212.924z" class="color9C6028 svgShape"></path><path fill="#ffc242" d="m1008.357 509.444 16.722 2.887.022-10.723-16.723-3.246zM970.787 502.956l19.191 3.314.019-11.475-19.192-3.725zM954.15 493.775l7.711-6.135 7.412 8.63-7.525 6.191-7.598-8.686zm7.611-4.95-6.376 5.073 6.45 7.374 6.221-5.118-6.295-7.329zM927.344 495.454l22.248 3.842.016-12.34-22.25-4.319zM908.028 485.296l8.912-6.442 8.568 9.36-8.68 6.509-8.8-9.427zm8.808-5.295-7.515 5.433 7.597 8.138 7.317-5.487-7.399-8.084zM876.532 486.679l26.1 4.507.011-13.345-26.104-5.067zM853.817 475.33l10.436-6.786 10.033 10.241-10.14 6.866-10.329-10.321zm10.329-5.675-8.965 5.83 9.058 9.051 8.709-5.896-8.802-8.985zM819.059 476.754l28.289 4.885.004-14.53-28.293-5.491zM993.866 501.077l6.75-5.859 6.484 8.016-6.598 5.909-6.636-8.066zm6.653-4.635-5.466 4.745 5.534 6.726 5.342-4.784-5.41-6.687zM819.054 430.825v23.944l206.059 41.988.034-16.962z" class="colorFFC242 svgShape"></path><path fill="#b7b7c7" d="M819.057 381.772v365.336l205.63-43.071v-.638l.073-36.619.024-11.558.008-3.38.025-12.377.04-16.916.259-125.79.032-16.961.073-34.749-34.188-10.489-1.035-.324-53.324-16.367-1.051-.324-70.607-21.671-1.043-.314z" class="colorB7B7C7 svgShape"></path><path fill="#ffffff" d="M1089.366 353.342c-5.883-1.787-11.187-4.653-15.574-8.391-.545.07-.8.105-1.358.175-5.165 6.998-13.426 12.22-23.315 13.752-6.835 1.068-13.474.22-19.241-2.077-.325.511-.615 1.021-.963 1.508-10.073 14.112-31.113 17.721-46.56 7.984a33.278 33.278 0 0 1-7.393-6.313c-5.234 4.909-12.29 8.356-20.332 9.365-6.197.766-12.163-.035-17.466-2.019-10.515 13.613-31.451 16.514-46.491 6.371a23.431 23.431 0 0 1-1.23-.87c-4.979-3.679-11.142-5.663-17.512-5.315-29.176 1.59-45.98 1.439-46.097-.058-.116-1.346 12.337-3.574 34.468-6.766 8.693-1.253 15.516-7.798 16.515-15.945.034-.325.08-.65.139-.975-3.377-.116-6.65-1.079-9.435-3.006a15.465 15.465 0 0 1-.963-.72 9.159 9.159 0 0 1-.627-.534.264.264 0 0 1-.082-.081 8.993 8.993 0 0 1-.592-.557 14.115 14.115 0 0 1-.569-.603c-.116-.128-.232-.256-.348-.394-.011-.023-.024-.046-.046-.058-.348-.43-.673-.87-.975-1.323a13.696 13.696 0 0 1-.441-.72c-.139-.244-.279-.487-.407-.731-2.384-4.562-2.557-10.254-.445-15.626l.063-.16c.226-.559.467-1.117.742-1.668.08-.163.162-.325.255-.488.127-.255.266-.522.417-.777a23.702 23.702 0 0 1 1.88-2.796c.314-.395.627-.789.963-1.161.244-.279.487-.546.743-.801.151-.162.313-.325.475-.475.082-.082.152-.151.232-.22.221-.221.441-.418.662-.627.011-.012.035-.023.046-.035 7.3-6.487 17.663-7.938 24.951-2.971a16.339 16.339 0 0 1 3.099 2.797c1.125-14.53 13.428-26.831 29.697-28.769 10.028-1.184 19.485 1.81 26.367 7.509 5.756-13.299 19.102-23.605 35.756-25.938a48.987 48.987 0 0 1 15.04.186c4.967-19.555 22.584-35.582 45.515-39.33 7.218-1.172 14.333-1.021 21.04.267 8.797 23.106 14.577 47.326 16.932 71.952.686 7.184 1.103 14.448 1.393 21.76.492 11.846.655 23.8 1.072 35.672z" class="colorFFF svgShape"></path><path fill="#e1f3ff" d="M861.437 321.132c.786-2.627 2.092-5.217 3.951-7.608a24.859 24.859 0 0 1 3.123-3.32 29.604 29.604 0 0 0 1.703 9.709c-3.046.42-5.971.826-8.777 1.219zM1089.366 353.342c-5.883-1.787-11.187-4.653-15.574-8.391-.545.07-.8.105-1.358.175-5.165 6.998-13.426 12.22-23.315 13.752-6.835 1.068-13.474.22-19.241-2.077-.325.511-.615 1.021-.963 1.508-10.073 14.112-31.113 17.721-46.56 7.984a33.278 33.278 0 0 1-7.393-6.313c-5.234 4.909-12.29 8.356-20.332 9.365-6.197.766-12.163-.035-17.466-2.019-10.515 13.613-31.451 16.514-46.491 6.371a23.431 23.431 0 0 1-1.23-.87c-4.979-3.679-11.142-5.663-17.512-5.315-29.176 1.59-45.98 1.439-46.097-.058-.116-1.346 12.337-3.574 34.468-6.766 8.693-1.253 15.516-7.798 16.515-15.945.034-.325.08-.65.139-.975-3.377-.116-6.65-1.079-9.435-3.006a15.465 15.465 0 0 1-.963-.72 9.159 9.159 0 0 1-.627-.534.264.264 0 0 1-.082-.081 8.993 8.993 0 0 1-.592-.557 14.115 14.115 0 0 1-.569-.603c-.116-.128-.232-.256-.348-.394-.011-.023-.024-.046-.046-.058-.348-.43-.673-.87-.975-1.323a13.696 13.696 0 0 1-.441-.72c-.139-.244-.279-.487-.407-.731a17.357 17.357 0 0 1-1.741-5.617c4.456-.232 9.226-.499 14.298-.812a32.89 32.89 0 0 0 7.357 6.882c14.854 10.178 35.535 7.335 45.91-6.243 5.235 2.008 11.142 2.82 17.257 2.065 7.938-.975 14.901-4.398 20.077-9.295a32.812 32.812 0 0 0 7.3 6.336c15.261 9.783 36.035 6.232 45.968-7.833.36-.487.638-1.01.952-1.508 5.71 2.321 12.266 3.191 19.009 2.146 9.771-1.508 17.93-6.696 23.024-13.682.545-.07.801-.093 1.346-.163 6.638 5.744 15.423 9.469 25.067 10.352.491 11.847.654 23.801 1.071 35.673zM344.918 289.92a16.953 16.953 0 0 1-.569 2.298 8.7 8.7 0 0 1-.244.731 8.003 8.003 0 0 1-.279.72 18.888 18.888 0 0 1-2.228 3.992 11.47 11.47 0 0 1-.464.603c-.152.197-.314.395-.476.58-.163.197-.337.383-.511.569a21.15 21.15 0 0 1-.534.557 19.664 19.664 0 0 1-2.089 1.834l-.221.151c.082-.058.152-.116.221-.174 1.183-7.578 1.962-15.296 2.565-23.083.128-1.625.255-3.249.359-4.886a20.21 20.21 0 0 1 3.749 6.65 18.953 18.953 0 0 1 .721 9.458z" class="colorE1F3FF svgShape"></path><path fill="#ffffff" d="M344.918 289.92a16.953 16.953 0 0 1-.569 2.298 8.7 8.7 0 0 1-.244.731 8.003 8.003 0 0 1-.279.72 18.888 18.888 0 0 1-2.228 3.992 11.47 11.47 0 0 1-.464.603c-.152.197-.314.395-.476.58-.163.197-.337.383-.511.569a21.15 21.15 0 0 1-.534.557 18.341 18.341 0 0 1-2.089 1.81c1.183-7.578 1.962-15.296 2.565-23.083.128-1.625.255-3.249.359-4.886a20.21 20.21 0 0 1 3.749 6.65 18.958 18.958 0 0 1 .721 9.459z" class="colorFFF svgShape"></path><path fill="#ffffff" d="M626.308 395.132c-.128 1.508-16.932 1.66-46.107.07-6.372-.36-12.534 1.637-17.501 5.315-.407.301-.813.592-1.231.87-15.052 10.143-35.987 7.23-46.501-6.372-5.293 1.984-11.269 2.785-17.467 2.02-8.031-1.01-15.087-4.457-20.332-9.366-2.055 2.367-4.526 4.503-7.393 6.313-15.446 9.737-36.487 6.128-46.549-7.984-.359-.487-.649-1.01-.963-1.508-5.779 2.298-12.417 3.145-19.253 2.077-9.887-1.532-18.15-6.755-23.315-13.764-.556-.058-.8-.092-1.358-.162-9.69 8.262-23.906 12.29-38.738 9.667-12.881-2.286-23.629-9.11-30.348-18.139 4.921-5.246 9.343-10.967 13.149-17.315a97.432 97.432 0 0 0 6.081-11.965c4.503-10.514 7.242-21.632 9.04-33.086l-.221.151c.082-.058.152-.116.221-.174 1.183-7.578 1.962-15.296 2.565-23.083a17.65 17.65 0 0 1 3.841 2.367c.082-.209.175-.406.267-.603 9.169-20.796 33.411-33.249 59.012-29.083 22.933 3.748 40.549 19.775 45.516 39.33a48.982 48.982 0 0 1 15.04-.186c16.642 2.333 29.988 12.638 35.755 25.938 6.87-5.698 16.329-8.692 26.355-7.509 16.271 1.939 28.583 14.24 29.71 28.769a15.896 15.896 0 0 1 3.086-2.796c7.288-4.967 17.651-3.517 24.951 2.971.279.244.558.499.824.766.21.197.418.406.615.615.163.162.325.337.476.511.162.174.313.337.465.522.255.29.499.592.742.906.406.522.789 1.056 1.137 1.59.174.267.349.534.511.812.139.22.267.441.383.673.313.546.592 1.103.847 1.66.082.174.163.36.245.545.104.244.197.476.278.72.21.534.394 1.068.558 1.601l-.015-.002c.842 2.792 1.068 5.619.709 8.299h.001a17.538 17.538 0 0 1-.382 1.989c-.011.046-.019.092-.032.138a16.65 16.65 0 0 1-.955 2.735c-.117.255-.244.499-.372.754a20.51 20.51 0 0 1-.847 1.451 17.85 17.85 0 0 1-.975 1.323c-.024.011-.035.035-.046.058-.117.139-.232.267-.349.394a14.08 14.08 0 0 1-.568.604c-.186.186-.383.383-.593.557a.288.288 0 0 1-.081.082 16.402 16.402 0 0 1-1.59 1.253c-2.786 1.927-6.046 2.89-9.424 3.006.046.325.093.65.128.975 1.009 8.147 7.833 14.692 16.514 15.946 22.148 3.192 34.589 5.42 34.484 6.754z" class="colorFFF svgShape"></path><path fill="#e1f3ff" d="M590.701 348.821c-.786-2.627-2.092-5.217-3.951-7.608a24.859 24.859 0 0 0-3.123-3.32 29.604 29.604 0 0 1-1.703 9.709c3.046.42 5.972.826 8.777 1.219zM626.308 395.132c-.128 1.508-16.932 1.66-46.107.07-6.372-.36-12.534 1.637-17.501 5.315-.407.301-.813.592-1.231.87-15.052 10.143-35.987 7.23-46.501-6.372-5.293 1.984-11.269 2.785-17.467 2.02-8.031-1.01-15.087-4.457-20.332-9.366-2.055 2.367-4.526 4.503-7.393 6.313-15.446 9.737-36.487 6.128-46.549-7.984-.359-.487-.649-1.01-.963-1.508-5.779 2.298-12.417 3.145-19.253 2.077-9.887-1.532-18.15-6.755-23.315-13.764-.556-.058-.8-.092-1.358-.162-9.69 8.262-23.906 12.29-38.738 9.667-12.881-2.286-23.629-9.11-30.348-18.139 4.921-5.246 9.343-10.967 13.149-17.315a97.432 97.432 0 0 0 6.081-11.965c6.058 4.886 13.636 8.414 22.154 9.911 14.646 2.565 28.688-1.497 38.262-9.795.558.07.801.093 1.346.163 5.095 6.986 13.253 12.174 23.024 13.683 6.755 1.032 13.299.174 19.01-2.147.313.499.603 1.01.951 1.508 9.935 14.066 30.72 17.617 45.98 7.833a33.031 33.031 0 0 0 7.288-6.336c5.187 4.898 12.15 8.321 20.088 9.296 6.116.754 12.012-.058 17.246-2.066 10.387 13.578 31.055 16.421 45.922 6.244a33.114 33.114 0 0 0 7.346-6.882c5.07.313 9.841.58 14.297.812a17.346 17.346 0 0 1-1.369 4.863c-.117.255-.244.499-.372.754a20.51 20.51 0 0 1-.847 1.451 17.85 17.85 0 0 1-.975 1.323c-.024.011-.035.035-.046.058-.117.139-.232.267-.349.394a14.08 14.08 0 0 1-.568.604c-.186.186-.383.383-.593.557a.288.288 0 0 1-.081.082 16.402 16.402 0 0 1-1.59 1.253c-2.786 1.927-6.046 2.89-9.424 3.006.046.325.093.65.128.975 1.009 8.147 7.833 14.692 16.514 15.946 22.148 3.191 34.589 5.419 34.484 6.753z" class="colorE1F3FF svgShape"></path><ellipse cx="484.751" cy="811.881" fill="#f0e6df" rx="216.159" ry="47.022" class="colorF0E6DF svgShape"></ellipse><path fill="#ffbf96" d="M606.869 569.266s4.348-12.382 8.21-12.613c3.862-.231-.828 10.419 4.975 8.777 6.233-1.765 13.168-27.398 18.851-23.33 8.962 6.414.783 33.581-21.625 40.565l-10.411-13.399z" class="colorFFBF96 svgShape"></path><path fill="#ebebfa" d="m603.496 569.992 4.642-3.927 13.252 15.664-4.641 3.927z" class="colorEBEBFA svgShape"></path><path fill="#ebebfa" d="M457.345 598.964c-4.169 7.68-7.046 18.74 17.645 29.749 10.379 4.628 60.315 30.55 72.05 22.601 9.952-6.742 59.324-52.343 70.112-61.315a4.03 4.03 0 0 0 .557-5.631l-12.001-14.893a4.026 4.026 0 0 0-5.136-.976c-10.923 6.235-53.029 40.143-61.793 43.939-10.28 4.453-70.446-33.717-81.434-13.474z" class="colorEBEBFA svgShape"></path><path fill="#f2bdbd" d="M471.924 584.855c-3.05 29.092 9.116 74.575-8.998 107.981 0 0 47.367 19.656 89.54.251 0 0-2.25-13.379-3.555-36.01-1.994-34.577 7.471-38.679 4.823-66.106-3.294-34.112-32.033-40.283-32.033-40.283l-24.685.301c0 .001-22.798 11.987-25.092 33.866z" class="colorF2BDBD svgShape"></path><path fill="#ffffff" d="M609.563 820.09v.011c-4.944 3.667-10.445 7.033-16.329 9.934-11.709 5.768-24.998 9.737-38.796 10.665-49.566 3.296-89.836-4.479-128.086-7.172-2.228.163-40.317 2.89-54.939 5.629-15.053 2.82-32.692-3.934-38.111-13.996-8.09-15.04-28.468-14.82-28.944-39.875 0 0 2.773-6.522 15.295-6.174 12.534.36 13.649-13.462 20.472-13.114 5.234.279 19.195 3.586 37.739 1.079 9.354-2.089 20.599-5.93 38.007-15.191 18.441-9.807 24.765-25.218 36.197-44.703a281.811 281.811 0 0 1 4.491-7.393c.534-.847 1.079-1.683 1.635-2.542.279-.418.569-.859.848-1.277.175-.267.337-.522.522-.789a183.972 183.972 0 0 1 6.046-8.495c-.046-.011-.337-4.329-.697-11.152-.034-.743-.08-1.52-.116-2.321-.023-.627-.058-1.265-.093-1.915 0-.116-.011-.209-.011-.325-.058-.917-.093-1.857-.139-2.844-.116-2.17-.209-4.491-.325-6.905l-.139-3.517c-.011-.162-.011-.348-.023-.522l-.175-4.178c-.023-.94-.058-1.903-.104-2.855-.023-.963-.069-1.915-.093-2.89l-.104-2.924v-.104c-.035-.94-.058-1.88-.093-2.82 0-.499-.023-.987-.035-1.474l-.104-3.667c-.058-2.24-.104-4.479-.139-6.673-.023-1.068-.046-2.124-.058-3.18-.011-1.299-.035-2.611-.046-3.888-.011-.94-.023-1.856-.023-2.773v-3.227c0-7.474.173-14.042.603-18.707 1.277-13.996 7.822-25.079 14.53-32.913h.023c8.414-.638 23.664-.22 40.339 20.982 10.898 13.892 26.645 4.201 25.659-4.862-.847-7.752-5.327-20.878-20.378-30.266 3.818 1.103 34.386 11.35 38.111 55.519 1.218 14.495.301 24.267-1.149 33.504-1.637 10.317-3.946 19.949-4.7 34.734-.024.302-.024.615-.035.928a170.601 170.601 0 0 0-.186 5.176c-.034 1.961-.069 4.027-.034 6.221-.059.011 1.635 13.601 6.313 25.822 2.414 6.301 5.629 12.232 9.807 15.748 2.379 1.996 7.705 4.445 14.309 7.497h.011c18.267 8.414 36.266 22.572 39.156 42.858 1.904 13.313 1.37 28.527-15.909 41.316z" class="colorFFF svgShape"></path><path fill="#e4e4f5" d="M562.19 712.673a44.744 44.744 0 0 1-3.574 1.787c-23.001 10.293-62.505 1.822-62.505 1.822s52.826.302 55.856-10.294c3.017-10.595-13.625-29.059-31.183-31.786-17.558-2.727-47.663-34.131-47.663-34.131l69.921-3.714 17.791 3.435c-1.637 10.317-3.946 19.949-4.7 34.734-.024.302-.024.615-.035.928a170.601 170.601 0 0 0-.186 5.176c-.034 1.961-.069 4.027-.034 6.221-.06.012 1.635 13.601 6.312 25.822z" class="colorE4E4F5 svgShape"></path><path fill="#ffffff" d="M457.574 630.536c14.376 1.316 8.569-62.489 37.613-43.655 11.981 10.493 9.207 52.746 34.15 53.189 16.57.294 13.159-15.485 24.664-21.603 10.083-5.361 21.632-14.396 2.307-48.592-1.572-2.782-5.448-14.188-4.29-18.139 2.333-7.959 2.675-16.976 1.847-25.938-1.185-12.837 7.811-25.545 10.09-34.151 11.469-43.313-39.858-56.145-68.579-39.724-36.619 20.937-18.016 56.258-19.824 100.459-.337 8.244-11.664 20.408-17.115 36.829-4.876 14.687-6.593 40.801-.863 41.325z" class="colorFFF svgShape"></path><path fill="#e4e4f5" d="M546.874 625.1c1.284-1.975 2.872-3.859 5.116-5.439.655-.386 1.328-.79 2.01-1.194-1.265-7.306-4.353-15.033-10.959-21.226.001 0 6.481 11.165 3.833 27.859z" class="colorE4E4F5 svgShape"></path><path fill="#ffffff" d="M554 611.259c-11.798 5.532-8.093 21.753-24.664 21.603-24.939-.66-9.776-41.648-34.151-53.189-31.286-14.813-23.572 47.012-37.612 43.655-2.102.11-3.199-3.433-3.513-8.679-.423 8.931.545 16.042 3.513 15.887 14.04 3.358 9.998-64.529 37.612-43.655 12.705 9.604 9.211 52.528 34.151 53.189 16.571.15 12.866-16.071 24.664-21.603 6.61-3.953 14.137-9.14 12.413-22.579-1.283 8.281-7.14 12.218-12.413 15.371z" class="colorFFF svgShape"></path><path fill="#e4e4f5" d="M474.175 524.614c.027-1.149.09-1.804.09-1.804l-.296.449c.072.457.144.906.206 1.355zM475.549 552.383c-1.077 9.514-8.812 11.762-14.753 30.672 5.367-13.247 22.885-14.786 41.993-10.604 21.405 4.676 28.559 24.789 28.559 24.789 1.256-20.167-14.845-28.074-37.319-37.902-11.488-5.026-16.389-14.45-18.444-22.465.556 7.495.305 12.557-.036 15.51zM462.212 592.17c.206-.565.386-1.203.538-1.912-.179.619-.368 1.257-.538 1.912zM509.488 543.308c15.042 13.032 35.484 9.416 42.529 8.429 1.382-6.022 4.523-13.813 2.406-20.876-.431-1.445-.601-3.159-.557-5.062l-54.398-25.032c-.001 0-8.012 26.942 10.02 42.541z" class="colorE4E4F5 svgShape"></path><path fill="#ffbf96" d="M520.954 544.171c4.317 2.127 8.356 3.07 12.063 3.141 16.003.323 25.974-15.617 26.567-23.569.493-6.516-1.58-9.639 1.266-16.613 1.606-3.931 3.222-11.282 3.105-15.482 0 0-6.723-6.229-8.472-7.808-.557-.512 1.041-3.85.44-4.317-11.021-8.544-40.963-6.426-43.88-3.994a21.666 21.666 0 0 0-2.611 2.612c-11.751 13.597-20.582 50.242 11.522 66.03z" class="colorFFBF96 svgShape"></path><path fill="#eba578" d="M520.954 544.171c4.317 2.127 8.356 3.07 12.063 3.141-19.638-1.436-24.942-27.096-23.775-44.876 1.176-17.807 31.916-21.092 31.916-21.092l-31.727-3.204c-11.75 13.598-20.581 50.243 11.523 66.031z" class="colorEBA578 svgShape"></path><path fill="#ffffff" d="M563.893 493.719s7.074-33.074-25.801-32.807c-20.688.168-34.974 18.142-36.186 30.644 0 0 42.401-24.688 61.987 2.163z" class="colorFFF svgShape"></path><path fill="#e4e4f5" d="M609.558 820.092v.01c-4.94 3.663-10.435 7.029-16.325 9.93l-.011-.01c12.733-42.137-17.969-57.622-22.296-59.582 31.88 12.525 42.771 33.425 38.632 49.652zM336.546 776.769s103.394 2.117 133.389-37.758c0 0-21.298 44.339-141.042 42.222l7.653-4.464zM318.039 799.515s68.313 12.242 122.303-9.637c0 0-41.757 22.467-112.569 21.996l-9.734-12.359zM336.83 818.579s27.172.588 53.755-5.764c0 0-22.033 14.753-50.852 14.4l-2.903-8.636z" class="colorE4E4F5 svgShape"></path><path fill="#d8d9f0" d="M365.904 839.761c-13.598.54-27.835-5.739-32.594-14.598-8.099-15.037-28.475-14.817-28.935-39.873 0 0 2.76-6.519 15.277-6.179 12.538.36 13.658-13.458 20.476-13.117 2.26.12 6.119.8 11.278 1.34-3.739 4.359-6.599 12.558-16.597 12.838-13.618.4-16.217 7.659-16.217 7.659 2.06 27.195 24.176 25.696 33.894 41.533 2.66 4.318 7.499 7.917 13.418 10.397z" class="colorD8D9F0 svgShape"></path><path fill="#ffbf96" d="M614.963 581.927s4.348-12.382 8.21-12.613c3.862-.231-.828 10.419 4.975 8.777 6.233-1.765 13.168-27.398 18.851-23.33 8.962 6.414.783 33.581-21.625 40.565l-10.411-13.399z" class="colorFFBF96 svgShape"></path><path fill="#ffffff" d="m611.59 582.653 4.642-3.927 13.253 15.664-4.642 3.927z" class="colorFFF svgShape"></path><path fill="#ffffff" d="M465.44 611.625c-4.169 7.68-2.958 27.347 21.733 38.356 10.379 4.628 51.616 25.016 64.484 19.073 15.092-6.97 62.802-57.422 73.59-66.394a4.03 4.03 0 0 0 .557-5.631l-12.001-14.893a4.026 4.026 0 0 0-5.136-.976c-10.923 6.235-53.029 40.143-61.793 43.939-10.28 4.453-70.446-33.717-81.434-13.474z" class="colorFFF svgShape"></path><path fill="#ffdec2" d="M268.592 306.885h62.092V460.91h-62.092z" class="colorFFDEC2 svgShape"></path><path fill="#ffdec2" d="M277.052 153.921h45.081v152.965h-45.081z" class="colorFFDEC2 svgShape"></path><path fill="#b07858" d="M321.669 193.415h-44.153a3.213 3.213 0 0 1-3.213-3.213v-.268a3.214 3.214 0 0 1 3.213-3.213h44.153a3.213 3.213 0 0 1 3.213 3.213v.268a3.213 3.213 0 0 1-3.213 3.213z" class="colorB07858 svgShape"></path><path fill="#80615a" d="M315.284 160.609a3.741 3.741 0 0 0-3.741 3.741v11.568a3.741 3.741 0 0 0 7.482 0V164.35a3.741 3.741 0 0 0-3.741-3.741zM299.639 160.609a3.741 3.741 0 0 0-3.741 3.741v11.568a3.741 3.741 0 0 0 7.482 0V164.35a3.741 3.741 0 0 0-3.741-3.741zM283.953 160.609a3.741 3.741 0 0 0-3.741 3.741v11.568a3.741 3.741 0 0 0 7.482 0V164.35a3.741 3.741 0 0 0-3.741-3.741zM318.212 323.897a3.921 3.921 0 0 0-3.921 3.921v115.238a3.921 3.921 0 0 0 7.842 0V327.818a3.92 3.92 0 0 0-3.921-3.921zM299.639 323.897a3.921 3.921 0 0 0-3.921 3.921v115.238a3.921 3.921 0 0 0 7.842 0V327.818a3.921 3.921 0 0 0-3.921-3.921zM280.974 323.897a3.921 3.921 0 0 0-3.921 3.921v115.238a3.921 3.921 0 0 0 7.842 0V327.818a3.921 3.921 0 0 0-3.921-3.921zM299.845 200.564c-.163-.009-.252-.009-.252-.009s-.089.001-.252.009c-5.822.306-10.356 5.177-10.356 11.006v30.183h21.216V211.57c0-5.829-4.535-10.7-10.356-11.006zM299.845 260.481c-.163-.009-.252-.009-.252-.009s-.089.001-.252.009c-5.822.306-10.356 5.177-10.356 11.006v30.183h21.216v-30.183c0-5.83-4.535-10.701-10.356-11.006z" class="color80615A svgShape"></path><path fill="#b07858" d="M299.593 134.676s-19.957.326-22.49 19.245h44.98c-2.533-18.919-22.49-19.245-22.49-19.245z" class="colorB07858 svgShape"></path><path fill="#b07858" d="m298.219 137.822 1.351-23.4 1.396 23.4z" class="colorB07858 svgShape"></path><ellipse cx="299.593" cy="135.821" fill="#b07858" rx="2.747" ry="2.996" class="colorB07858 svgShape"></ellipse><ellipse cx="299.593" cy="129.537" fill="#b07858" rx="1.469" ry=".735" class="colorB07858 svgShape"></ellipse><path fill="#ffdec2" d="M1043.556 301.436h62.092v154.025h-62.092z" class="colorFFDEC2 svgShape"></path><path fill="#ffdec2" d="M1052.016 148.471h45.081v152.965h-45.081z" class="colorFFDEC2 svgShape"></path><path fill="#b07858" d="M1096.633 187.965h-44.153a3.214 3.214 0 0 1-3.213-3.213v-.268a3.214 3.214 0 0 1 3.213-3.213h44.153a3.213 3.213 0 0 1 3.213 3.213v.268a3.213 3.213 0 0 1-3.213 3.213z" class="colorB07858 svgShape"></path><path fill="#80615a" d="M1090.248 155.159a3.741 3.741 0 0 0-3.741 3.741v11.568a3.741 3.741 0 0 0 7.482 0V158.9a3.741 3.741 0 0 0-3.741-3.741zM1074.602 155.159a3.741 3.741 0 0 0-3.741 3.741v11.568a3.741 3.741 0 0 0 7.482 0V158.9a3.741 3.741 0 0 0-3.741-3.741zM1058.916 155.159a3.741 3.741 0 0 0-3.741 3.741v11.568a3.741 3.741 0 0 0 7.482 0V158.9a3.741 3.741 0 0 0-3.741-3.741zM1093.175 318.447a3.921 3.921 0 0 0-3.921 3.921v115.238a3.921 3.921 0 0 0 7.842 0V322.368a3.92 3.92 0 0 0-3.921-3.921zM1074.602 318.447a3.921 3.921 0 0 0-3.921 3.921v115.238a3.92 3.92 0 1 0 7.842 0V322.368a3.921 3.921 0 0 0-3.921-3.921zM1055.937 318.447a3.921 3.921 0 0 0-3.921 3.921v115.238a3.921 3.921 0 0 0 7.842 0V322.368a3.921 3.921 0 0 0-3.921-3.921zM1074.808 195.115c-.163-.009-.252-.009-.252-.009s-.089.001-.252.009c-5.822.306-10.356 5.177-10.356 11.006v30.183h21.217v-30.183c0-5.829-4.535-10.7-10.357-11.006zM1074.808 255.031c-.163-.009-.252-.009-.252-.009s-.089.001-.252.009c-5.822.306-10.356 5.177-10.356 11.006v30.183h21.217v-30.183c0-5.829-4.535-10.7-10.357-11.006z" class="color80615A svgShape"></path><path fill="#b07858" d="M1074.556 129.226s-19.957.326-22.49 19.245h44.98c-2.533-18.919-22.49-19.245-22.49-19.245z" class="colorB07858 svgShape"></path><path fill="#b07858" d="m1073.182 132.373 1.351-23.4 1.397 23.4z" class="colorB07858 svgShape"></path><ellipse cx="1074.556" cy="130.372" fill="#b07858" rx="2.747" ry="2.996" class="colorB07858 svgShape"></ellipse><ellipse cx="1074.556" cy="124.088" fill="#b07858" rx="1.469" ry=".735" class="colorB07858 svgShape"></ellipse></svg>