<svg xmlns="http://www.w3.org/2000/svg" enable-background="new 0 0 2951.3 2218.9" viewBox="0 0 2951.3 2218.9" width="550" height="550"><rect width="5320" height="3547" x="-643.8" y="-1018.6" fill="#ffffff" display="none" class="colorFFF svgShape"></rect><path fill="#8647bc" d="M2928.8,1320.8c-3.6,8.9-7.6,17.7-12,26.3c-31.5,62.9-79.2,117.6-109,181.6
			c-29.5,63.4-36.1,146.7,4.4,199.8c3.1,4,6.4,7.9,10,11.5c-10.3,19.6-24.9,37.4-42.4,53.4c-41.5,38.1-99,66.2-152.3,85.4
			c-22.1,8-44.3,15.6-66.6,22.9c0,0,0,0,0,0c-17.5,5.8-35,11.3-52.6,16.7c0,0,0,0,0,0c-631.3,192.6-1318.4,139-1969,11.7
			c-53.7-10.5-108.4-22.1-161.5-37.5c-36.8-10.7-72.9-23.3-107.4-38.7c-19.6-8.7-38.6-18.4-57-29.2c-20.8-12.2-40.7-25.7-59.5-40.9
			c-3.4-2.8-6.8-5.6-10.1-8.4h0c-5.6-4.8-11-9.8-16.4-14.9c-2.2-2.1-4.5-4.3-6.6-6.5c-9.1-9.1-17.7-18.6-25.7-28.5
			c-2.9-3.6-5.8-7.3-8.5-10.9C-36.6,1552-26.3,1300,104.6,1139.6c64.7-79.2,153.4-139.2,203.9-228.2
			c66.9-117.9,57.8-271.6,140.3-379.2C542,410.7,714.8,392,850.6,321c145.5-76.1,252.2-216.1,403.4-280.3
			c194.2-82.5,416.3-23.5,618.6,36.4c178.1,52.7,368,113,482.8,259c110.2,140.1,133.7,339.3,263.3,461.6
			c73.8,69.6,174.7,106.4,244.7,179.7C2948.4,1066.5,2975.1,1206.7,2928.8,1320.8z" class="color8647BC svgShape"></path><path fill="#3f1b77" d="M2812.3,1728.5c3.1,4,6.4,7.9,10,11.5c-10.3,19.6-24.9,37.4-42.4,53.4c-178.4-1-356.8-28-535-17
			c-158.3,9.7-320.5,48.9-472.5,4.8c-37.8-11-80.4-36.5-77.7-75c2.5-34.4,39.9-54.8,73.4-65.2c74.5-22.9,154.6-27.7,231.4-13.8
			c40.1-60.7,137.7-74.2,193.3-26.6c4.1-16.3,31-20.2,39.7-5.8c7.6-39.4,39.6-73.2,79.1-83.5c39.5-10.3,84.4,3.5,110.9,34
			c8.3-29.3,51.8-41.6,74.7-21.2c-0.5-43,23.5-85.4,61-107.7c37.5-22.2,87-23.4,125.5-3c2.5-12.3,5-24.5,7.5-36.8
			c17.2-4.3,36.7,2.6,47.1,16.8c-13.9-48.6,21.5-105,71.9-114.7c54.5-10.5,90.6,24.8,106.8,68.4c-31.5,62.9-79.2,117.6-109,181.6
			C2778.3,1592.1,2771.7,1675.4,2812.3,1728.5z" class="color3F1B77 svgShape"></path><path fill="#3f1b77" d="M2304 1337.1c11.1-6.5 19.7-17.1 23.9-29.3 4.1-12.2 3.7-25.8-1.1-37.8 8.5 5.6 14.4 14.9 15.8 25 13.7-11.8 20.4-31.2 16.8-49 3.6 7.7 5.7 16.1 5.9 24.6 7.5-5.5 16.9-8.4 23.3-15.1 7.6-7.9 9.5-19.5 11.1-30.4 1.4 7.8 2.8 15.7 4.2 23.5 13.4-4.5 23.9-16.5 27.1-30.1 0 1 0 2 .2 3 .5 3.1 2.5 6.2 5.6 7.1 3.9 1.1 7.8-1.6 11-4.2 5.9-4.8 11.7-9.6 17.6-14.4.2.6.5 1.2.7 1.7-2 3.3-4.1 6.6-6.1 9.9 2.4-2.2 5.2-3.7 8.1-4.9 48 122.9 53.2 260.8 13.9 387-4.7 15 18.3 23.3 23 8.3 40.2-129.1 36-269.4-11-395.8.7-.9 1.3-2.1 1.7-3.7.3-1.2.3-2.6.1-3.9 4.1-2 7.8-4.8 9.4-7.8 12.8 2.3 24.8 9.1 33 19.2-2.8-7.2-5.6-14.4-8.4-21.7 15.6 15.7 37.1 25.4 59.2 26.6-3-6.3-6-12.6-9-18.9 14.6 17.1 33.5 30.5 54.5 38.5-2.9-9.6-5.8-19.3-8.8-28.9 16.7 27.1 36.6 52.3 59.2 74.8-6.1-36.2-24.6-70.2-51.5-95.1-5-4.6-10.5-9.1-17.1-10.8-4.9-1.3-10.6-.8-14.9 1.9 2.7-2.5 5.4-5.1 8.2-7.6-9.7-2.9-19.4-5.8-29.2-8.7-5.3 2.8-10.6 5.6-16 8.4 2.1-4.3 4.3-8.5 6.4-12.8-.6 0-1.2 0-1.9 0 8-1.9 15.8-4.9 23-8.9-5.9-3.7-11.8-7.5-17.7-11.2 21.5 6.8 44.6 8 66.7 3.5-7.6-6.6-15.2-13.2-22.8-19.8 28.6 14.1 58.9 24.7 90 31.7-24.5-27.3-58.2-46.3-94.3-53-6.7-1.2-13.7-2.1-20.2-.1-4.9 1.5-9.4 5-11.6 9.5 1-3.6 1.9-7.2 2.9-10.8-9.8 2.7-19.5 5.5-29.3 8.2-3 5.2-6 10.4-9.1 15.6-.5-4.7-.9-9.5-1.4-14.2-3.6 2.3-7.2 4.5-10.8 6.8 1.7-2.4 3.1-5 4.2-7.7-7.7-1.9-15.5-3.7-23.2-5.5 10.9-.9 22.6-2.2 31-9.3 7.1-6 10.5-15.3 16.4-22.4-8.5-.7-16.8-3.2-24.2-7.3 17.5 4.6 37.3-1 49.9-14-10-1.9-19-8.4-24.1-17.2 11.6 5.5 25.2 6.7 37.6 3.3 12.4-3.4 23.5-11.4 30.6-22.1-42.2-9.8-88.7 1.5-121.6 29.6-17.8 15.2-31.4 35.2-39.7 57.2-6-28.3-20.3-58.6-40.8-84.9-29.5-37.8-71.2-66.4-108.8-74.7 6.4 12.2 16.4 23.7 27.5 31.7 11.1 8 23.3 12.4 33.6 12.2-4.5 5.7-12.5 7.8-21.4 5.5 11.3 16.4 29 29.2 44.6 32.2-6.6.6-14-.5-21.6-3.3 5.4 8.7 8.4 18.1 14.8 26.3 7.5 9.6 18 15.4 27.7 20.6-6.9-1.5-13.8-3-20.7-4.4 4.8 13.6 16 27.2 28.4 34.9-.9-.4-1.8-.7-2.6-.9-.9-.2-1.8-.3-2.6-.2-15.2-11.9-32.7-20.7-51.4-25.4-42-10.5-88.7 0-122.1 27.5 11.2 6.4 24.6 8.7 37.3 6.2 12.6-2.4 24.3-9.6 32.3-19.7-.6 10.2-5.8 19.9-13.9 26.1 17.1 6 37.2 2.2 50.9-9.7-4.8 7-11.2 12.9-18.4 17.3 8.5 3.7 15.7 10.5 24.7 12.8 10.6 2.7 21.7-1.4 31.9-5.4-4.3 3.6-8.6 7.1-12.8 10.7-7.3-.8-14.6-1.6-22-2.4 1.5 3.4 3 6.8 4.6 10.2-2.8-4.1-7.9-6.8-13-7.5-6.7-.9-13.5 1-19.9 3.3-34.5 12.5-64.7 36.6-84.4 67.6 29.6-11.9 57.7-27.3 83.6-45.8-6.4 7.7-12.9 15.5-19.3 23.2 22.5.8 45.1-4.1 65.2-14.3-5.2 4.6-10.4 9.3-15.7 13.9 1.8.7 3.7 1.2 5.5 1.8-11.7 6.6-22.5 14.8-31.8 24.5C2310.6 1248.6 2296.6 1294.4 2304 1337.1zM2534.5 1177.3c1.6.2 3.2.4 4.8.7 1.3 2.2 2.6 4.4 3.9 6.6C2540.7 1181.6 2537.7 1179.2 2534.5 1177.3zM2527.7 1165.9c1.7.4 3.4.7 5.1 1 1 1.6 1.9 3.3 2.9 4.9C2533.1 1169.9 2530.4 1167.9 2527.7 1165.9zM2507 1140.7c2.8-.5 5.5-1.3 8.2-2.3 5.6 2.9 11.1 5.8 16.7 8.7-5.1-1.6-10.4-1.9-15.5-1.2-1.1-2.5-3.7-4.2-6.4-4.8C2508.9 1140.8 2508 1140.7 2507 1140.7zM2407.4 1157.8C2407.4 1157.8 2407.4 1157.8 2407.4 1157.8 2407.4 1157.8 2407.4 1157.8 2407.4 1157.8 2407.4 1157.8 2407.4 1157.8 2407.4 1157.8zM1002.2 914.6c-1 8.3-7.1 15-12.7 19.6-5.3 4.3-10.2 6.6-10.2 6.6h-36.5v-97.6c0 0 2.8 8.2 12.4 15.8 2.7 2.2 6.7 4 11.3 5.9C982.9 871.9 1006.4 880.7 1002.2 914.6zM930.4 859c-12.6 10-52.3 12.3-47 55.6 2 16.1 22.9 26.2 22.9 26.2h36.5v-97.6C942.8 843.2 940 851.4 930.4 859z" class="color3F1B77 svgShape"></path><rect width="123.2" height="307.7" x="883.6" y="1291.5" fill="#3f1b77" class="color3F1B77 svgShape"></rect><rect width="90.4" height="197.3" x="897.6" y="1081.4" fill="#3f1b77" class="color3F1B77 svgShape"></rect><rect width="80.8" height="118.5" x="902.6" y="949.9" fill="#3f1b77" class="color3F1B77 svgShape"></rect><path fill="#3f1b77" d="M1024.4 1620.1H864.9c0-11.6 9.4-21 21-21h117.5C1015 1599.2 1024.4 1608.6 1024.4 1620.1zM1024.4 1292.6H864.9c0-11.6 9.4-21 21-21h117.5C1015 1271.7 1024.4 1281.1 1024.4 1292.6zM1001.7 1082.3H884.9c0-11.6 6.9-21 15.4-21h86.1C994.8 1061.3 1001.7 1070.7 1001.7 1082.3zM1001.7 952.1H884.9c0-11.6 6.9-21 15.4-21h86.1C994.8 931.1 1001.7 940.5 1001.7 952.1z" class="color3F1B77 svgShape"></path><path fill="#f79a54" d="M961.3,998.9v48.5h-36v-48.5c0-9.9,8.1-18,18-18c1.6,0,3.1,0.2,4.5,0.6
				C955.6,983.4,961.3,990.5,961.3,998.9z" class="colorF79A54 svgShape"></path><path fill="#b76229" d="M947.8,981.4c0,0-11.8,4.7-14.1,17.1c-2.3,12.4,0,48.9,0,48.9h-8.4v-48.5c0-9.9,8.1-18,18-18
				C944.9,980.9,946.4,981.1,947.8,981.4z" class="colorB76229 svgShape"></path><path fill="#f79a54" d="M971.4,1159.6v75.5h-56.1v-75.5c0-15.5,12.5-28,28-28c2.4,0,4.8,0.3,7,0.9
				C962.4,1135.6,971.4,1146.6,971.4,1159.6z" class="colorF79A54 svgShape"></path><path fill="#b76229" d="M950.3,1132.5c0,0-18.4,7.3-21.9,26.7c-3.5,19.4,0,76,0,76h-13.1v-75.5c0-15.5,12.5-28,28-28
				C945.7,1131.6,948.1,1131.9,950.3,1132.5z" class="colorB76229 svgShape"></path><path fill="#f79a54" d="M990.5,1453.9v144.4H901v-144.4c0-29.6,20-53.6,44.7-53.6c3.9,0,7.6,0.6,11.2,1.7
				C976.2,1407.9,990.5,1428.9,990.5,1453.9z" class="colorF79A54 svgShape"></path><path fill="#b76229" d="M956.9,1402c0,0-29.4,13.9-35,51c-5.6,37,0,145.4,0,145.4H901v-144.4c0-29.6,20-53.6,44.7-53.6
				C949.6,1400.3,953.4,1400.9,956.9,1402z" class="colorB76229 svgShape"></path><path fill="#3f1b77" d="M551.5,914.6c-1,8.3-7.1,15-12.7,19.6c-5.3,4.3-10.2,6.6-10.2,6.6h-36.5v-97.6c0,0,2.8,8.2,12.4,15.8
						c2.7,2.2,6.7,4,11.3,5.9C532.2,871.9,555.6,880.7,551.5,914.6z" class="color3F1B77 svgShape"></path><path fill="#3f1b77" d="M479.7,859c-12.6,10-52.3,12.3-47,55.6c2,16.1,22.9,26.2,22.9,26.2h36.5v-97.6
						C492.1,843.2,489.3,851.4,479.7,859z" class="color3F1B77 svgShape"></path><rect width="123.2" height="307.7" x="432.9" y="1291.5" fill="#3f1b77" class="color3F1B77 svgShape"></rect><rect width="90.4" height="197.3" x="446.9" y="1081.4" fill="#3f1b77" class="color3F1B77 svgShape"></rect><rect width="80.8" height="118.5" x="451.9" y="949.9" fill="#3f1b77" class="color3F1B77 svgShape"></rect><path fill="#3f1b77" d="M573.6 1620.1H414.2c0-11.6 9.4-21 21-21h117.5C564.3 1599.2 573.6 1608.6 573.6 1620.1zM573.6 1292.6H414.2c0-11.6 9.4-21 21-21h117.5C564.3 1271.7 573.6 1281.1 573.6 1292.6zM551 1082.3H434.2c0-11.6 6.9-21 15.4-21h86.1C544.1 1061.3 551 1070.7 551 1082.3zM551 952.1H434.2c0-11.6 6.9-21 15.4-21h86.1C544.1 931.1 551 940.5 551 952.1z" class="color3F1B77 svgShape"></path><path fill="#f79a54" d="M510.6,998.9v48.5h-36v-48.5c0-9.9,8.1-18,18-18c1.6,0,3.1,0.2,4.5,0.6
				C504.9,983.4,510.6,990.5,510.6,998.9z" class="colorF79A54 svgShape"></path><path fill="#b76229" d="M497.1,981.4c0,0-11.8,4.7-14.1,17.1c-2.3,12.4,0,48.9,0,48.9h-8.4v-48.5c0-9.9,8.1-18,18-18
				C494.2,980.9,495.7,981.1,497.1,981.4z" class="colorB76229 svgShape"></path><path fill="#f79a54" d="M520.6,1159.6v75.5h-56.1v-75.5c0-15.5,12.5-28,28-28c2.4,0,4.8,0.3,7,0.9
				C511.7,1135.6,520.6,1146.6,520.6,1159.6z" class="colorF79A54 svgShape"></path><path fill="#b76229" d="M499.6,1132.5c0,0-18.4,7.3-21.9,26.7c-3.5,19.4,0,76,0,76h-13.1v-75.5c0-15.5,12.5-28,28-28
				C495,1131.6,497.4,1131.9,499.6,1132.5z" class="colorB76229 svgShape"></path><path fill="#f79a54" d="M539.8,1453.9v144.4h-89.5v-144.4c0-29.6,20-53.6,44.7-53.6c3.9,0,7.6,0.6,11.2,1.7
				C525.5,1407.9,539.8,1428.9,539.8,1453.9z" class="colorF79A54 svgShape"></path><path fill="#b76229" d="M506.2,1402c0,0-29.4,13.9-35,51c-5.6,37,0,145.4,0,145.4h-20.9v-144.4c0-29.6,20-53.6,44.7-53.6
				C498.9,1400.3,502.7,1400.9,506.2,1402z" class="colorB76229 svgShape"></path><path fill="#3f1b77" d="M874.3,1177.5c-2.6,16.1-17.8,29.1-32,37.9c-13.2,8.2-25.5,12.8-25.5,12.8h-91.6v-188.7
						c0,0,7,15.8,31.1,30.5c6.8,4.2,16.9,7.7,28.3,11.4C825.8,1095,884.7,1112,874.3,1177.5z" class="color3F1B77 svgShape"></path><path fill="#3f1b77" d="M694.1,1070c-31.5,19.2-131.3,23.9-118,107.5c5,31.1,57.5,50.7,57.5,50.7h91.6v-188.7
						C725.2,1039.5,718.2,1055.3,694.1,1070z" class="color3F1B77 svgShape"></path><rect width="254.3" height="116.4" x="599.6" y="1219.9" fill="#3f1b77" class="color3F1B77 svgShape"></rect><rect width="355.5" height="241.3" x="550.8" y="1357.7" fill="#3f1b77" class="color3F1B77 svgShape"></rect><path fill="#f79a54" d="M783.8 1452.6v167.6h-107v-167.6c0-34.3 24-62.2 53.5-62.2 1 0 2 0 3 .1 3.1.2 6.2.7 9.1 1.5 0 0 0 0 0 0C766.2 1398.4 783.8 1423.1 783.8 1452.6zM885.4 1459.1v99.8h-74.1v-99.8c0-20.5 16.6-37 37-37 1.6 0 3.3.1 4.8.3C871.3 1424.8 885.4 1440.3 885.4 1459.1zM648.7 1459.1v99.8h-74.1v-99.8c0-20.5 16.6-37 37-37 3.2 0 6.3.4 9.3 1.2C636.9 1427.3 648.7 1441.8 648.7 1459.1z" class="colorF79A54 svgShape"></path><path fill="#3f1b77" d="M938.8 1620.1H783.6v-21h132.1c6.4 0 12.2 2.3 16.4 6.1C936.2 1609.1 938.8 1614.3 938.8 1620.1zM554.4 1599.2c-11.8 0-21.4 9.4-21.4 21l0 0h143.9v-21H554.4zM924.3 1362H521.5c0-14.1 11.5-25.6 25.6-25.6h351.5c7.1 0 13.5 2.9 18.1 7.5C921.4 1348.5 924.3 1354.9 924.3 1362zM885.2 1220H564.1c0-14.1 9.1-25.6 20.4-25.6h280.3c5.6 0 10.7 2.9 14.4 7.5C882.9 1206.5 885.2 1212.9 885.2 1220z" class="color3F1B77 svgShape"></path><path fill="#f79a54" d="M672.6 1279.6v39.1h-50.4v-39.1c0-13.9 11.3-25.2 25.2-25.2 3.2 0 6.2.6 9 1.7 3.3 1.3 6.3 3.2 8.8 5.7C669.8 1266.3 672.6 1272.6 672.6 1279.6zM750.4 1279.6v39.1H700v-39.1c0-13.9 11.3-25.2 25.2-25.2 4.2 0 8.1 1 11.6 2.8 2.3 1.2 4.4 2.7 6.2 4.6C747.6 1266.3 750.4 1272.6 750.4 1279.6zM828.8 1279.6v39.1h-50.4v-39.1c0-13.9 11.3-25.2 25.2-25.2 5.3 0 10.2 1.6 14.2 4.4 1.3.9 2.5 1.9 3.6 3C826 1266.3 828.8 1272.6 828.8 1279.6z" class="colorF79A54 svgShape"></path><path fill="#b76229" d="M656.5 1256c0 0-19.3 1-21 19.7-1.5 16.5-1.3 38-1.3 42.9h-11.9v-39.1c0-13.9 11.3-25.2 25.2-25.2C650.6 1254.4 653.7 1255 656.5 1256zM736.8 1257.2c-5.8 0-10.4.1-15.5 3.8-5.1 3.7-8.6 9.4-10.5 15.5-1.9 6-2.4 12.4-2.5 18.8-.1 7.8.5 15.7 1.7 23.5H700v-39.1c0-13.9 11.3-25.2 25.2-25.2C729.4 1254.4 733.3 1255.4 736.8 1257.2zM817.8 1258.8c-1.3-.1-2.6-.3-3.5-.5-5.1-.8-10.4.8-14.5 3.9-5.2 4.1-8.4 10.4-9.9 16.8-1.5 6.5-1.5 13.2-1.6 19.8 0 6.6 0 13.2-.1 19.8h-10v-39.1c0-13.9 11.3-25.2 25.2-25.2C808.9 1254.4 813.8 1256 817.8 1258.8zM621 1423.2c0 0-24.3 9.6-29 35.2-4.7 25.6 0 100.4 0 100.4h-17.3v-99.8c0-20.5 16.6-37 37-37C614.9 1422.1 618 1422.5 621 1423.2zM742.5 1392c-.9.1-41.9 4.1-45.4 49.1-3 38.5-2.4 146.7-2.1 179h-18.1v-167.6c0-34.3 24-62.2 53.5-62.2 1 0 2 0 3 .1L742.5 1392zM824 1458.5c-2.3 16.5 3.7 73.5 4.9 100.4h-17.6v-99.8c0-20.5 16.6-37 37-37 1.6 0 3.3.1 4.8.3l.8 2.1C853.9 1424.4 827.1 1436.7 824 1458.5z" class="colorB76229 svgShape"></path><path fill="#3f1b77" d="M1625.8,1717.8c-152.7,61.4-321,68.9-485.5,75.6c-267.7,10.9-535.4,21.7-803.1,32.6
			c-41.3,1.7-82.9,3.3-123.8-1.2c-11.2-1.2-22.2-2.9-33.3-5.1c-5.5-1.1-14.3-3.4-24.7-6.6c-29.4-9.1-72-26-91.4-46.8
			c5.9-16.7,15.9-31,31-40.7c-2.9-3.6-5.8-7.3-8.5-10.9c19.6-7.9,42.9-14,52.8-17.8c30.2-11.6,60.8-22.1,91.8-31.7
			c124.1-38.3,252.9-60.5,382.4-69.9c72.8-5.3,145.8-6.6,218.7-4.4c238.7,7.3,474.7,50.7,707.3,106
			C1568.3,1703.6,1597.1,1710.6,1625.8,1717.8z" class="color3F1B77 svgShape"></path><path fill="#6730a0" d="M2783.1,1881C2783.1,1881,2783.1,1881,2783.1,1881c-20,9.9-42.3,16.2-63.7,18
			c-52.5,4.4-107.2-5.5-158.4,2.7c0,0,0,0,0,0c-12.1,1.9-24,4.9-35.6,9.2c-5.8,2.2-11.5,4.7-16.9,7.4c0,0,0,0,0,0
			c-79.5,40.1-126.3,137.5-213.4,160.9c-57.3,15.4-122.7-4.8-175.1,22.7c-30.2,15.9-50.6,45-76.7,66.9
			c-74.1,62-183.9,57.5-277.9,33.7c-66.3-16.8-131-41.6-196.1-63.2c-70.2-23.4-140.9-43.3-214.7-45.9c-49.1-1.7-97.9,4.3-146.5,12.6
			c-92.9,15.9-185.4,40-279.1,33.9c-151.4-9.8-287.5-96.9-437.4-119.8c-71.7-10.9-144.9-6.9-216.7-17
			c-71.8-10.1-145.8-37.4-188.5-95.4c-24-32.8-38.4-96-22.2-141.6c5.9-16.7,15.9-31,31-40.7c2-1.3,4.2-2.6,6.4-3.7
			c10.1-5.1,24.9-7,41.3-7.3c31.6-0.6,69.2,4.6,91,4.1c52.7-1.4,105.3-2.7,158-4c382.5-9.2,765.1-15.1,1147.7-17.9
			c379.2-2.8,758.4-2.4,1137.7,1c34.7,0.3,70.3,0.8,102.8,12.9c11.5,4.3,22.7,10.3,32.5,17.9c3.9,3,7.6,6.2,11,9.6
			c3.6,3.7,7,7.5,9.9,11.6c7.1,9.8,12.2,20.9,14.2,33C2854.7,1825.5,2823.8,1860.8,2783.1,1881z" class="color6730A0 svgShape"></path><path fill="#3f1b77" d="M2783.1 1881c-20 9.9-42.3 16.2-63.7 18-52.5 4.4-107.2-5.5-158.4 2.7 0 0 0 0 0 0-12.1 1.9-24 4.9-35.6 9.2-5.8 2.2-11.5 4.7-16.9 7.4 0 0 0 0 0 0-79.5 40.1-126.3 137.5-213.4 160.9-57.3 15.4-122.7-4.8-175.1 22.7-30.2 15.9-50.6 45-76.7 66.9-74.1 62-183.9 57.5-277.9 33.7-66.3-16.8-131-41.6-196.1-63.2 109.3 19 220.7 25.8 331.5 20.1 31.6-1.6 65.8-5.4 88.7-27.2 22.9-21.8 23.4-67.8-6-79.5 120.8 2 244.6 3.6 358.3-37.2 17.7-6.4 36-14.4 47-29.7 11-15.3 11.2-39.8-4.3-50.6-9.3-6.4-21.3-6.5-32.2-9.6-10.8-3.1-22.1-12.2-20-23.3 2.3-12 17.6-15.6 29.8-16.5 102.2-7.6 204.8-9.4 307.2-5.3C2690.8 1881.3 2745 1876.7 2783.1 1881zM1208 2106.1c-92.9 15.9-185.4 40-279.1 33.9-151.4-9.8-287.5-96.9-437.4-119.8-71.7-10.9-144.9-6.9-216.7-17-71.8-10.1-145.8-37.4-188.5-95.4-24-32.8-38.4-96-22.2-141.6 5.9-16.7 15.9-31 31-40.7 2-1.3 4.2-2.6 6.4-3.7 10.1-5.1 24.9-7 41.3-7.3-14.4 8-25.6 22.3-22 39.5.1.6.3 1.2.4 1.9 2.7 10.2 12.5 17.7 22.6 19.5h0c6.4 1.1 13-.2 18.1-4.6-3.8 3.8-6.4 8.3-7.9 13.1-2.9 9.1-2.1 19.5 1.5 29.1 4.1 10.9 11.7 21 21.5 27.2 22.8 14.7 51.8 14.6 79 14 4.9-.1 9.7-.2 14.6-.3 48.7-1 97.4-2.1 146.2-3.1 12.7 8.9-1.6 28.8-16.4 33.6-7.2 2.3-15.5 4.6-22.4 8.1-7.3 3.7-12.9 8.8-13.7 16.7-1.3 12.4 11.8 22 24.2 23.4 12.4 1.4 24.8-2.5 37.2-2.9 52.9-1.4 89.8 58.5 142.4 64.4 19 2.1 38-3.2 57.1-4.8 19.1-1.6 40.6 1.8 52.5 16.7 8.6 10.7 10.6 25.5 18.8 36.6 13.7 18.5 39.8 21.4 62.7 22.6 66.3 3.6 132.5 7.2 198.7 10.8-4.1 11.6-8.1 23.1-12.2 34.7 81.5-1.7 163-3.3 244.5-5C1195.8 2105.8 1201.9 2105.8 1208 2106.1z" class="color3F1B77 svgShape"></path><polygon fill="#fdc027" points="1890.4 362.3 1899.7 357.3 1897.9 367.7 1905.5 375.1 1895 376.6 1890.4 386 1885.7 376.6 1875.3 375.1 1882.8 367.7 1881 357.3" class="colorFDC027 svgShape"></polygon><polygon fill="#fdc027" points="2047.4 244.1 2056.7 239.2 2054.9 249.6 2062.5 256.9 2052 258.4 2047.4 267.9 2042.7 258.4 2032.3 256.9 2039.8 249.6 2038 239.2" class="colorFDC027 svgShape"></polygon><polygon fill="#fdc027" points="1733.4 130.1 1742.7 125.2 1740.9 135.6 1748.4 143 1738 144.5 1733.4 153.9 1728.7 144.5 1718.3 143 1725.8 135.6 1724 125.2" class="colorFDC027 svgShape"></polygon><polygon fill="#fdc027" points="1285 296.6 1292.9 292.5 1291.4 301.3 1297.7 307.5 1288.9 308.8 1285 316.8 1281 308.8 1272.2 307.5 1278.6 301.3 1277.1 292.5" class="colorFDC027 svgShape"></polygon><polygon fill="#fdc027" points="1546.3 330.2 1554.1 326 1552.6 334.8 1559 341 1550.2 342.3 1546.3 350.3 1542.3 342.3 1533.5 341 1539.9 334.8 1538.4 326" class="colorFDC027 svgShape"></polygon><polygon fill="#fdc027" points="1435.5 128.7 1443.4 124.5 1441.9 133.3 1448.3 139.5 1439.5 140.8 1435.5 148.8 1431.6 140.8 1422.8 139.5 1429.1 133.3 1427.6 124.5" class="colorFDC027 svgShape"></polygon><polygon fill="#fdc027" points="2252.9 445.9 2264.9 439.6 2262.6 452.9 2272.3 462.3 2258.9 464.3 2252.9 476.4 2246.9 464.3 2233.6 462.3 2243.2 452.9 2241 439.6" class="colorFDC027 svgShape"></polygon><polygon fill="#fdc027" points="2045.9 670.5 2058.2 664 2055.9 677.7 2065.8 687.4 2052.1 689.4 2045.9 701.9 2039.7 689.4 2025.9 687.4 2035.9 677.7 2033.5 664" class="colorFDC027 svgShape"></polygon><polygon fill="#fdc027" points="2314.9 716.5 2327.3 710.1 2324.9 723.8 2334.9 733.5 2321.1 735.5 2314.9 748 2308.8 735.5 2295 733.5 2304.9 723.8 2302.6 710.1" class="colorFDC027 svgShape"></polygon><path fill="#fdc027" d="M2032.3,445.8C2032.3,445.8,2032.3,445.8,2032.3,445.8L2032.3,445.8c-1,1.6-2,3.2-3,4.7
			c-0.1,0.2-0.3,0.4-0.4,0.6c-4.7,7-10,13.7-15.9,19.9c-0.1,0.1-0.2,0.2-0.2,0.2c-0.1,0.1-0.1,0.1-0.2,0.2c-1.4,1.4-2.8,2.9-4.2,4.3
			c-0.6,0.6-1.2,1.1-1.8,1.7c-13.6,12.8-29.8,23.2-48.2,30.6c-78.6,31.3-167.7-7.1-199-85.7c-3.8-9.5-6.5-19.1-8.3-28.7
			c-7.6-40.7,1.8-81.9,24.4-114.8c7.5-11,16.5-21,26.8-29.8c3.7-3.2,8.1-6.2,12.2-9.1c0.3-0.2,0.6-0.4,1-0.7l0,0
			c-0.1,0.2-0.6,0.7-1,1.2c-0.3,0.3-0.6,0.6-0.6,0.7c-23.5,39.5-29,89.1-10.7,135c13.9,35,39.4,62.1,70.2,78.5
			c1.6,0.9,3.3,1.7,5,2.5c1.8,0.9,3.7,1.7,5.5,2.6c6.5,2.8,13.2,5.2,20,7.2c1,0.3,2.1,0.6,3.1,0.9c0.5,0.1,1,0.3,1.5,0.4
			c5.2,1.3,10.5,2.3,15.8,3.1c0.1,0,0.2,0,0.2,0c6,0.8,12.2,1.3,18.3,1.4c1.7,0,3.4,0,5.1,0c6.2-0.1,12.5-0.6,18.8-1.5
			c2.2-0.3,4.4-0.7,6.6-1.1c9.5-1.8,19.1-4.5,28.4-8.2c0.1,0,0.2-0.1,0.4-0.1c1.5-0.6,3.1-1.3,4.6-1.9c0.5-0.2,1-0.4,1.5-0.7
			c1.3-0.6,2.6-1.2,3.9-1.8C2019.3,454,2026,450.1,2032.3,445.8C2032.3,445.8,2032.3,445.8,2032.3,445.8z" class="colorFDC027 svgShape"></path><ellipse cx="1591.1" cy="1955.2" fill="#3f1b77" rx="460" ry="89.5" class="color3F1B77 svgShape"></ellipse><ellipse cx="1444.7" cy="1895.1" fill="#153662" rx="59.7" ry="89.1" class="color153662 svgShape"></ellipse><circle cx="1444.7" cy="1865.7" r="59.7" fill="#ffcaac" class="colorFFCAAC svgShape"></circle><ellipse cx="1664.4" cy="1895.1" fill="#153662" rx="59.7" ry="89.1" class="color153662 svgShape"></ellipse><circle cx="1664.4" cy="1865.7" r="59.7" fill="#ffcaac" class="colorFFCAAC svgShape"></circle><path fill="#8bbee8" d="M1791.2,1869.9c-13.3,45-134.9,33.3-244.7,43.3c-109.9,10-276.4-20-298-69.9c-2.1-5-3.5-10.2-4.1-15.7
			c-5.7-49.6,46.7-122.4,85.7-257.4c43.3-149.8,49.6-440.7,49.6-440.7l338-18c0,0,9.6,163.7,18.7,252.3
			c3.9,38.1,16.6,125.4,28.9,217.2c0,0,0,0.1,0,0.2C1782.3,1708.2,1798.9,1843.8,1791.2,1869.9z" class="color8BBEE8 svgShape"></path><path fill="#ffcaac" d="M1002.3,843.7c7.9-10.1,89,49.7,89.1,49c0.1-0.9-68.6-53.2-59.6-63.8c6.3-7.4,68.3,45.3,84.4,54.3
			c-3.6-8.2-9-20.2-11-23.3c-3.2-4.9-9.3-36.3-3.3-36.1c6,0.3,25.8,35.3,26,35.7c10.4,16.6,20.6,36.1,23.6,40.1
			c5.6,7.3,18.7,70.1,18.7,70.1l-30.8,18c0,0-47.9-19.5-58.5-27.7c-10.5-8.1-71.8-29.3-66.4-37.4c7-10.8,64.4,16.8,64.2,14.7
			c-0.2-2.2-88.1-47.8-76.7-57.6c6.3-5.4,75.9,32.2,76.4,32C1079.8,911.4,993.6,854.8,1002.3,843.7z" class="colorFFCAAC svgShape"></path><path fill="#ffcaac" d="M1197.9,979.8l-28.4,45.8c0,0-21.3-23.3-46.6-45.3l40.4-51C1173.7,954.1,1197.9,979.8,1197.9,979.8z" class="colorFFCAAC svgShape"></path><path fill="#fc9b78" d="M1648.1,747.7l-4.4,98.9l-19.6,55.2l-90.8,24.8l-44.9-80.1l-8.4-79c0,0,41-2.9,44-1.8
			c2.9,1.2,31.7,6.4,31.7,6.4L1648.1,747.7z" class="colorFC9B78 svgShape"></path><path fill="#8bbee8" d="M1371.5,1253.6c0.3,1,0.8,2,1.7,3c21.2,25.3,226,62,231.3,57.7c1.7-1.4-3.4-41.2-3.3-59.9
					c0.3-42.9,4.9-74.6,2.6-75.3c-2.5-0.8-102.9-39.4-102.9-39.4c-9.6-0.5-16.2-1.1-16.9-1.9c-3-3.3-14.6-164.4-8.5-197.7
					c0.2-1.2,0.5-2.5,0.9-3.8c0,0,0-0.1,0-0.1c9.5-32.8,63.6-78.9,65-80.1c-1.3,0.7-53.6,27.1-90.7,55.3
					c-12.2,9.3-22.8,18.7-29.4,27.4C1394.3,974.7,1364.4,1226.1,1371.5,1253.6z" class="color8BBEE8 svgShape"></path><path fill="#f8fcff" d="M1393.4,920c-4-3.7-8.7-6.7-13.8-8.6c7.5-5.7,15.6-11.3,23.8-16.7c9.4-9.7,84.9-48.1,84.9-48.1l-8,20.3
					l-24.6,21.8l-15.4,35.2l-2.5,0.9l-1.9,19.4l-8.5,30.6c0,0-24.5,18.9-24.7-12.4C1402.6,931.5,1393.7,920.3,1393.4,920z" class="colorF8FCFF svgShape"></path><path fill="#8bbee8" d="M1831.6,1253.6c-0.3,1-0.8,2-1.7,3c-16.3,19.5-138.1,30.4-195.7,32.4c-3.4-1.4-15.2-7.6-23.2-30.7
					c-1.5-4.3-2.9-9.3-4-14.9c-1.9-9.2-3.2-20.3-3.5-33.5l-1.1,0.1c0.9-34.3,2.8-67,4.4-67.5c2.5-0.8,64.5-1.2,95.2-2.8
					c9.6-0.5,16.2-1.1,16.9-1.9c3-3.3,14.6-164.4,8.5-197.7c-0.2-1.2-0.5-2.5-0.9-3.8c0,0,0-0.1,0-0.1c-9.5-32.8-63.6-79-65-80.1
					c1.3,0.7,53.6,27.1,90.7,55.3c12.2,9.2,22.8,18.7,29.4,27.4C1808.8,974.7,1838.7,1226.1,1831.6,1253.6z" class="color8BBEE8 svgShape"></path><path fill="#639ec6" d="M1752.2,1176c-8.4-8.9-16.9-17.8-26.8-24.9c-7-5-14.9-9.2-23.2-11.4c9.6-0.5,16.2-1.1,16.9-1.9
					c3-3.3,14.6-164.4,8.5-197.7c-0.2-1.2-0.5-2.5-0.9-3.8c0,0,0-0.1,0-0.1c1.3-4.3,3.8-10.8,7.8-9.4c3.5,1.2,0.9,10.8,0.9,14.1
					c0.1,37.4,0.1,74.8,0.2,112.2C1735.6,1094.7,1736,1137.7,1752.2,1176z" class="color639EC6 svgShape"></path><path fill="#f8fcff" d="M1738.6,920c4-3.7,8.7-6.7,13.8-8.6c-7.5-5.7-15.6-11.3-23.8-16.7c-9.4-9.7-84.9-48.1-84.9-48.1l8,20.3
					l24.6,21.8l15.4,35.2l2.5,0.9l1.9,19.4l8.5,30.6c0,0,24.5,18.9,24.7-12.4C1729.3,931.5,1738.3,920.3,1738.6,920z" class="colorF8FCFF svgShape"></path><path fill="#ffcaac" d="M1676.7,755.2c0,0-15.8,43.8-38.1,62.1c-4.6,3.8-12.6,8.7-22.8,13.4c-3.2,1.5-6.7,3-10.3,4.5
			c0,0-0.1,0-0.1,0c-2.2,0.6-26.5,6.8-40.7,7c-14.6,0.2-35.7-5.9-36.3-6.1c0,0,0,0,0,0c-16.1-6.2-29-13.5-35.4-18.8
			c-22.3-18.3-38.1-62.1-38.1-62.1c-13-0.9-23.5-8.6-31.3-19.2v0c-11.4-15.5-17.3-37.2-17.4-53c0,0,0,0,0,0
			c-0.1-9.9,2.1-17.5,6.5-20c20.5-11.2,30.2,18.5,30.2,18.5l-2.5-85.8c5.5,1.1,11.1,1.6,16.7,1.6c13.1,0,26.3-2.8,39-7.2
			c20.9-7.3,40.2-18.8,55.1-29.3v-23.4c0,0,5.2,5,14,12c0.2,0.2,0.4,0.3,0.6,0.5c0.2-0.1,0.3-0.2,0.5-0.4
			c8.9-7.1,14.1-12.1,14.1-12.1v23.4c12.7,8.9,28.6,18.6,45.9,25.8c20.6,8.5,43.2,13.4,64.8,9.1l-2.4,85.8c0,0,9.8-29.6,30.2-18.5
			C1735.3,671.9,1720.7,752.1,1676.7,755.2z" class="colorFFCAAC svgShape"></path><path fill="#ffcaac" d="M1460,644.4c0,0,65.8-27.1,104-26.6c38.2,0.5,108.7,26.6,108.7,26.6s-8.2,25.6-14.1,31.1
			c-6,5.5-50.9,24.7-50.9,24.7l-41.8-5L1460,644.4z" class="colorFFCAAC svgShape"></path><path fill="#ffcaac" d="M1654.4,684.5l-43.9,14.5c0,0-37.8,5.9-39.7,1.2c-1.8-4.7-38.9-14.1-45.2-14.7c-6.2-0.5-37.4-3.6-42-6.2
			c-3.7-2.1-16.3-22.7-21.4-31.3c-1.4-2.3-2.2-3.7-2.2-3.7s51.5-49.7,104-51.2c50.2-1.5,101.5,42.9,108.1,50.4
			c0.3,0.4,0.5,0.6,0.6,0.8C1675.2,648.5,1654.4,684.5,1654.4,684.5z" class="colorFFCAAC svgShape"></path><path fill="#fb67b9" d="M1807.2,1025.9c-7.1-36.6-17.6-81.8-29.5-106.6c-0.9-1.9-2-3.9-3.2-5.8c0,0,0,0,0,0
			c-26.8-44.2-114.3-87.7-114.3-87.7l0,0c0,0,0.1-0.1,0.2-0.3c4.9-6.8,97.2-135.7,65.1-213.7c-15.1-36.7-49.8-64.9-82.8-84.7
			c-20.1-8.6-61.2-25.7-74.7-28c-17.7-2.9-79.9,30.7-83.6,32.7c-0.1,0.1-0.2,0.1-0.2,0.1c-30.5,19.5-61,46.1-74.9,79.9
			c-8.7,21.1-8.3,45.9-3,71c0,0,0,0,0,0c0.1,15.9,6,37.6,17.4,53v0c21,49,50.1,88.9,50.8,89.8l-3.4-1.7c0.4,0.6,0.9,1.2,1.4,1.7
			c0,0-13,6.5-30.6,17c-29.9,17.9-73,47.5-86.9,76.5c-2.5,5.2-4.9,11.3-7.3,18.1c0,0,0,0.1,0,0.1c-1.6,4.7-3.2,9.7-4.8,14.9
			c-5.3,17.8-10.1,38.2-14.1,57.4c-1.2,5.5-2.2,10.9-3.3,16.1l-17.4,83c0,0,43.8,6.5,59.4,7c5.6,0.2,10.1,0.4,13.7,1
			c0.4,0.1,0.8,0.1,1.2,0.2c5.8,1.1,9.8,3.3,14.3,7.8c2,2,4.2,3.9,6.2,5.5c5.7,4.5,10.7,7.4,10.7,7.4l47,2l45.5,1.9l6.1,0.3
			c14.6,1.4,33.5,2.7,58.3,4.3c26.2,1.7,47.1-0.5,63.8-4.9l84.9-3.6c0,0,9.3-5.3,16.9-12.9c4-4,7.7-6.2,12.6-7.4
			c4.3-1.1,9.5-1.4,16.8-1.6c15.6-0.5,59.4-7,59.4-7L1807.2,1025.9z M1461.9,759.9c-0.7-2.3-1.3-4.7-1.9-7.1
			c-20.1-85.6,0-108.5,0-108.5s0,0,0,0c2.1-0.6,68.8-19.5,102.9-23c1.2-0.1,2.3-0.2,3.4-0.3c1.1,0.1,2.2,0.2,3.4,0.3
			c23.1,2.4,61.3,11.9,84.1,17.9c0,0,0.1,0,0.1,0c10.3,2.7,17.4,4.8,18.6,5.1c0.1,0,0.1,0,0.1,0h0c0,0,0,0,0,0c0,0,0,0,0,0
			c0.8,0.9,19.7,24.6,0,108.4c0,0,0,0,0,0c-6.2,26.5-19,44.6-33.5,57c-5.1,4.3-10.4,7.9-15.7,10.9c-0.1,0-0.2,0.1-0.3,0.2
			c-3.3,1.9-6.6,3.5-9.9,5c0,0,0,0-0.1,0c-4.5,2-9,3.6-13.2,4.9c0,0-0.1,0-0.1,0c-15.8,4.9-29,5.6-33.4,5.7c0,0,0,0,0,0
			c-0.2,0-0.3,0-0.5,0h-0.1c-9.4-0.2-50.1-3.1-79.2-33.2C1476.3,792.7,1467.4,778.6,1461.9,759.9z" class="colorFB67B9 svgShape"></path><path fill="#eb52a3" d="M1748.4 1117.5c-4.9 1.2-8.5 3.4-12.6 7.4-7.6 7.6-16.8 12.9-16.8 12.9l-108.2 4.5c2.1-.6 4.3-1.2 6.5-1.5 5.8-.9 11.8-.4 17.7-.9 15.7-1.4 31.4-6.8 43.1-17.7 15.4-14.3 22-35.6 24.8-56.4 2.8-20.8 2.5-42 6.9-62.4.7 27.1 4.7 54.1 11.7 80.2 1.8 6.6 3.8 13.3 7.4 19.2 3.5 5.9 8.8 11 15.4 13C1745.7 1116.2 1747.2 1116.7 1748.4 1117.5zM1774.5 913.5c-1.1-.8-74.1-51.6-108.6-60.3-34.8-8.7-64 0-64 0s68.2-35.1 99.5-92.2c-12.6 24.9-27.3 47.4-41.2 64.8C1660.2 825.8 1747.7 869.3 1774.5 913.5zM1358.5 913.8c1.1-.8 74.1-51.6 108.6-60.3 34.8-8.7 64 0 64 0s-65.8-39.3-97.1-96.4c12.6 24.9 24.9 51.5 38.8 69C1472.8 826.1 1385.3 869.6 1358.5 913.8z" class="colorEB52A3 svgShape"></path><rect width="228.2" height="331.1" x="1460.6" y="971.6" fill="#153662" class="color153662 svgShape"></rect><path fill="#ffcaac" d="M1669.5,1142.4l-63.9,1.1c0,0-56-41.4-70.1-39.1c-14.1,2.3,12.2,34.2,12.2,34.2s-35.6-9.4-45.9-17.8
			c-10.3-8.4-13.6-25.3-22-20.6c-8.4,4.7-1.4,64.7,19.2,91.4c20.6,26.7,121.8,16.4,121.8,16.4l30.9-7.5l8.4-10.8L1669.5,1142.4z" class="colorFFCAAC svgShape"></path><polygon fill="#8bbee8" points="1688.8 1140.3 1606.1 1140.3 1604.2 1167.5 1631.4 1169 1654.2 1169 1673.1 1163.2 1688.8 1155.9" class="color8BBEE8 svgShape"></polygon><path fill="#8bbee8" d="M1444.8 1078.7c0 0-18.3 24.1-41.8 51.7-3.4 4-6.9 8.1-10.5 12.2-.9 1-1.7 2-2.6 2.9-4.5 5.2-9.2 10.4-13.9 15.4-26 28-52.3 51.7-64.8 49-20.7-4.5-127.8-59.3-180.1-95.1 0 0 0 0 0 0-21.1-14.4-33.3-25.8-27.2-29.5 21.1-12.9 59.7-161.6 59.7-161.6l133 157.4c3.3-20.7 12.9-49.8 23.7-77.9 0 0 .1-.3.4-.9 5.6-14.5 11.4-28.7 16.8-41.3 2.8-6.6 5.5-12.7 7.9-18.3.1-.1.1-.2.2-.4.1-.3.3-.6.4-.9.4-.8.7-1.7 1.1-2.5.2-.4.4-.8.6-1.2.1-.2.1-.3.2-.5 6.4-14.4 10.8-23.7 10.8-23.7l.6 4.4.8 6.1.4 3.1 2.3 17 6.3 47.1 15.7 78.2 3.4.5L1444.8 1078.7zM1727.2 1204.9l-30.1-17.1 5.1-17.1-15.6-13.9-21.6-6.7-29.8-1.3-19.6-4.4-9.4-4.2c0 0-.1.7-.3 2.1-1.8 13.3-10.9 86.4 5.2 117.9 17.7 34.7 95.8 18.2 95.8 18.2l35.5-5.7 9.7-37.3L1727.2 1204.9z" class="color8BBEE8 svgShape"></path><path fill="#fb67b9" d="M1418.7,871c-6.8,4.8-13,9.4-18.6,13.9c-7.4,3.1-19.6,9.6-31.6,22c-3.2,3.3-6.4,7.1-9.5,11.3
			c-4.1,5.6-7.9,11.9-11.4,19.3c0,0,0,0.1,0,0.1c-0.1,0.1-0.1,0.2-0.2,0.3c-0.2,0.4-0.4,0.8-0.6,1.2c-0.4,0.8-0.7,1.6-1.1,2.5
			c-0.1,0.3-0.3,0.6-0.4,0.9c-0.1,0.1-0.1,0.2-0.2,0.4c-2.9,6.9-5.5,13.1-7.7,18.6c-11.6,27.8-15.8,38.2-16.9,41
			c-0.3,0.6-0.4,0.9-0.4,0.9s3.4,2.3,8.5,6.4c12.5,10.2,35,31.7,41.7,58.5c4.2,16.9,7.5,32.4,11.2,45.7c0.3,1,0.6,2,0.9,3
			c2.9,10.1,6,18.7,10,25.5c2,3.4,4.2,6.2,6.7,8.6c14.5,13.7,61.4,35.4,61.4,35.4v-172.3L1435,959l-1.4-6.4l-1.1-5l23.2-5.5
			l27.4-23.4l13.7-5.2l26-21.7l6.3-38.8C1529.2,853,1473,833.1,1418.7,871z" class="colorFB67B9 svgShape"></path><path fill="#eb52a3" d="M1529.2,853C1529.2,853,1529.1,853,1529.2,853c-0.1,0-0.1,0-0.1,0c-1.7-0.2-19.9-2-43.2-0.1
			c-4,0.3-8.2,0.8-12.5,1.4c-6.4,0.9-12.9,2.1-19.5,3.7c-15.5,3.8-31.1,9.9-44.1,19.5c-0.1,0.1-0.2,0.2-0.3,0.2
			c-0.7,0.5-1.4,1-2.1,1.6c-2.3,1.8-4.6,3.6-6.8,5.4c-2.3,1.9-4.5,3.8-6.6,5.8l0,0c-13.4,12.1-24.8,25.3-33.7,36.9
			c-3.7,4.8-6.9,9.3-9.8,13.4c-3.1,4.5-5.6,8.4-7.7,11.7c-3.2,5.1-5,8.4-5.3,9c0,0.1-0.1,0.1-0.1,0.1l-0.1-0.4
			c2.8-6.6,5.5-12.7,7.9-18.3c0.1-0.1,0.1-0.2,0.2-0.4c0.1-0.3,0.3-0.6,0.4-0.9c0.4-0.8,0.7-1.7,1.1-2.5c0.2-0.4,0.4-0.8,0.6-1.2
			c0.1-0.2,0.1-0.3,0.2-0.5c2.4-6.8,4.8-12.9,7.3-18.1c14-29.1,57-58.7,86.9-76.5l1.4-0.4l36.6-10.3L1529.2,853L1529.2,853z" class="colorEB52A3 svgShape"></path><path fill="#639ec6" d="M1370.4 1068.4c0 0 7.1 93.7 24.5 118.2 17.4 24.5 65.6 41.4 65.6 41.4l0-41.4c0 0-58.9-20.6-70.2-49.4C1379.1 1108.4 1370.4 1068.4 1370.4 1068.4zM1829.9 1256.6c-16.3 19.5-138.1 30.4-195.7 32.4-3.4-1.4-15.2-7.6-23.2-30.7 24.1 10.4 50.7 14.6 77 15.3 28.2.8 56.3-2.4 84.3-5.5 15.7-1.7 31.5-3.5 46.8-7.6C1822.8 1259.6 1826.6 1258.4 1829.9 1256.6z" class="color639EC6 svgShape"></path><path fill="#639ec6" d="M1389.9 1145.5c-4.5 5.2-9.2 10.4-13.9 15.4-26 28-52.3 51.7-64.8 49-20.7-4.5-127.8-59.3-180.1-95.1 2.5 1.2 170 83.4 184.6 74.2 14.7-9.3 54.7-120.7 54.7-120.7l10.8 56.9L1389.9 1145.5zM1444.7 1581.4c-.6 2.2-4 14.2-9.5 32.2C1440.4 1595.6 1444 1583.6 1444.7 1581.4zM1662.6 1764.5c-.1.8-.5 2.9-1.2 6.1C1662 1767.4 1662.5 1765.3 1662.6 1764.5z" class="color639EC6 svgShape"></path><path fill="#639ec6" d="M1791.2,1869.9c-13.3,45-134.9,33.3-244.7,43.3c-109.9,10-276.4-20-298-69.9c-2.1-5-3.5-10.2-4.1-15.7
			c10.9,13.5,29.1,25.2,59,24c53.4-2.1,109.7-166.1,131.8-237.7c-18.4,62.6-57.3,195.7-64.7,226.7c-9.7,41,43.8,65.6,90.2,57.4
			c46.3-8.2,77.8-19.1,77.8-19.1s27.6,15,66.4,4.1c33-9.3,51.7-88.6,56.6-112.2c-4.2,22.6-15.1,95.5,15.5,101.3
			c36.3,6.8,48.6,27.3,75.2-21.9c26.2-48.4,13.4-262.3,13-269C1782.3,1708.2,1798.9,1843.8,1791.2,1869.9z" class="color639EC6 svgShape"></path><path fill="#606060" d="M1567.9 492.1C1567.9 492.1 1567.9 492.1 1567.9 492.1L1567.9 492.1c-.2.1-.3.1-.6.2h0c-.4-.1-.6-.2-.6-.2l.6-.6L1567.9 492.1zM1406.3 682.9c3.8 17.9 10.1 36 17.4 53C1412.2 720.5 1406.4 698.8 1406.3 682.9z" class="color606060 svgShape"></path><path fill="#606060" d="M1567.9,492.1C1567.9,492.1,1567.9,492.1,1567.9,492.1L1567.9,492.1c-0.2,0.1-0.3,0.1-0.6,0.2h0
			c-0.4-0.1-0.6-0.2-0.6-0.2l0.6-0.6L1567.9,492.1z" class="color606060 svgShape"></path><path fill="#f8fcff" d="M1672.1,643.6c-86.6-23.3-167.1-7.8-209.9,4.5c-1.4-2.3-2.2-3.7-2.2-3.7s47.5-93.6,100.1-95.1
			C1610.3,547.7,1665.5,636,1672.1,643.6z" class="colorF8FCFF svgShape"></path></svg>