<svg xmlns="http://www.w3.org/2000/svg" xmlns:xlink="http://www.w3.org/1999/xlink" viewBox="0 0 4680 3120" width="550" height="550"><defs><linearGradient id="b" x1="2355.05" x2="2774.63" y1="1811.16" y2="1811.16" gradientUnits="userSpaceOnUse"><stop offset="0" stop-color="#fdf9d6" class="stopColorfdf9d6 svgShape"></stop><stop offset=".02" stop-color="#fdf9d8" class="stopColorfdf9d8 svgShape"></stop><stop offset=".37" stop-color="#fefced" class="stopColorfefced svgShape"></stop><stop offset=".7" stop-color="#fffefb" class="stopColorfffefb svgShape"></stop><stop offset="1" stop-color="#ffffff" class="stopColorfff svgShape"></stop></linearGradient><linearGradient id="a" x1="1373.11" x2="1575.65" y1="1365.11" y2="1365.11" gradientUnits="userSpaceOnUse"><stop offset="0" stop-color="#eeeeee" class="stopColoreee svgShape"></stop><stop offset="1" stop-color="#d5d5d5" class="stopColord5d5d5 svgShape"></stop></linearGradient><linearGradient id="c" x1="1575.65" x2="1640.4" y1="1385.23" y2="1385.23" xlink:href="#a"></linearGradient><linearGradient id="d" x1="1551.53" x2="1551.53" y1="2066.94" y2="1582.69" gradientUnits="userSpaceOnUse"><stop offset="0" stop-color="#ffffff" class="stopColorfff svgShape"></stop><stop offset=".3" stop-color="#fffefb" class="stopColorfffefb svgShape"></stop><stop offset=".62" stop-color="#fffced" class="stopColorfffced svgShape"></stop><stop offset=".95" stop-color="#fff9d8" class="stopColorfff9d8 svgShape"></stop><stop offset="1" stop-color="#fff8d4" class="stopColorfff8d4 svgShape"></stop></linearGradient></defs><g data-name="8" fill="#000000" class="color000 svgShape"><path fill="#ffe5ca" d="M3954.81 1618.35c-47.94 127.73-183.87 246.05-123.92 376.93 75 163.8 37 268.33-11.7 399.08l-155.77 8.86L957 2557l-71.83 4.08c-97-120.8-165-194.24-185.82-441.58-20.98-248.24 245.9-485.45 277.65-594.33 31.3-107.35-216.78-235.78-215.81-463 .61-142.44 78.17-262.8 187.49-356.28l1.85-1.58c116-98.53 267.17-167 400.15-199.68q3.85-.94 7.73-1.86l1.85-.43c226.29-52.88 474.78-13.6 694.86 71.93 164 63.72 324.24 154.25 500.6 158.76 120.92 3.09 235-38.24 352.23-59.59 280.17-51 605.15-14.72 823.18 141.67 146.75 105.26 230.38 271.15 256.06 435.18 18.81 120.12 10.27 254.39-32.38 368.06Z" class="colorffe5ca svgShape"></path><path fill="#1b8f93" d="M3104.26 1667.63c-72.86-130.18-127.73-270.22-150.84-417.6 86.64 89.69 140.57 182.57 188.72 297.61-11.59-93.4-14.14-193.41 1.84-286.15 47.55 76.72 75.2 171.78 74 262 59.56-152.63 82.77-343.77 168.83-483.18-12.25 188.69-23.23 406.51-114.32 572.21 69.23-68.9 140-115.86 227.65-158.87-54.51 115.07-150.43 210-266.07 263.25-46.61 21.49-104.76-4.52-129.81-49.27Z" class="color1b8f93 svgShape"></path><path fill="#70bcc2" d="M3188 1655.17c22.95 5.4 48.07 16 71 21.38 33.71-97.22 106.3-176.78 187.09-240.84s171-114.69 255.72-173.82c45.36-31.91 89.46-66.74 128.39-106.06a1184.758 1184.758 0 0 1-54.55-87.64c41-13 82.58-6.74 122.39 5.66 6.42-10.1 12.83-20.2 18.5-30.55 23.57-42.49 39.63-90 45.6-138-29.46-4.23-59.07-8-89.19-9.35 15.35.65 51.2-29.41 65.37-36.93 7.42-3.93 16.18-9.36 24.93-14.79-2.36-33.86-10.56-66.9-25.61-97.75-92.76 10.59-179.14 64.72-254.09 120.43-46.94 35-89 75.49-128 119 10.8 47.79 21.77 99.26 26.28 100.76a740.63 740.63 0 0 0-91.62-21.28l-1.5 2A1853.69 1853.69 0 0 0 3188 1655.17Z" class="color70bcc2 svgShape"></path><path fill="#1b8f93" d="M3214.56 1677.11A2656.31 2656.31 0 0 1 3764 936.49c-259.19 169.06-460.06 444.39-549.44 740.62Z" class="color1b8f93 svgShape"></path><path fill="#70bcc2" d="M3204.92 1662.8c-23-5-50.09-7.52-73.08-12.51 9.73-73.73-23-150.56-69.6-220.59s-107.25-135-159.42-203.42c-27.82-36.76-53.31-74.9-72.26-114 29.37-10.82 57.81-22.55 85.61-35.35-31.73-23.27-71.92-34.5-113.06-41.26-1.62-8.72-3.25-17.45-4.09-26.06-3.75-35.46 1.37-71.32 15.85-103.85 28.4 8.12 56.73 16.61 84.55 26.76-14.15-5.21-34.14-37.32-43.86-47.26-5.08-5.2-10.76-11.83-16.43-18.47 16.15-20.51 37.24-38.37 63.61-52.34 79.53 40.67 135.28 106.48 180 169.11 28 39.29 49.31 80.28 66.53 122-29.55 26.22-60.77 54.69-65.46 54 30.93 5.41 61.69 12 91.68 20.12.18.61.35 1.21.53 1.81 48.81 160.21 58.65 324.02 28.9 481.31Z" class="color70bcc2 svgShape"></path><path fill="#1b8f93" d="M3171.85 1666.93c-10.57-225.08-75.39-452.58-190.58-668.85 164.48 201.67 232.28 449.08 190.58 668.85Z" class="color1b8f93 svgShape"></path><path fill="#1b8f93" d="M3121.09 740.56c14.13 28.47 10.5 75.21 14 105.94q6.51 56.68 10.94 113.48 8.83 113.58 9.31 227.27a3070.33 3070.33 0 0 1-32.11 456c-5.1 35-20.76 76.83-18.48 112 1.59 24.63 11.14 35.64 36.88 11.37 40.49-38.18 54-135.36 67.27-185.45a1186.94 1186.94 0 0 0 35-400.31 1215.35 1215.35 0 0 0-122.81-440.3Z" class="color1b8f93 svgShape"></path><path fill="#1b8f93" d="M3201.91 1730c49.49-271.21 80.88-385.76 77.06-661.42-1.61-49.08-13.89-164.57-32.3-169.65 13.39 274-18.74 555.19-61.82 826.12 9.56 2.32 15.29 14.6 17.06 4.95Z" class="color1b8f93 svgShape"></path><path fill="#f18a33" d="M1301.12 2261.37 1281.65 2110H884.82l-19.48 151.33c-3.18 24.75 9.54 48.43 29.45 54.52 94.59 36.21 282.13 36.25 376.89 0 19.9-6.05 32.63-29.73 29.44-54.48Z" class="colorf18a33 svgShape"></path><path fill="#231f20" d="M1301.56 2261.37 1282.08 2110h-24.73l15.88 123.41c3.19 24.75-9.54 48.43-29.44 54.53-94.32 36-280.5 36.33-375.12.54 4.78 13.21 14.3 23.63 26.55 27.38 94.59 36.19 282.13 36.25 376.89 0 19.89-6.06 32.63-29.74 29.45-54.49Z" class="color231f20 svgShape"></path><path fill="#cc5f29" d="M1317.91 1666.8c-17.36-43.13-24-94.52-22.29-138.25-122.22 39.23-314.18 35.84-424.78 0 1.7 43.28-4.79 93.64-21.38 135.86 126.7 49.86 331.78 46.45 468.45 2.39Z" class="colorcc5f29 svgShape"></path><path fill="#f18a33" d="M1301.61 1468.64a459.43 459.43 0 0 0-5.57 50.16c-.16 2.84-.29 5.68-.38 8.5 0 .42 0 .84-.05 1.25-122.1 39.23-314.28 35.84-424.77 0a452.89 452.89 0 0 0-6-59.91Z" class="colorf18a33 svgShape"></path><path fill="#864111" d="M960.42 1510.45c-2.12-6-9.17-7.31-12.88-2.32q-4.2 5.68-8.5 11.34c-5.69 7.52-11.46 14.83-17.38 22.13 17.32 3.82 36.61 7.07 54.14 9.55-5.38-13.58-10.48-27-15.38-40.7ZM895.92 1496.62q-4.53 5.4-9.16 10.76c-6.08 7-9.61 14.27-15.92 21.17 17.08 5 33.44 9.36 50.82 13-4.56-13.82-9-27.8-13-41.75-1.81-6.12-8.77-7.9-12.74-3.18Z" class="color864111 svgShape"></path><path fill="#864111" d="M1012.72 1517.26c-2.46-5.87-9.57-6.63-13-1.38q-3.88 6-7.85 11.92-7.85 11.84-16.09 23.35c17.48 2.53 37 4.44 54.59 5.58-6.12-13.16-11.99-26.12-17.65-39.47ZM1071.81 1533.17c-2.19-4.28-4.35-8.6-6.48-12.92-2.8-5.69-9.95-5.91-13.06-.41-7 12.45-14.33 24.86-21.88 36.89 18 1.3 36.76 1.75 54.81 1.72q-6.87-12.65-13.39-25.28ZM1105 1520c-2.13 4.33-4.29 8.64-6.48 13-4.31 8.51-8.75 17.13-13.31 25.5 18.28-.2 36.57-.8 54.81-2.36-7.6-12.12-14.93-24.23-22-36.65-3.14-5.49-10.25-5.17-13.02.51Z" class="color864111 svgShape"></path><path fill="#864111" d="M1248.7 1539.54c-8.92-11-17.54-21.86-26-33.15-3.71-5-10.74-3.6-12.87 2.44q-2.41 6.87-4.93 13.75c-3.31 9.06-6.73 18.22-10.3 27.19-8.29-11.55-16.29-23.1-24.08-35-3.41-5.18-10.49-4.37-13 1.49q-2.8 6.69-5.72 13.41c-3.81 8.84-7.75 17.68-11.83 26.39 18.24-1.5 36.46-3.46 54.58-6.32q27.22-4.17 54.15-10.2Z" class="color864111 svgShape"></path><path fill="#864111" d="M1274.29 1494.2c-4-4.65-11-2.83-12.71 3.36-1.35 4.71-2.72 9.43-4.14 14.09q-4.18 13.9-8.74 27.89 23.63-5.41 47-12.24c.09-2.82.22-5.66.38-8.5q-11.08-12.1-21.79-24.6Z" class="color864111 svgShape"></path><path fill="#f18a33" d="M1317.91 1666.8c-136.71 44.06-341.71 47.47-468.45-2.39-53 99.74-102.82 228.74-81.89 374.45 35.45-26.06 84.5-112.59 117.59-105.09 35.63 8.07 57 160.58 97.23 165.26 71.08-20 93.4-246.27 180.05-74.91 22.55 38.1 44.68 78.47 64.91 76.35 79.11-39.37 55.88-267.69 175.8-109.2 5.15-130.94-38.37-235.6-85.24-324.47Z" class="colorf18a33 svgShape"></path><path fill="#cc5f29" d="M1227.35 2100.47c-20.23 2.12-42.36-38.25-64.91-76.35-86.66-171.32-108.89 54.77-180.05 74.9-40.28-4.67-61.6-157.18-97.23-165.25-33.09-7.5-82.14 79-117.59 105.09 26.15 151.12 108.91 242 315.66 234.26 235.94 14 314.39-128.91 319.92-281.85-119.71-158.48-96.82 69.84-175.8 109.2Z" class="colorcc5f29 svgShape"></path><path fill="#fc974c" d="M864.85 1468.11c-9.74 53.31 446.47 53.31 436.76 0 9.74-53.28-446.46-53.28-436.76 0Z" class="colorfc974c svgShape"></path><path fill="#cc5f29" d="M891.46 1481.7c51.92 28.8 355.93 44.43 396.23-13.57 14.24-51.95-487.46-52.28-396.23 13.57Z" class="colorcc5f29 svgShape"></path><path fill="#1b8f93" d="M1062 1614.17c-52.81-48.19-98.93-103.58-131.73-167.12 53 27.69 91.53 61.78 130.82 106.82-19.39-40.72-35.67-85.82-42.42-130.42 33.22 27.71 60.17 66.76 73.25 108 4-78.42 11-156.15 29-232.57 23 87.67 25.6 175.69 9.22 264.82 21.07-41.8 46.14-73.85 79.52-106.67a265.27 265.27 0 0 1-81.21 160c-17.87 16.74-48.25 13.7-66.45-2.86Z" class="color1b8f93 svgShape"></path><path fill="#70bcc2" d="M1098.26 1595.84c11.25-1 24.27 0 35.53-1 .63-49.31 21.62-96.47 48.67-137.82s60.44-78 90-117.71c15.8-21.37 30.6-43.88 42.35-67.65-13.15-10-25.79-20.48-38-31.61 16.69-12.13 36.54-15.55 56.51-15.93 1.39-5.56 2.79-11.12 3.8-16.69a184.42 184.42 0 0 0-.13-69.66c-14 2.53-28.07 5.31-42 9.23 7.08-2 18.84-21.12 24.15-26.68 2.78-2.91 5.95-6.7 9.11-10.49a126.39 126.39 0 0 0-26.43-40.59c-40.59 18.84-71.69 56.52-97.36 93.18-16 23-29.08 47.8-40.2 73.46 12.14 20.11 24.91 41.85 27.18 41.85a354 354 0 0 0-44.88 4.18c-.13.37-.26.75-.38 1.13a888.41 888.41 0 0 0-47.92 312.8Z" class="color70bcc2 svgShape"></path><path fill="#1b8f93" d="M1113.64 1601.8a1273 1273 0 0 1 137.9-419.88c-92.3 116.08-142.03 271.65-137.9 419.88Z" class="color1b8f93 svgShape"></path><path fill="#70bcc2" d="M1107.09 1596.75c-11.21 1.21-23.91 4.16-35.13 5.36-6.72-35-33.23-65-65-89.8s-69.19-45.2-103.25-68.41c-18.21-12.51-35.57-26-50.09-40.92q17.58-14 33.58-29c-17.94-5.79-37.92-4.82-57.65-1.67-2.06-3.72-4.12-7.45-5.8-11.24a97.06 97.06 0 0 1-8.49-49.62c14.14-.6 28.31-1 42.5-.61-7.23-.23-21.17-11.81-27.09-14.87-3.1-1.59-6.69-3.75-10.27-5.91a94.56 94.56 0 0 1 21-33.42c42.31 6.47 77.62 28 107.44 49.69a292 292 0 0 1 48.7 45.43c-9.48 16.39-19.37 34.06-21.61 34.45 14.89-2.22 29.87-3.89 44.74-4.71l.51.74c46.43 65.47 75.66 138.48 85.91 214.51Z" class="color70bcc2 svgShape"></path><path fill="#1b8f93" d="M1092.68 1603.63c-38.83-100.76-102.68-194.43-187.79-275.37 105.29 66.85 173.53 169.12 187.79 275.37Z" class="color1b8f93 svgShape"></path><path fill="#1b8f93" d="M929.55 1190c10.73 10.81 16.14 32.62 22.39 46.06q11.53 24.8 22.13 50 21.2 50.31 38.59 102a1469.49 1469.49 0 0 1 54.34 212.16c3 16.69 2.18 38.08 8.53 53.74 4.45 11 10.46 14.53 18.5-.4 12.64-23.49 4.11-69.73 2.55-94.52A568.72 568.72 0 0 0 1052 1371.7 582.56 582.56 0 0 0 929.55 1190Z" class="color1b8f93 svgShape"></path><path fill="#ffbd00" d="M941.33 1177.86c-2.44 24.68 5 52.09 16 74.83 12 24.7 30.65 46.66 49.79 47.18 6.72.18 13.67-3 16.29-11.28 3-9.55-.6-22.14-4.7-32.66-7.43-19-16.66-36.8-24.52-55.55-6-14.25-9.59-28.19-13.64-43.24-2.27-8.43-4.37-17.9-11.19-20.47-14.73-5.57-26.43 25.02-28.03 41.19Z" class="colorffbd00 svgShape"></path><path fill="#1b8f93" d="M1115.88 1627.75a2040.89 2040.89 0 0 0-93.15-384.64c-9.14.47-12.9 3.14-22 3.61 47.52 122.59 85.31 251.63 106.68 381.36 4.66-.37 9.13 4.35 8.47-.33Z" class="color1b8f93 svgShape"></path><path fill="#eb6d59" d="M1006 1131.11c9.24 12.52 19.93 22.54 29 35.32 13.19 18.58 22.68 43.33 24.33 67.94s-5.14 48.52-18.65 59.9-33.58 8.58-47.68-8.47c-15.89-19.22-21.25-50.29-23-78s-1.39-56.36-10.34-82.8c-3.17-9.37-7.59-19.11-6.89-28.59.74-9.91 7.2-16 14.07-16.83a24.23 24.23 0 0 1 14.72 2.91c7.67 4.71 4.32 2 7.61 12 4.62 14.19 8.42 25.25 16.83 36.62Z" class="coloreb6d59 svgShape"></path><path fill="#ffbd00" d="M992.23 1163.68c5.91 22.63 15.57 43.92 20 66.92s1.62 50.09-11.94 57c22.33 21.12 51 13.73 63.86-13.4s10.5-69.71-3.47-103.33c-11.89-28.62-30.83-49.91-50.94-62.08-10.71-6.48-17.08-8.8-20.68 7.46-3.12 14.12-.81 32.19 3.17 47.43ZM1202.07 1021.3c6.75 31.41 2.74 68.37-6.22 100-9.74 34.4-27.43 66.58-49.17 71.16-7.62 1.6-16-1-20.38-11.27-5-11.74-2.89-28.77.09-43.21 5.4-26.14 13.07-51 19-76.82 4.52-19.65 6.4-38.42 8.59-58.7 1.23-11.37 2.11-24 9.46-28.76 15.93-10.17 34.2 27.01 38.63 47.6Z" class="colorffbd00 svgShape"></path><path fill="#1b8f93" d="M1075.56 1638.69a3040.59 3040.59 0 0 1 44.22-516.43c10.5-1.25 15.21 1.43 25.71.18-34.42 168.22-56.72 342.81-60.18 514.94-5.42.48-9.75 7.48-9.75 1.31Z" class="color1b8f93 svgShape"></path><path fill="#eb6d59" d="M1120.84 974c-8.52 18.09-19.09 33.22-27.38 51.6a202.08 202.08 0 0 0-16.79 92.82c2.08 32.15 13.68 61.7 30.91 73.67s39.67 4.25 53-20.67c15-28.09 16.13-69.36 13.67-105.58s-7.5-73.17-1.55-109.19c2.1-12.75 5.58-26.25 3.24-38.37-2.44-12.66-10.78-19.23-18.74-18.9a26.22 26.22 0 0 0-16.32 6.76c-8 7.65-4.61 3.46-6.74 17.1-3.03 19.27-5.57 34.35-13.3 50.76Z" class="coloreb6d59 svgShape"></path><path fill="#ffbd00" d="M1141.75 1013.32c-3.08 30.48-10.67 60-12 90.63s6.21 65.1 22.8 71.3c-22.06 31.86-55.91 28.13-75-4.33s-23.19-88-12.69-134.34c9-39.43 27.11-70.83 48.08-90.67 11.16-10.56 18-14.86 24.78 5.44 5.84 17.65 6.11 41.45 4.03 61.97Z" class="colorffbd00 svgShape"></path><path fill="none" d="M1319.55 1060.53c-41.18-45.63-139.37-232.68-246.12-170.85-124.2 71.94-258.07 399.17-297.29 407.93-14.78 3.31 122.47 179.51 115.32 184.08 51.47 32.82 332 32.84 383.52 0-8.98-5.76 128.11-328.58 44.57-421.16Z"></path><path fill="#231f20" d="M1403.15 1991.27c5.15-131-38.36-235.55-85.24-324.47-25-63.23-27.13-133.35-16.3-198.16h-47c5 7.53 8.84 13 8.84 13-28.54 37.89-25.84 120 .82 198.86 46.57 260.17-212 575.32-486.91 404.71 69.3 295.1 653.39 248.27 625.79-93.94Z" class="color231f20 svgShape"></path><path fill="#ffffff" d="M1007.07 1528.55a463.18 463.18 0 0 1-92.17-14c-38.75-8.35-34.31-23-34.28 21.26-.74 60.67-12.39 120.55-32.21 176.15 28.32-59 41.54-128.3 39.37-196.51 38.86 11.92 79.31 16.84 119.29 13.1ZM812.3 1773.23c-22.47 70.41-43.32 147.39-35 223.77-3.15-76.58 17.34-151.21 35-223.77Z" class="colorfff svgShape"></path><path fill="#864111" d="M995.59 1995.42c.38-15.22 0-30.46 1.7-45.59 1.61-14.55 5.14-31.55 16.06-39.78 13.47-10.15 35.7-1.9 36.61 19.48.44 10.25-7.83 20.41-16 21.19-5.58.54-10.64-4.48-12.39-10.73-2.3-8.24 4.13-12.69 10.2-10.83 2.5.76 3.81 3.56 3.11 6.53-1 4.15-5.15 2.61-7.28 1.15s-4.19 2.62-2 4.13c4.27 2.93 9.7 3.41 12.47-2.37a10.79 10.79 0 0 0-3.58-13.25c-4.6-3-11.61-1.5-15.07 3.22-3.13 4.28-2.56 10.37-.82 15.23 2 5.68 6.55 9.93 11.44 11.32 6.61 1.87 12.86-2.45 17.53-7.79 12.32-14.1 4.59-37.11-9.6-44-8.62-4.19-19.29-2.91-27.17 3-7.18 5.41-11.4 14.87-14 24.35-5.74 20.68-4.56 43.23-5.09 64.72-.08 3.09 3.84 3.08 3.92 0Z" class="color864111 svgShape"></path><path fill="#864111" d="M992.45 2000.21c.77-24.26-.3-50.26-8.42-72.77-6.66-18.43-24.07-28.36-39.84-22.33-12.5 4.77-19.71 19.36-20.91 34.67-1.09 13.71 5.3 25.7 17.36 24.53 9.4-.91 17.68-7.92 20-19.38 1.87-9.33-1.91-18.88-10.17-19.87s-20.17 8.68-18.16 20.17c1 5.66 7.52 7.79 11.44 6.37 4.93-1.78 6.15-9.29 2.64-13.43-1.82-2.15-4.6 1.24-2.78 3.38 4.37 5.15-7.12 8.7-7.63 1.52-.3-4.18 3.24-8.46 5.81-10.54 4.6-3.74 12.51-4.39 14.79 3 4.76 15.43-12.86 29.18-23.58 22.6-10.88-6.68-5-28.71.06-37.65 10.5-18.49 32.88-14.54 43.58 1.16 6.58 9.65 8.72 24.24 10.28 36.27a264.41 264.41 0 0 1 1.62 42.31c-.1 3.09 3.82 3.07 3.92 0Z" class="color864111 svgShape"></path><path fill="#864111" d="M993.17 1974c1.92-12.44 1.56-25.07 1.29-37.66a314.16 314.16 0 0 1 1.17-33.9c1.63-18.87 5.63-40.46 22.25-47.1 9.94-4 19 5.46 17.21 18.16-.75 5.24-3.81 9-8.2 9.44-3.35.35-8.15-.63-8.46-5.59a11.55 11.55 0 0 1 .49-3.42c.17-.75 1.48-2.62.5-2.88 2.6.68 1.59 2.47-.42 3.26-2.4.94-1.38 5.57 1 4.62s5.17-2.49 5.23-6.2c0-2.78-2.42-5.25-4.35-6.1-5.62-2.46-7.42 10.21-5.72 14.62 2.58 6.7 10.44 7.72 15.63 5.53 4.18-1.76 6.89-6.29 7.94-11.38 2.29-11.16-3.51-23.74-13-25.64-15.26-3-26.68 14.57-30.69 30.26-3.09 12-3.87 25.3-4.49 37.85-.91 18.28 1.6 36.71-1.2 54.86-.46 3 3.32 4.31 3.79 1.27Z" class="color864111 svgShape"></path><path fill="#864111" d="M991.67 1959c0-14.61 0-29.22-1-43.79-.79-12.2-1.82-25.57-5.77-36.94-5.72-16.45-20.49-34.61-35.58-22.23-9.4 7.72-15.47 24.78-5.89 35.48 6 6.69 17.64 9.3 23.57 1.11 5.11-7.07 3.1-20-5.16-21.28s-14.3 9.53-8.82 17.5a1.68 1.68 0 0 0 2.37.38c1-.85 1.46-2.08 2.36-2.88 2-1.8.07-5.95-2-4.13-.95.84-1.46 2.08-2.36 2.87l2.38.38c-4.08-5.94 4.22-12.11 8.27-8.23s1.24 12.62-2.82 14.68c-8.42 4.27-20.44-4.44-18.72-16.2 1.43-9.78 9.61-19.22 17.8-19.12 8.83.11 15.71 11.08 19.47 19.6 5.12 11.57 6.05 26.16 7 39 1 14.55 1 29.19 1 43.79 0 3.09 3.93 3.09 3.93 0Z" class="color864111 svgShape"></path><path fill="#864111" d="M990.81 1896.12c-2.59-9.33-5.69-18.41-7.95-27.88-1.93-8.13-5.62-22.17.3-29 7.42-8.6 10.73 11.9 11.33 17.45 1.69 15.66-2.42 32.2-5.89 47.11-.69 3 3.09 4.24 3.78 1.28 3.86-16.6 7.93-34.46 5.62-51.82-1-7.78-4.49-23.79-13.54-20.51-9.72 3.53-8.64 18.49-7.18 27.82 2 12.75 6.36 24.62 9.75 36.84.81 2.91 4.6 1.66 3.78-1.27ZM779.52 1998.3c1.48-15.12 2.23-30.34 5-45.22 2.66-14.32 7.41-30.88 18.89-37.9 14.15-8.64 35.69 2 35.05 23.37-.31 10.25-9.28 19.49-17.5 19.38-5.6-.07-10.28-5.62-11.56-12-1.7-8.45 5-12.19 10.93-9.68 2.44 1 3.55 4 2.63 6.84-1.28 4-5.31 2-7.34.35s-4.36 2.17-2.27 3.91c4 3.38 9.41 4.44 12.6-1a11 11 0 0 0-2.61-13.59c-4.36-3.44-11.45-2.75-15.24 1.58-3.43 3.92-3.31 10-1.93 15.08 1.62 5.88 5.81 10.6 10.58 12.51 6.45 2.58 13-1.05 18-5.86 13.3-12.71 7.27-36.46-6.37-44.87a26.32 26.32 0 0 0-27.28.08c-7.54 4.61-12.43 13.57-15.74 22.73-7.21 20-7.67 42.56-9.77 63.91-.3 3.07 3.61 3.49 3.91.43Z" class="color864111 svgShape"></path><path fill="#864111" d="M778.66 1976.72c2.81-12.18 3.38-24.8 4-37.37a309.36 309.36 0 0 1 3.62-33.64c3-18.62 8.54-39.7 25.57-44.51 10.2-2.88 18.57 7.5 15.83 20-1.13 5.14-4.45 8.54-8.85 8.52-3.37 0-8.08-1.51-8-6.49a11.46 11.46 0 0 1 .73-3.35c.23-.73 1.67-2.45.71-2.81 2.54 1 1.4 2.63-.66 3.2-2.46.68-1.77 5.4.7 4.71 2.63-.72 5.34-1.92 5.67-5.61.25-2.76-2-5.49-3.89-6.54-5.43-3.06-8.13 9.36-6.76 13.94 2.08 7 9.83 8.82 15.16 7.2 4.29-1.3 7.32-5.52 8.73-10.48 3.1-10.86-1.77-24-11.09-26.94-15-4.68-27.63 11.63-32.77 26.82-3.94 11.66-5.68 24.78-7.21 37.21-2.23 18.11-1.07 36.74-5.18 54.52-.68 3 3 4.64 3.68 1.67Z" class="color864111 svgShape"></path><path fill="#864111" d="M782 1898.87c-1.9-9.57-4.34-18.95-5.9-28.63-1.33-8.3-4-22.69 2.4-28.87 8-7.76 9.83 13 10 18.6.55 15.78-4.75 31.82-9.28 46.3-.91 2.89 2.77 4.55 3.67 1.67 5-16.11 10.4-33.46 9.36-51-.46-7.87-2.75-24.18-12-21.89-9.94 2.46-10 17.48-9.17 26.93 1.06 12.92 4.55 25.21 7 37.75.59 3 4.46 2.15 3.86-.86ZM1228.38 2000.94c.38-15.22 0-30.46 1.7-45.59 1.61-14.55 5.14-31.55 16.07-39.78 13.47-10.15 35.69-1.9 36.61 19.48.43 10.25-7.84 20.41-16 21.19-5.59.54-10.65-4.48-12.39-10.73-2.3-8.24 4.13-12.69 10.19-10.83 2.5.76 3.82 3.56 3.12 6.53-1 4.15-5.15 2.61-7.29 1.15s-4.18 2.62-2 4.13c4.27 2.93 9.7 3.41 12.48-2.37a10.79 10.79 0 0 0-3.59-13.25c-4.59-3-11.61-1.5-15.06 3.22-3.13 4.28-2.57 10.37-.83 15.23 2 5.68 6.56 9.93 11.44 11.32 6.62 1.87 12.87-2.45 17.53-7.79 12.32-14.1 4.6-37.11-9.6-44-8.61-4.19-19.29-2.91-27.17 3-7.18 5.41-11.4 14.87-14 24.35-5.73 20.68-4.55 43.23-5.09 64.72-.08 3.09 3.85 3.08 3.92 0Z" class="color864111 svgShape"></path><path fill="#864111" d="M1225.25 2005.73c.77-24.26-.31-50.26-8.43-72.77-6.65-18.43-24.07-28.36-39.84-22.33-12.49 4.77-19.7 19.36-20.91 34.67-1.08 13.71 5.3 25.7 17.36 24.53 9.41-.91 17.69-7.92 20-19.38 1.87-9.33-1.91-18.88-10.16-19.87-8.4-1-20.18 8.68-18.16 20.17 1 5.66 7.52 7.79 11.44 6.37 4.92-1.78 6.15-9.29 2.63-13.43-1.82-2.15-4.6 1.24-2.77 3.38 4.37 5.15-7.13 8.7-7.64 1.52-.3-4.18 3.24-8.46 5.81-10.54 4.61-3.74 12.52-4.39 14.79 3 4.76 15.43-12.86 29.18-23.58 22.6-10.88-6.68-5-28.71.06-37.65 10.51-18.49 32.88-14.54 43.58 1.16 6.58 9.65 8.72 24.24 10.28 36.27a264.41 264.41 0 0 1 1.62 42.31c-.1 3.09 3.83 3.07 3.93 0Z" class="color864111 svgShape"></path><path fill="#864111" d="M1226 1979.54c1.92-12.44 1.57-25.07 1.3-37.66a311.61 311.61 0 0 1 1.16-33.9c1.64-18.87 5.63-40.46 22.25-47.1 9.95-4 19 5.47 17.22 18.16-.76 5.24-3.82 9-8.21 9.44-3.35.35-8.15-.63-8.45-5.59a11.54 11.54 0 0 1 .48-3.42c.18-.75 1.48-2.62.51-2.88 2.59.68 1.58 2.47-.43 3.26-2.4.94-1.37 5.57 1 4.62 2.56-1 5.17-2.49 5.24-6.2 0-2.78-2.42-5.25-4.36-6.1-5.62-2.46-7.41 10.21-5.72 14.62 2.58 6.7 10.44 7.72 15.63 5.53 4.18-1.76 6.89-6.29 7.94-11.38 2.3-11.16-3.51-23.74-13-25.64-15.26-3-26.68 14.58-30.7 30.26-3.08 12-3.86 25.3-4.48 37.85-.91 18.28 1.6 36.71-1.2 54.86-.47 3 3.31 4.31 3.78 1.27Z" class="color864111 svgShape"></path><path fill="#864111" d="M1224.46 1964.54c0-14.61 0-29.22-1-43.79-.8-12.2-1.82-25.57-5.78-36.94-5.72-16.45-20.49-34.61-35.57-22.23-9.41 7.72-15.48 24.78-5.9 35.48 6 6.69 17.65 9.3 23.57 1.11 5.11-7.07 3.11-20-5.15-21.28s-14.31 9.53-8.83 17.5a1.69 1.69 0 0 0 2.38.38c1-.85 1.45-2.08 2.35-2.88 2-1.79.07-6-2-4.13-1 .84-1.46 2.08-2.35 2.87l2.37.38c-4.07-5.94 4.23-12.11 8.27-8.23s1.24 12.62-2.81 14.68c-8.43 4.27-20.44-4.44-18.72-16.2 1.43-9.78 9.61-19.22 17.8-19.12 8.83.11 15.7 11.08 19.46 19.6 5.12 11.57 6.06 26.16 7 39 1 14.55 1 29.19 1 43.79 0 3.09 3.92 3.09 3.92 0Z" class="color864111 svgShape"></path><path fill="#864111" d="M1223.61 1901.64c-2.59-9.33-5.7-18.41-7.95-27.88-1.94-8.13-5.63-22.17.29-29 7.42-8.6 10.73 11.9 11.33 17.45 1.69 15.66-2.42 32.2-5.89 47.11-.69 3 3.1 4.24 3.78 1.28 3.87-16.6 7.93-34.46 5.63-51.82-1-7.78-4.5-23.79-13.55-20.51-9.71 3.53-8.64 18.49-7.18 27.82 2 12.75 6.36 24.62 9.75 36.84.81 2.91 4.6 1.66 3.79-1.27ZM1402.69 1974.9c-1.19-24.23-4.36-50-14.26-71.4-8.11-17.54-26.24-25.32-41.45-17.42-12 6.25-18 21.64-18 37 0 13.78 7.35 24.94 19.26 22.33 9.28-2 17-10 18.32-21.7 1.12-9.51-3.42-18.56-11.71-18.55s-19.38 11.07-16.45 22.26c1.45 5.51 8.12 6.84 11.91 5 4.75-2.36 5.36-10 1.53-13.68-2-1.92-4.48 1.78-2.49 3.7 4.77 4.6-6.38 9.52-7.47 2.43-.64-4.13 2.54-8.81 4.93-11.19 4.28-4.28 12.1-5.87 15 1.19 6 14.78-10.45 30.59-21.64 25.33-11.37-5.34-7.31-28-3-37.47 9-19.67 31.54-18.43 43.46-4.09 7.32 8.81 10.63 23.07 13.16 34.86a262.61 262.61 0 0 1 5 41.9c.15 3.09 4 2.6 3.9-.47Z" class="color864111 svgShape"></path><path fill="#864111" d="M1398.58 1934c-1.18-14.53-2.4-29.07-4.52-43.45-1.78-12-3.88-25.23-8.73-36.06-7-15.68-23.19-32-37.2-17.84-8.73 8.81-13.4 26.52-3 36 6.51 5.94 18.31 7.13 23.54-1.73 4.52-7.66 1.48-20.24-6.85-20.55s-13.46 11.2-7.36 18.47a1.67 1.67 0 0 0 2.39.09c.88-1 1.28-2.24 2.11-3.14 1.87-2-.41-5.94-2.3-3.88-.88.95-1.28 2.24-2.11 3.14l2.39.09c-4.53-5.41 3.23-12.56 7.57-9.18s2.25 12.41-1.62 14.94c-8 5.27-20.7-2-19.94-13.86.64-9.9 8-20.29 16.17-21.17 8.8-1 16.52 9.13 21 17.15 6 10.9 8.13 25.31 10.08 38 2.2 14.36 3.34 28.93 4.52 43.46.25 3.07 4.15 2.6 3.9-.48Z" class="color864111 svgShape"></path><path fill="#ffcc73" d="M1360.26 502.31v124.78h-1.85V502.74ZM1398.32 659.76l-1.49-11.08h-76.38l-1.35 11.08-12.6 103h105.67Zm-65.19 34.88c-1.46 6.1-4.93 33.39-6.38 45a6 6 0 0 1-6 5.26h-1.7a6 6 0 0 1-5.95-6.93c1.92-12.37 5.72-37.52 6-43.34.32-7.8 1.18-13.64 4.49-16.31a29.55 29.55 0 0 0 5.74-6.67 20.23 20.23 0 0 0 3.88 6.67c2.55 2.68 1.79 8.52-.08 16.32Zm41.09 0c-1 4.75-.78 22.34-.46 35.39a14.52 14.52 0 1 1-29 0c.32-13 .54-30.64-.46-35.39-1.64-7.8-1.54-13.64 4.72-16.31a35.7 35.7 0 0 0 10.25-6.67 35.85 35.85 0 0 0 10.26 6.67c6.23 2.67 6.33 8.51 4.69 16.31Zm24.46 50.27H1397a6 6 0 0 1-6-5.26c-1.45-11.62-4.93-38.91-6.38-45-1.86-7.8-2.63-13.64-.07-16.31a20.11 20.11 0 0 0 3.87-6.67 29.86 29.86 0 0 0 5.74 6.67c3.31 2.67 4.18 8.51 4.5 16.31.24 5.82 4 31 5.95 43.34a6 6 0 0 1-5.93 6.92Z" class="colorffcc73 svgShape"></path><path fill="#ffcc73" d="m1378.44 659.76-.58-9.65-.09-1.43h-37l-.09 1.43-.58 9.65-6.25 103h50.89Zm-4.22 34.88c-1 4.75-.78 22.34-.46 35.39a14.52 14.52 0 1 1-29 0c.32-13 .54-30.64-.46-35.39-1.64-7.8-1.54-13.64 4.72-16.31a35.7 35.7 0 0 0 10.25-6.67 35.85 35.85 0 0 0 10.26 6.67c6.23 2.67 6.33 8.51 4.69 16.31Z" class="colorffcc73 svgShape"></path><circle cx="1359.34" cy="598.41" r="7.69" fill="#ffcc73" class="colorffcc73 svgShape"></circle><path fill="#ffcc73" d="M1359.34 582a4.62 4.62 0 1 0 4.61 4.62 4.62 4.62 0 0 0-4.61-4.62Z" class="colorffcc73 svgShape"></path><circle cx="1359.34" cy="797.27" r="7.69" fill="#ffcc73" class="colorffcc73 svgShape"></circle><path fill="#ffcc73" d="M1359.34 804.44a4.62 4.62 0 1 0 4.61 4.62 4.62 4.62 0 0 0-4.61-4.62ZM1311.07 753.08a17 17 0 0 0-3.19 9.67c0 15.41 23 27.91 51.46 27.91s51.45-12.5 51.45-27.91a17.07 17.07 0 0 0-3.18-9.67Z" class="colorffcc73 svgShape"></path><path fill="#ffcc73" d="M1335.5 753.08a30.12 30.12 0 0 0-1.6 9.67c0 15.41 11.39 27.91 25.44 27.91s25.44-12.5 25.44-27.91a30.12 30.12 0 0 0-1.61-9.67ZM1359.34 604.47c-19.33 0-35 25.19-35 40.52a22.35 22.35 0 0 0 .62 5.12h68.76a22.35 22.35 0 0 0 .62-5.12c0-15.33-15.67-40.52-35-40.52Z" class="colorffcc73 svgShape"></path><path fill="#ffcc73" d="M1359.34 604.47c-9.67 0-17.5 25.19-17.5 40.52a42.8 42.8 0 0 0 .31 5.12h34.38a45 45 0 0 0 .31-5.12c0-15.33-7.84-40.52-17.5-40.52Z" class="colorffcc73 svgShape"></path><path fill="#ffcc73" d="M1310.82 644.99h97.04v14.77h-97.04zM1299.58 749.93h119.51v14.77h-119.51zM3374.95 794.36h1.85V672.24l-1.85-.34v122.46zM3374.33 816H3337l-14 114h105.67l-15.3-114Zm-24.66 46c-1.45 6.1-4.93 33.39-6.38 45a6 6 0 0 1-6 5.26h-1.7a6 6 0 0 1-5.94-6.93c1.91-12.37 5.71-37.52 6-43.34.32-7.8 1.18-13.64 4.49-16.31a29.55 29.55 0 0 0 5.74-6.67 20.23 20.23 0 0 0 3.88 6.67c2.54 2.59 1.77 8.43-.09 16.23Zm41.09 0c-1 4.75-.78 22.34-.46 35.39a14.52 14.52 0 1 1-29 0c.32-13 .54-30.64-.46-35.39-1.64-7.8-1.54-13.64 4.72-16.31a35.7 35.7 0 0 0 10.25-6.67 35.85 35.85 0 0 0 10.19 6.58c6.3 2.67 6.4 8.51 4.76 16.31Zm30.4 43.34a6 6 0 0 1-5.94 6.93h-1.71a6 6 0 0 1-6-5.26c-1.45-11.62-4.93-38.91-6.38-45-1.86-7.8-2.63-13.64-.07-16.31a20.11 20.11 0 0 0 3.87-6.67 29.86 29.86 0 0 0 5.74 6.67c3.31 2.67 4.18 8.51 4.5 16.31.28 5.72 4.08 30.87 5.99 43.24Z" class="colorffcc73 svgShape"></path><path fill="#ffcc73" d="M3375.78 816h-18.52l-6.92 114h50.89l-6.92-114Zm15 46c-1 4.75-.78 22.34-.46 35.39a14.52 14.52 0 1 1-29 0c.32-13 .54-30.64-.46-35.39-1.64-7.8-1.54-13.64 4.72-16.31a35.7 35.7 0 0 0 10.25-6.67 35.85 35.85 0 0 0 10.17 6.58c6.3 2.67 6.4 8.51 4.76 16.31ZM3375.88 758a7.7 7.7 0 1 0 7.69 7.7 7.7 7.7 0 0 0-7.69-7.7Z" class="colorffcc73 svgShape"></path><path fill="#ffcc73" d="M3375.88 749.29a4.62 4.62 0 1 0 4.61 4.61 4.61 4.61 0 0 0-4.61-4.61ZM3375.88 956.85a7.7 7.7 0 1 0 7.69 7.7 7.7 7.7 0 0 0-7.69-7.7Z" class="colorffcc73 svgShape"></path><path fill="#ffcc73" d="M3375.88 971.71a4.62 4.62 0 1 0 4.61 4.62 4.62 4.62 0 0 0-4.61-4.62ZM3327.6 920.35a17.08 17.08 0 0 0-3.18 9.68c0 15.41 23 27.9 51.46 27.9s51.45-12.49 51.45-27.9a17.08 17.08 0 0 0-3.18-9.68Z" class="colorffcc73 svgShape"></path><path fill="#ffcc73" d="M3352 920.35a30.19 30.19 0 0 0-1.61 9.68c0 15.41 11.39 27.9 25.45 27.9s25.44-12.49 25.44-27.9a30.19 30.19 0 0 0-1.61-9.68ZM3375.88 771.74c-19.33 0-35 25.19-35 40.52a22.35 22.35 0 0 0 .62 5.12h68.75a22.35 22.35 0 0 0 .62-5.12c0-15.33-15.67-40.52-34.99-40.52Z" class="colorffcc73 svgShape"></path><path fill="#ffcc73" d="M3375.88 771.74c-9.67 0-17.5 25.19-17.5 40.52a42.8 42.8 0 0 0 .31 5.12h34.37a42.8 42.8 0 0 0 .31-5.12c0-15.33-7.83-40.52-17.49-40.52Z" class="colorffcc73 svgShape"></path><path fill="#ffcc73" d="M3327.35 812.26h97.04v14.77h-97.04zM3316.12 917.2h119.51v14.77h-119.51zM948.68 843.84h1.85V704.28l-1.85 1.58ZM948.06 865.42h-37.34l-14 114.08h105.67L987.1 865.42Zm-24.66 46c-1.45 6.1-4.93 33.39-6.38 45a6 6 0 0 1-6 5.26h-1.7a6 6 0 0 1-5.94-6.93c1.91-12.37 5.71-37.52 6-43.34.32-7.79 1.18-13.64 4.49-16.31a29.55 29.55 0 0 0 5.74-6.67 20.23 20.23 0 0 0 3.88 6.67c2.51 2.64 1.77 8.49-.09 16.28Zm41.09 0c-1 4.75-.78 22.35-.46 35.39a14.52 14.52 0 1 1-29 0c.32-13 .54-30.64-.46-35.39-1.64-7.79-1.54-13.64 4.72-16.31a35.7 35.7 0 0 0 10.25-6.67 35.85 35.85 0 0 0 10.26 6.67c6.2 2.63 6.33 8.48 4.69 16.27Zm30.4 43.34a6 6 0 0 1-5.94 6.93h-1.71a6 6 0 0 1-6-5.26c-1.45-11.62-4.93-38.91-6.38-45-1.86-7.79-2.63-13.64-.07-16.31a20.11 20.11 0 0 0 3.87-6.67 29.86 29.86 0 0 0 5.74 6.67c3.31 2.67 4.18 8.52 4.5 16.31.28 5.77 4.1 30.92 5.99 43.29Z" class="colorffcc73 svgShape"></path><path fill="#ffcc73" d="M949.51 865.42H931l-6.93 114.08H975l-7-114.08Zm15 46c-1 4.75-.78 22.35-.46 35.39a14.52 14.52 0 1 1-29 0c.32-13 .54-30.64-.46-35.39-1.64-7.79-1.54-13.64 4.72-16.31a35.7 35.7 0 0 0 10.25-6.67 35.85 35.85 0 0 0 10.26 6.67c6.18 2.63 6.31 8.48 4.67 16.27Z" class="colorffcc73 svgShape"></path><circle cx="949.61" cy="815.16" r="7.69" fill="#ffcc73" transform="rotate(-67.5 949.605 815.157)" class="colorffcc73 svgShape"></circle><path fill="#ffcc73" d="M949.61 798.76a4.62 4.62 0 1 0 4.61 4.61 4.61 4.61 0 0 0-4.61-4.61ZM949.61 1006.32a7.7 7.7 0 1 0 7.69 7.7 7.7 7.7 0 0 0-7.69-7.7Z" class="colorffcc73 svgShape"></path><path fill="#ffcc73" d="M949.61 1021.19a4.62 4.62 0 1 0 4.61 4.61 4.61 4.61 0 0 0-4.61-4.61ZM901.34 969.82a17 17 0 0 0-3.19 9.68c0 15.41 23 27.9 51.46 27.9s51.45-12.49 51.45-27.9a17.1 17.1 0 0 0-3.18-9.68Z" class="colorffcc73 svgShape"></path><path fill="#ffcc73" d="M925.77 969.82a30.19 30.19 0 0 0-1.61 9.68c0 15.41 11.4 27.9 25.45 27.9s25.44-12.49 25.44-27.9a30.19 30.19 0 0 0-1.61-9.68ZM949.61 821.21c-19.33 0-35 25.2-35 40.52a22.35 22.35 0 0 0 .62 5.12H984a21.81 21.81 0 0 0 .62-5.12c-.02-15.32-15.69-40.52-35.01-40.52Z" class="colorffcc73 svgShape"></path><path fill="#ffcc73" d="M949.61 821.21c-9.67 0-17.5 25.2-17.5 40.52a42.8 42.8 0 0 0 .31 5.12h34.37a42.8 42.8 0 0 0 .31-5.12c0-15.32-7.83-40.52-17.49-40.52Z" class="colorffcc73 svgShape"></path><path fill="#ffcc73" d="M901.08 861.73h97.04v14.77h-97.04zM889.85 966.68h119.51v14.77H889.85z" class="colorffcc73 svgShape"></path><path fill="#212255" d="M2813.52 994.59v-84.18c0-159.94-118.59-295.1-277.18-315.89a318.63 318.63 0 0 1-184.87-91.62L2278 428.79l-73.45 74.11a318.6 318.6 0 0 1-184.87 91.62c-158.59 20.79-277.17 156-277.17 315.89v84.18a154.08 154.08 0 0 0-154.08 154.08v1182.69H2967.6V1148.67a154.09 154.09 0 0 0-154.08-154.08Z" class="color212255 svgShape"></path><path fill="#141341" d="M1878.35 1472.91c-10.08 28.88-26.42 28.95-36.46 41.11s-15.1 29.47-10.44 46c44.86.22 76.74 7.36 76.74 7.36s16.76-25.18-1.18-48.28c-16.53-21.29-26.13-24.1-28.66-46.19Z" class="color141341 svgShape"></path><path fill="#141341" d="M1878.35 1472.91c-.18.5-.36 1-.53 1.44.84 14.37-.38 19.93 10.23 40.18a53.48 53.48 0 0 1 1.19 48.29s-23.6-5.28-58.74-6.9c.26 1.36.57 2.72 1 4.08 44.86.22 76.74 7.36 76.74 7.36s16.76-25.18-1.18-48.28c-16.58-21.27-26.18-24.08-28.71-46.17Z" class="color141341 svgShape"></path><path fill="#141341" d="M1843.18 1512.57c-1 4.24-1.2 9 2.2 12.83 8.17 9.23 17.48 6.42 23.56 1.5 10.88-8.79 11.88-32.41 9.41-54-9.66 27.68-25.07 28.91-35.17 39.67ZM1736.26 1995.37s34 45 96.64-18.73c0 0 49.95-355 50.33-408.22l-53.08 4.51Z" class="color141341 svgShape"></path><path fill="#141341" d="m1823.63 1991.63 72.22-28.49 10.91-380.17-23.53-14.55-59.6 423.21z" class="color141341 svgShape"></path><path fill="#141341" d="m1798 1652.91-3.38 17.67 83.15-5.04 41.21 22.59 1.14-14.99-41.6-25.72-80.52 5.49z" class="color141341 svgShape"></path><path fill="#141341" d="m1877.77 1665.54 41.21 22.59 1.14-14.99-41.6-25.72-.75 18.12zM1794.62 1670.58l12.27 7.55 61.39-3.54 35.36 17.13 15.34-3.59-41.21-22.59-83.15 5.04zM1823.12 1552.97l-2.67 13.98 65.8-3.99 32.61 17.88.9-11.86-32.92-20.36-63.72 4.35z" class="color141341 svgShape"></path><path fill="#141341" d="m1886.25 1562.96 32.61 17.88.9-11.86-32.92-20.36-.59 14.34z" class="color141341 svgShape"></path><path fill="#141341" d="m1820.45 1566.95 9.7 5.97 52.91-2.52 23.66 13.28 12.14-2.84-32.61-17.88-65.8 3.99zM1770.69 1780.15l-3.37 17.66 90.91-5.22 57.35 31.35 1.13-14.98-57.73-34.5-88.29 5.69z" class="color141341 svgShape"></path><path fill="#141341" d="m1858.23 1792.59 57.35 31.35 1.13-14.98-57.73-34.5-.75 18.13zM1767.32 1797.81l12.26 7.56 69.16-3.74 51.5 25.91 15.34-3.6-57.35-31.35-90.91 5.22zM1832 1707.39l-.58-1.87-1 1.7c-3.21 5.69-6.75 9-10.18 12.12a40.56 40.56 0 0 0-6.82 7.43c-6.56 9.91-7.35 30.29-7.38 31.15v.87l32.57.32.19-.59c.38-1.16 9.3-28.61 2.07-36.85-6.79-7.75-8.87-14.22-8.87-14.28Zm5.39 50-29.58-.29c.23-4 1.5-21 7.06-29.41a39.58 39.58 0 0 1 6.56-7.13 50.4 50.4 0 0 0 9.6-11 50.56 50.56 0 0 0 8.58 13.21c6.05 6.92-.97 30.6-2.23 34.64Z" class="color141341 svgShape"></path><path fill="#141341" d="M1823.42 1724.43c-8.11 6.91-9.48 25.78-9.69 33.57h1.68c.21-7.57 1.51-25.87 9.1-32.33a39 39 0 0 0 9.83-12.54l-1.54-.69a38.18 38.18 0 0 1-9.38 11.99ZM1807.64 1841.16l-.82-2.63-1.35 2.4c-4.54 8-9.53 12.64-14.36 17.1-3.55 3.27-6.9 6.36-9.63 10.49-9.26 14-10.38 42.75-10.43 44v1.22l46 .46.27-.83c.54-1.64 13.13-40.38 2.93-52-9.63-10.96-12.58-20.12-12.61-20.21Zm7.61 70.6-41.76-.41c.33-5.68 2.13-29.67 10-41.51 2.58-3.9 5.83-6.89 9.26-10.06 4.32-4 9.16-8.45 13.55-15.54a71.59 71.59 0 0 0 12.12 18.65c8.52 9.75-1.42 43.17-3.17 48.87Z" class="color141341 svgShape"></path><path fill="#141341" d="M1795.54 1865.22c-11.44 9.74-13.37 36.38-13.68 47.38l2.39.07c.29-10.69 2.13-36.52 12.84-45.64a55.42 55.42 0 0 0 13.88-17.7l-2.18-1a53.72 53.72 0 0 1-13.25 16.89ZM1851.1 1589.93l-.54-1.75-.91 1.6a44 44 0 0 1-9.59 11.42 38.62 38.62 0 0 0-6.43 7c-6.18 9.34-6.93 28.55-7 29.36v.81l30.69.31.18-.55c.36-1.1 8.77-27 2-34.74-6.41-7.28-8.38-13.39-8.4-13.46Zm5.09 47.15-27.89-.28c.22-3.79 1.43-19.81 6.66-27.72a37.07 37.07 0 0 1 6.18-6.71 47.69 47.69 0 0 0 9-10.38 47.85 47.85 0 0 0 8.09 12.45c5.77 6.56-.86 28.83-2.04 32.64Z" class="color141341 svgShape"></path><path fill="#141341" d="M1843 1606c-7.63 6.5-8.93 24.29-9.13 31.64h1.59c.2-7.13 1.43-24.38 8.58-30.47a36.75 36.75 0 0 0 9.26-11.82l-1.45-.64A36 36 0 0 1 1843 1606ZM1885.33 1730.1a72.62 72.62 0 0 1-3.09-15.67l-.27-3.27-1.34 3a42.41 42.41 0 0 1-8.28 11.35c-6 5.82-7 36.2-7.1 37.49v.51l19.28 11 .23-1.14c.17-.87 4.29-21.49 2.79-33.53a60.13 60.13 0 0 0-2.22-9.74Zm-2 41.72-16.35-9.29c.34-9 2.11-31.46 6.57-35.82a45 45 0 0 0 7.3-9.36 78.81 78.81 0 0 0 2.88 13.22 58.37 58.37 0 0 1 2.15 9.42c1.25 10.17-1.71 27.27-2.57 31.83Z" class="color141341 svgShape"></path><path fill="#141341" d="M1879.71 1718.89h-1.69a62.15 62.15 0 0 0 2.76 15.75c2.92 9.15-.48 28.08-2.08 35.79l1.66.35c1.62-7.85 5.07-27.12 2-36.65a61.86 61.86 0 0 1-2.65-15.24ZM1873.55 1869.85a87.63 87.63 0 0 1-4.76-20.9l-.31-3.16-1.3 2.9a66.45 66.45 0 0 1-12 16.92c-8.51 8.77-9.64 50.2-9.68 52v.58l27.66 11.57.2-1c.25-1.22 6-29.93 3.58-46a72.29 72.29 0 0 0-3.39-12.91Zm-1.68 57.51-24.68-10.36c.17-5.12 1.66-42.49 9.19-50.26a70.82 70.82 0 0 0 11-14.86 92.91 92.91 0 0 0 4.52 18.46 71.48 71.48 0 0 1 3.29 12.52c2.13 14.21-2.31 39.14-3.32 44.5Z" class="color141341 svgShape"></path><path fill="#141341" d="m1865.16 1855.42-1.69.07a77.5 77.5 0 0 0 4.27 21c4.4 12-.29 38.44-2.51 49.22l1.65.34c2.25-10.92 7-37.69 2.44-50.14a75.27 75.27 0 0 1-4.16-20.49ZM1898.38 1612.36a64.61 64.61 0 0 1-3.29-14.39l-.32-3-1.28 2.73a35.29 35.29 0 0 1-7.84 10c-5.75 5.12-6.27 32.84-6.29 34v.51l19 10.77.23-1.15c.15-.79 3.8-19.44 2.12-30.51a53.56 53.56 0 0 0-2.33-8.96Zm-1.23 38-16.09-9.12c.17-8.18 1.49-28.51 5.72-32.27a38.51 38.51 0 0 0 7-8.23 69.8 69.8 0 0 0 3 12.18 53 53 0 0 1 2.26 8.67c1.4 9.19-1.12 24.41-1.89 28.73Z" class="color141341 svgShape"></path><path fill="#141341" d="m1892.7 1601.94-1.68.08a55.18 55.18 0 0 0 3 14.5c3 8.44 0 25.54-1.39 32.5l1.65.34c1.45-7.1 4.47-24.57 1.33-33.41a55.19 55.19 0 0 1-2.91-14.01ZM2213.79 1297.69c-55.35 156.6-151.12 152.09-208.44 216.29s-84.71 158.37-55.3 251c262.9 14.81 450.65 63.9 450.65 63.9s100.8-153.31-7.31-286.45c-99.53-122.53-161.96-122.01-179.6-244.74Z" class="color141341 svgShape"></path><path fill="#141341" d="M2213.79 1297.69c-4.67 102.69 21.79 138 73.1 228.64 54.74 96.65-.06 223.07-16.08 275.63 81.7 14.35 129.89 27 129.89 27s100.8-153.31-7.31-286.45c-99.53-122.61-161.96-122.09-179.6-244.82Z" class="color141341 svgShape"></path><path fill="#141341" d="M2005.35 1514a266.45 266.45 0 0 0-59.66 112.84c28.61 71.72 137 9 155.74-41 20.26-54.17 31.75-107.1 70.78-160.9 30-41.32 39.42-98.74 42.19-123.17-.2-1.33-.41-2.66-.61-4-55.35 156.52-151.12 152.01-208.44 216.23ZM2222.18 1107.92s-13 125.59-14.95 137.42 9.55 32.3 9.55 32.3 11.9-19.14 11-36-5.6-133.72-5.6-133.72Z" class="color141341 svgShape"></path><path fill="#141341" d="M2220 1262.91a15.07 15.07 0 1 0 11.53 17.92 15.08 15.08 0 0 0-11.53-17.92Z" class="color141341 svgShape"></path><path fill="#141341" d="M2219.28 1287.45a20.71 20.71 0 1 0 15.85 24.63 20.71 20.71 0 0 0-15.85-24.63ZM2185.12 1638l-517.44 199.44-4.37 28.38 520.23-153.33 253.25 70.01-10.24-79.56-241.43-64.94z" class="color141341 svgShape"></path><path fill="#141341" d="m2185.12 1638-1.58 74.49 253.25 70.01-10.24-79.56-241.43-64.94z" class="color141341 svgShape"></path><path fill="#141341" d="m1663.31 1865.82 94.81 31.85 690.97-53.17 25.67-74.44-292.13-75.02-519.32 170.78z" class="color141341 svgShape"></path><path fill="#141341" d="M2165.51 1740.63 2139.22 2127l325.21 12.42-56.18-345.79-242.74-53z" class="color141341 svgShape"></path><path fill="#141341" d="m1691.43 2072.86 447.79 54.14 26.29-386.37-430.92 130.46-43.16 201.77z" class="color141341 svgShape"></path><path fill="#141341" d="M2031 1830.74c-12.56 48.53-39.25 50.85-54 72.07s-20.69 50.17-10.86 76.51l-8.82 114.62 127 2.21 8.23-115.14s24-43.39-8.44-78.71c-29.89-32.52-45.96-35.86-53.11-71.56Z" class="color141341 svgShape"></path><path fill="#141341" d="M2080.06 1898c-11.91 13.48-25.25 19.42-34.2 32.28-14.77 21.22-20.69 50.18-10.86 76.51l-6.8 88.37 56.09 1 8.23-115.14s24-43.39-8.44-78.71c-1.37-1.51-2.71-2.92-4.02-4.31ZM1977 1902.81c-14.77 21.22-20.69 50.17-10.86 76.51l-8.82 114.62 20.15.35 8.61-111.79c-9.84-26.34-3.92-55.29 10.85-76.51 11.75-16.87 31-21.82 44.73-47.5-4.72-7.11-8.21-15.53-10.64-27.75-12.54 48.53-39.23 50.85-54.02 72.07ZM1806.56 1880.44c-10.74 41.45-33.54 43.44-46.16 61.56s-17.67 42.87-9.27 65.37l-7.54 97.92 108.46 1.89 7-98.36s20.49-37.08-7.22-67.25c-25.47-27.78-39.2-30.64-45.27-61.13Z" class="color141341 svgShape"></path><path fill="#141341" d="M1817.66 1975.55c-12.62 18.12-17.68 42.86-9.27 65.36l-5 65.42 48.7.85 7-98.37s20.49-37.07-7.21-67.24c-11.26 16.43-25.29 21.14-34.22 33.98ZM1760.4 1942c-12.62 18.13-17.67 42.87-9.27 65.37l-7.54 97.92 17.22.3 7.35-95.51c-8.4-22.49-3.35-47.23 9.27-65.36 10-14.41 26.49-18.64 38.22-40.58-4-6.07-7-13.27-9.09-23.7-10.74 41.45-33.56 43.44-46.16 61.56ZM2074.85 1866.35c-18.34-17.87-37.3-36.35-40.95-61l-1.72-11.69-3.47 11.29c-11.58 37.66-26.79 51.24-41.49 64.37-3.37 3-6.86 6.12-10.21 9.45-11.12 11-45.55 50.93-23.83 102.47-8.93 70.83-15 114.31-15.08 114.74l5.29.75c.06-.44 6.2-44.25 15.18-115.54l.1-.72-.29-.67c-21-48.76 11.84-86.75 22.39-97.23 3.26-3.24 6.54-6.16 10-9.26 14-12.5 28.43-25.39 40-57.64 6.62 21.64 23.73 38.31 40.34 54.49 17.91 17.46 34.82 33.94 38.79 55.66 8.12 44.55-5.85 60.19-6 60.34l-.67.72-4.79 117.41 5.34.22 4.72-115.51c3-3.93 14.34-22.06 6.66-64.12-4.27-23.41-22.59-41.27-40.31-58.53Z" class="color141341 svgShape"></path><path fill="#141341" d="M1845.38 1913.64c-15.68-15.28-31.89-31.08-35-52.15l-1.48-10-3 9.65c-9.9 32.2-22.9 43.81-35.48 55-2.88 2.57-5.86 5.23-8.73 8.08-9.5 9.44-39 43.55-20.37 87.62-7.64 60.56-12.85 97.75-12.9 98.12l4.52.63c.06-.37 5.31-37.83 13-98.79l.08-.62-.25-.57c-17.94-41.69 10.12-74.18 19.15-83.14 2.79-2.77 5.59-5.27 8.55-7.92 12-10.69 24.32-21.71 34.21-49.28 5.66 18.5 20.29 32.75 34.5 46.59 15.31 14.92 29.77 29 33.16 47.59 7 38.09-5 51.47-5.12 51.6l-.58.62v.84l-4.06 99.56 4.56.18 4-98.79c2.57-3.36 12.26-18.87 5.7-54.83-3.63-19.96-19.3-35.22-34.46-49.99ZM2271.89 1838.78s-12.09 19.16-40.78 40-23.73 111.39-23.73 111.39l97.53 15s15.51-64.29 3.54-97.69c-8.18-22.78-27.35-34.96-36.56-68.7Z" class="color141341 svgShape"></path><path fill="#141341" d="M2252.59 1860.92a209.81 209.81 0 0 1-21.48 17.83c-28.68 20.8-23.73 111.39-23.73 111.39l73.36 11.32c3.67-18.2 11.23-63.52 1.83-89.76-6.57-18.24-20.1-29.7-29.98-50.78ZM2491.09 1124.54c-14.87 57.42-46.44 60.17-63.92 85.27s-24.48 59.37-12.84 90.53c86.74-6.71 149.5 2 149.5 2s28.38-51.34-10-93.13c-35.31-38.47-54.33-42.43-62.74-84.67Z" class="color141341 svgShape"></path><path fill="#141341" d="M2491.09 1124.54c-.25 1-.53 1.92-.79 2.87 3.92 27.63 2.44 38.57 26.18 76 30.37 47.92 10 93.14 10 93.14s-46.45-6.44-114.63-4c.71 2.6 1.53 5.18 2.49 7.74 86.74-6.71 149.5 2 149.5 2s28.38-51.34-10-93.13c-35.32-38.42-54.34-42.38-62.75-84.62Z" class="color141341 svgShape"></path><path fill="#141341" d="M2429.43 1206.8c-1.29 8.35-.87 17.55 6.31 24.44 17.25 16.55 34.81 9.63 45.78-.85 19.62-18.72 17.8-64.53 9.57-105.85-14.25 55.03-43.83 59.86-61.66 82.26ZM2413.88 1325.53 2299.7 2157s72.9 81.5 183.81-51.59c0 0 40-694.14 32.24-797.05Z" class="color141341 svgShape"></path><path fill="#141341" d="m2515.75 1308.37-47.77 827.5 135.05-66.57-39.48-736.55-47.8-24.38z" class="color141341 svgShape"></path><path fill="#141341" d="m2519.23 1461.81-154.77 23.45-3.7 34.68 159.9-22.99 83.27 37.1-.2-29.14-84.5-43.1z" class="color141341 svgShape"></path><path fill="#141341" d="m2519.23 1461.81 1.43 35.14 83.27 37.1-.2-29.14-84.5-43.1z" class="color141341 svgShape"></path><path fill="#141341" d="m2360.76 1519.94 24.9 12.65 118.1-16.63 71.08 27.48 29.09-9.39-83.27-37.1-159.9 22.99zM2519.58 1269.52l-122.48 18.56-2.93 27.44 126.54-18.18 65.89 29.35-.15-23.06-66.87-34.11z" class="color141341 svgShape"></path><path fill="#141341" d="m2519.58 1269.52 1.13 27.82 65.89 29.35-.15-23.06-66.87-34.11zM2394.17 1315.52l19.71 10.01 101.86-13.31 47.85 21.91 23.01-7.44-65.89-29.35-126.54 18.18zM2501.71 1710.48l-169.75 25.06-3.71 34.67 174.89-24.58 115.85 51.48-.2-29.14-117.08-57.49z" class="color141341 svgShape"></path><path fill="#141341" d="m2501.71 1710.48 1.43 35.15 115.85 51.48-.2-29.14-117.08-57.49z" class="color141341 svgShape"></path><path fill="#141341" d="m2328.25 1770.21 24.91 12.65 133.08-18.23 103.66 41.88 29.09-9.4-115.85-51.48-174.89 24.58zM2438.85 1585.13l-1.42-3.51-1.59 3.44c-5.3 11.51-11.62 18.39-17.73 25-4.49 4.88-8.73 9.49-12 15.46-11.1 20.19-9.39 59.71-9.31 61.38l.08 1.68 63-4.56.28-1.17c.55-2.31 13.41-56.78-1.86-71.57-14.37-13.86-19.4-26.03-19.45-26.15Zm18.39 95.83-57.23 4.15c-.2-7.81-.44-40.87 9-58 3.1-5.62 7.2-10.08 11.55-14.81 5.46-5.94 11.58-12.61 16.8-22.81 2.45 4.66 8.1 13.91 18.7 24.17 12.76 12.41 2.94 59.34 1.18 67.34Z" class="color141341 svgShape"></path><path fill="#141341" d="M2425 1619.45c-14.57 14.63-14.21 51.33-13.38 66.43l3.27-.18c-.8-14.66-1.2-50.24 12.43-63.94a75.74 75.74 0 0 0 17-25.81l-3.09-1.08a73.89 73.89 0 0 1-16.23 24.58ZM2413.1 1847.57l-2-4.94-2.23 4.84c-7.49 16.25-16.41 26-25 35.34-6.33 6.89-12.3 13.4-16.94 21.82-15.66 28.49-13.25 84.27-13.14 86.63l.11 2.37 88.93-6.44.4-1.64c.78-3.26 18.93-80.14-2.63-101-20.27-19.55-27.43-36.81-27.5-36.98Zm26 135.26-80.78 5.85c-.28-11-.61-57.69 12.66-81.82 4.36-7.94 10.15-14.24 16.29-20.92 7.7-8.38 16.35-17.79 23.72-32.19 3.45 6.57 11.42 19.64 26.38 34.11 18.03 17.49 4.21 83.66 1.69 94.97Z" class="color141341 svgShape"></path><path fill="#141341" d="M2393.54 1896c-20.56 20.65-20.05 72.45-18.88 93.76l4.61-.26c-1.13-20.69-1.7-70.9 17.55-90.24 17.21-17.3 23.74-35.66 24-36.43l-4.37-1.52a104.24 104.24 0 0 1-22.91 34.69ZM2457.08 1355.07l-1.34-3.3-1.49 3.23c-5 10.85-10.95 17.33-16.71 23.6-4.23 4.6-8.22 8.94-11.32 14.56-10.46 19-8.85 56.28-8.77 57.85l.07 1.58 59.38-4.3.27-1.09c.52-2.18 12.64-53.51-1.76-67.45-13.5-13.06-18.28-24.57-18.33-24.68Zm17.34 90.31-53.94 3.91c-.19-7.37-.41-38.52 8.45-54.64 2.91-5.3 6.78-9.51 10.88-14 5.14-5.59 10.92-11.87 15.84-21.49a92.22 92.22 0 0 0 17.61 22.78c12.07 11.71 2.84 55.89 1.16 63.44Z" class="color141341 svgShape"></path><path fill="#141341" d="M2444 1387.41c-13.72 13.79-13.39 48.38-12.61 62.6l3.09-.16c-.76-13.82-1.14-47.35 11.71-60.26a71.38 71.38 0 0 0 16-24.33l-2.91-1a69.82 69.82 0 0 1-15.28 23.15ZM2545.57 1620.54c-3.1-8.19-6.31-16.66-8.48-29.8l-1-6.27-2.13 6a81.56 81.56 0 0 1-14.19 23.25c-10.6 12.21-7.86 71.09-7.74 73.59l.05 1 39 18.1.27-2.24c.2-1.72 4.87-42.22.05-65.25a117.39 117.39 0 0 0-5.83-18.38Zm2.74 81-33.08-15.35c-.78-17.41-.95-61.16 7-70.31a88 88 0 0 0 12.63-19.23 151.24 151.24 0 0 0 7.66 25.08 115.2 115.2 0 0 1 5.67 17.87c4.06 19.4 1.05 52.94.12 61.91Z" class="color141341 svgShape"></path><path fill="#141341" d="m2532.91 1599.77-3.26.35a122 122 0 0 0 7.86 30c7.09 17.22 3.54 54.35 1.68 69.51l3.25.4c1.89-15.42 5.49-53.22-1.9-71.16a119.81 119.81 0 0 1-7.63-29.1ZM2545.07 1892.53c-4.57-10.76-9.29-21.89-12.54-39.63l-1.1-6.06-2 5.81a129.17 129.17 0 0 1-20.53 34.61c-15 18.31-10.62 98.57-10.42 102l.06 1.12 55.3 18 .23-2c.28-2.39 6.72-58.78-.42-89.57-2.15-9.13-5.27-16.48-8.58-24.28ZM2551 2004l-49.34-16c-.49-9.9-3.57-82.37 9.74-98.59a137.82 137.82 0 0 0 19-30.5c3.26 15.15 7.71 25.62 11.67 35 3.25 7.66 6.32 14.89 8.36 23.69 6.25 26.95 1.64 75.91.57 86.4Z" class="color141341 svgShape"></path><path fill="#141341" d="m2526.54 1866-3.25.39a150.65 150.65 0 0 0 11.59 39.83c10.44 22.59 5.57 74.34 3 95.54l3.25.4c2.62-21.48 7.52-74-3.27-97.31a147.27 147.27 0 0 1-11.32-38.85ZM2552 1390.89c-3.14-7.53-6.38-15.32-8.66-27.3l-1.09-5.75-2.05 5.48a68.31 68.31 0 0 1-13.56 20.52c-10.3 10.8-6.88 64.45-6.73 66.73l.06 1 38.45 17.81.26-2.26c.17-1.55 4.25-38.2-.76-59.31a106 106 0 0 0-5.92-16.92Zm3.65 73.56-32.54-15.06c-1-15.84-1.67-55.35 5.91-63.29a74.16 74.16 0 0 0 12.13-17 136.43 136.43 0 0 0 7.83 23.07 104.26 104.26 0 0 1 5.76 16.39c4.26 17.6 1.77 47.44.95 55.89Z" class="color141341 svgShape"></path><path fill="#141341" d="m2539.4 1371.65-3.25.42a108 108 0 0 0 8.08 27.55c7.13 15.83 4.11 49.36 2.48 63l3.26.39c1.66-14 4.72-48.2-2.76-64.78a106.06 106.06 0 0 1-7.81-26.58Z" class="color141341 svgShape"></path><path fill="#c13f26" d="M2813.52 994.59v-84.18c0-159.94-118.59-295.1-277.18-315.89a318.63 318.63 0 0 1-184.87-91.62L2278 428.79l-73.45 74.11a318.6 318.6 0 0 1-184.87 91.62c-158.59 20.79-277.17 156-277.17 315.89v84.18a154.08 154.08 0 0 0-154.08 154.08v1182.69H2967.6V1148.67a154.09 154.09 0 0 0-154.08-154.08Zm44.31 1227H1698.22V1148.67a44.37 44.37 0 0 1 44.32-44.31h109.76V910.41c0-104.46 78.11-193.47 181.68-207.06A430.59 430.59 0 0 0 2278 584.66a430.5 430.5 0 0 0 244 118.69c103.58 13.59 181.68 102.6 181.68 207.06v193.95h109.77a44.36 44.36 0 0 1 44.31 44.31Z" class="colorc13f26 svgShape"></path><path fill="#ff9d3b" d="M2861.94 952v-41.59c0-183.59-137.27-340-319.3-363.9a271.52 271.52 0 0 1-156.77-77.7L2278 360l-107.81 108.81a271.55 271.55 0 0 1-156.77 77.7c-182 23.86-319.31 180.31-319.31 363.9V952c-88.36 21.78-154.11 101.69-154.11 196.67v1231.12h1476V1148.67c0-94.98-65.7-174.89-154.06-196.67Zm57.23 1330.91H1636.88V1148.67A105.77 105.77 0 0 1 1742.54 1043H1791V910.41c0-135.14 101-250.3 235-267.87A368.84 368.84 0 0 0 2239 537l39-39.41 39 39.39a368.87 368.87 0 0 0 213 105.56c134 17.57 235 132.73 235 267.87V1043h48.43a105.77 105.77 0 0 1 105.65 105.65Z" class="colorff9d3b svgShape"></path><path fill="#ffd786" d="M2459.86 982.55a121.72 121.72 0 1 1-120.48-197 159.67 159.67 0 1 0 148.88 125.83 121 121 0 0 1-28.4 71.17Z" class="colorffd786 svgShape"></path><path fill="#ffbd00" d="M2462.85 997.5c-55.46 64.63-154.6 71.77-197 19.65-55.24-67.81-35.27-140.4 8.13-191.75a121 121 0 0 1 65.45-39.86 159.67 159.67 0 1 0 148.88 125.83c-1.57 25.3-7.69 65.42-25.46 86.13Z" class="colorffbd00 svgShape"></path><path fill="#f8cb6e" d="m2111.7 913.63-1.78-12.04-6.38 10.28-12.46-2.44 8.42 9.28-5.93 10.53 11.58-4.55 8.8 8.94-1.26-12.08 11.37-5-12.36-2.92zM2325.82 1211.58l-1.77-12.04-6.39 10.28-12.46-2.44 8.42 9.28-5.93 10.53 11.59-4.55 8.8 8.95-1.26-12.09 11.36-5-12.36-2.92zM2028.84 824.19l-1.78-12.04-6.38 10.28-12.46-2.43 8.42 9.27-5.93 10.53 11.58-4.55 8.8 8.95-1.26-12.09 11.37-5-12.36-2.92zM1969.2 951.45l-6.36 2.88-4.81-4.64.68 6.61-6.23 3.13 6.77 1.2.96 6.57 3.5-5.87 6.83.93-4.6-4.82 3.26-5.99zM2783.78 1173.3l-6.35 2.88-4.81-4.64.68 6.61-6.24 3.13 6.77 1.2.96 6.57 3.51-5.87 6.83.94-4.61-4.83 3.26-5.99zM2181.8 745.79l-6.35 2.88-4.81-4.63.68 6.61-6.24 3.12 6.78 1.2.96 6.57 3.5-5.87 6.83.94-4.6-4.83 3.25-5.99zM2122.73 1099.03l-6.35 2.88-4.81-4.63.67 6.6-6.23 3.13 6.77 1.2.96 6.57 3.51-5.87 6.82.94-4.6-4.83 3.26-5.99zM1831.93 1255.35l-9.84-13.59-1.25 16.64-16.81 4.97 16.22 5.97-.54 16.67 11.27-12.96 16.47 5.34-9.25-13.98 10.72-13.37-16.99 4.31zM2040 1374.71l-8.04 8.86-11.69-4.59 6.54 10.52-7.65 9.19 12.08-2.36 6.97 10.27.93-11.98 11.95-2.85-11.51-5.04.42-12.02zM2005.96 1199.65l-6.22 6.87-9.06-3.56 5.07 8.15-5.92 7.12 9.35-1.83 5.4 7.95.72-9.28 9.25-2.2-8.91-3.9.32-9.32zM2435.61 1120.89l-9.85-13.6-1.25 16.65-16.8 4.96 16.22 5.98-.55 16.66 11.28-12.95 16.47 5.33-9.25-13.98 10.71-13.37-16.98 4.32zM2601.24 1253.76l-8.04 8.86-11.69-4.59 6.54 10.52-7.64 9.19 12.08-2.36 6.97 10.27.92-11.98 11.95-2.84-11.51-5.04.42-12.03zM2609.64 1065.19l-6.23 6.87-9.05-3.56 5.07 8.15-5.93 7.11 9.36-1.83 5.4 7.96.71-9.28 9.26-2.2-8.92-3.91.33-9.31zM2390.08 868.34l-9.84-13.6-1.25 16.64-16.8 4.97 16.21 5.97-.54 16.67 11.27-12.96 16.47 5.34-9.25-13.98 10.72-13.37-16.99 4.32zM2644.4 922.8l-8.04 8.86-11.69-4.59 6.54 10.52-7.64 9.19 12.08-2.36 6.97 10.27.92-11.98 11.95-2.84-11.51-5.04.42-12.03zM2564.11 812.63l-6.22 6.87-9.06-3.55 5.07 8.14-5.92 7.12 9.36-1.83 5.39 7.95.72-9.28 9.25-2.2-8.91-3.9.32-9.32z" class="colorf8cb6e svgShape"></path><path fill="#ffffff" d="M1911.2 1142.25c11.1 12.56 126.41-150.91 126.41-150.91s-137.5 138.34-126.41 150.91ZM2513.88 1000.66c11.09 12.57 126.4-150.9 126.4-150.9s-137.5 138.34-126.4 150.9ZM1836 1444.21c11.09 12.56 126.4-150.9 126.4-150.9s-137.47 138.34-126.4 150.9ZM2596.57 1243.74c11.09 12.56 90-104.35 90-104.35s-101.09 91.78-90 104.35ZM2215.68 773c11.1 12.56 90-104.35 90-104.35s-101.09 91.8-90 104.35Z" opacity=".65" class="colorfff svgShape"></path><ellipse cx="2293.32" cy="2484.76" fill="#cc804d" rx="1609.96" ry="275.24" class="colorcc804d svgShape"></ellipse><ellipse cx="2293.32" cy="2480.71" fill="#7e240d" rx="1489.25" ry="229.09" class="color7e240d svgShape"></ellipse><path fill="#cc804d" d="M2983.83 2451.69c-10-8.81-24.82-17.38-43.9-25.48-36.22-15.36-87.64-29.08-152.82-40.78-64.38-11.55-139.23-20.61-222.49-26.93-85.95-6.52-177.23-9.83-271.3-9.83S2108 2352 2022 2358.5c-83.26 6.32-158.12 15.38-222.49 26.93-65.18 11.7-116.6 25.42-152.82 40.78-19.08 8.1-33.85 16.67-43.9 25.48-10.86 9.52-16.37 19.43-16.37 29.44s5.51 19.92 16.37 29.44c10 8.81 24.82 17.38 43.9 25.48 36.22 15.36 87.64 29.09 152.82 40.78 64.37 11.55 139.23 20.61 222.49 26.93 86 6.53 177.23 9.83 271.29 9.83s185.35-3.3 271.3-9.83c83.26-6.32 158.11-15.38 222.49-26.93 65.18-11.69 116.6-25.42 152.82-40.78 19.08-8.1 33.85-16.67 43.9-25.48 10.86-9.52 16.37-19.43 16.37-29.44s-5.48-19.92-16.34-29.44Zm-62.6 71.13c-33.45 14.19-81.77 27-143.62 38.11-129.13 23.17-301.12 35.93-484.29 35.93s-355.15-12.76-484.28-35.93c-61.85-11.1-110.17-23.92-143.62-38.11-32.13-13.63-48.43-27.66-48.43-41.69s16.3-28.06 48.43-41.69c33.45-14.19 81.77-27 143.62-38.11 129.13-23.17 301.12-35.93 484.28-35.93s355.16 12.76 484.29 35.93c61.85 11.1 110.17 23.92 143.62 38.11 32.13 13.63 48.43 27.66 48.43 41.69s-16.3 28.06-48.43 41.69Z" class="colorcc804d svgShape"></path><ellipse cx="2293.32" cy="2481.97" fill="#cc804d" rx="383.42" ry="70.28" class="colorcc804d svgShape"></ellipse><path fill="#cc804d" d="M3595.93 2394c-72.48-23.82-175.8-45.14-307.07-63.38-130.54-18.14-282.44-32.38-451.5-42.32-174.84-10.27-360.53-15.48-551.92-15.48s-377.09 5.21-551.93 15.48c-169.06 9.94-321 24.18-451.5 42.32-131.27 18.24-234.59 39.56-307.07 63.38-78.64 25.84-118.52 54-118.52 83.65s39.88 57.8 118.52 83.64c72.48 23.82 175.8 45.14 307.07 63.38 130.54 18.14 282.44 32.38 451.5 42.32 174.84 10.27 360.53 15.48 551.93 15.48s377.08-5.21 551.92-15.48c169.06-9.94 321-24.18 451.5-42.32 131.27-18.24 234.59-39.56 307.07-63.38 78.64-25.84 118.52-54 118.52-83.64s-39.88-57.81-118.52-83.65Zm62.64 118c-17.44 11.84-43.8 23.6-78.34 35-69.93 23-170.49 43.67-298.88 61.52-265.83 36.94-619.52 57.28-995.91 57.28s-730.09-20.34-995.92-57.28c-128.39-17.85-229-38.54-298.87-61.52-34.55-11.35-60.91-23.11-78.35-35-16.81-11.42-25.34-23-25.34-34.34s8.53-22.93 25.34-34.35c17.44-11.84 43.8-23.6 78.35-35 69.92-23 170.48-43.67 298.87-61.52 265.83-36.94 619.52-57.28 995.92-57.28s730.08 20.34 995.91 57.28c128.39 17.85 229 38.54 298.88 61.52 34.54 11.35 60.9 23.11 78.34 35 16.81 11.42 25.34 23 25.34 34.35s-8.53 22.91-25.34 34.34Z" class="colorcc804d svgShape"></path><path fill="#893f3f" d="M2819 2016.63c-101.13 43.76-264.43 270.5-264.43 270.5h60.22l172.12-169.37s72-56.4 165.31 33.06-32.09-177.95-133.22-134.19Z" class="color893f3f svgShape"></path><path fill="#edb7d1" d="m2611.55 1376.55-49.94 55.45s376.06 146.53 500.47 88.73c54.58-25.36 79.39-64.06 83.88-102.32-157.19 135.99-449.63 1.8-534.41-41.86Z" class="coloredb7d1 svgShape"></path><path fill="#712e1f" d="M3130.68 1788.44c-14.15 5.94-4.44 171.71-4.44 171.71l204.88 112.77 257.19-233.69s-125.65-77.08-158.55-99.89-284.93 43.15-299.08 49.1Z" class="color712e1f svgShape"></path><path fill="#712e1f" d="M3493.73 1925.53a32.36 32.36 0 0 0-22.64-11.46l-701.69-46.24c-28.51-1.88-45.35 31.34-26.91 53.21l327.92 389 1 1.19a32.36 32.36 0 0 0 22.64 11.46l271.24 17.87-60.92-78.46a96.45 96.45 0 0 1 152.37-118.3l165.94 213.72 173.06 11.41a31.63 31.63 0 0 0 27.05-11.57c9.27-11.29 10.9-28.52-.14-41.64Z" class="color712e1f svgShape"></path><path fill="#a53f3f" d="m3426.84 1911.16-701.69-46.24a32.32 32.32 0 0 0-24 8.39l-209.4 190.76L2324 2217a32.22 32.22 0 0 0-7.85 10.72c-8.76 19.32 3.77 44 27.54 45.56l210.93 13.9L2747.11 2097a96.45 96.45 0 0 1 135.53 137.27l-70.64 69.82 233.38 15.38a32.26 32.26 0 0 0 23.93-8.39l1.15-1 222.79-202.94 153.33-139.66c12.65-11.55 13.32-28.85 5.61-41.26a31.67 31.67 0 0 0-25.35-15.06Z" class="colora53f3f svgShape"></path><path fill="#712e1f" d="M3946.43 1435.68h-.07l-639.47-41.43-62.22-4a32.41 32.41 0 0 0-23.94 8.41l-376.87 344.07c-12.68 11.58-13.28 28.89-5.55 41.27a31.76 31.76 0 0 0 25.3 15l639.48 41.43 62.28 4a32.39 32.39 0 0 0 23.94-8.4l376.87-344.07c21.09-19.28 8.75-54.44-19.75-56.28Z" class="color712e1f svgShape"></path><path fill="#fec87b" d="m2841.11 1745.27 593.79 139.88 501.94-532.09-602.85-39.72-492.88 431.93z" class="colorfec87b svgShape"></path><path fill="#faf897" d="m3440.18 1898.27 489.43-435.6 7.23-109.61-488.97 428.51-7.69 116.7z" class="colorfaf897 svgShape"></path><path fill="#fec87b" d="m3933.88 1409.89-470.18 405.63c151.04-70.65 470.18-405.63 470.18-405.63Z" class="colorfec87b svgShape"></path><path fill="#f4a805" d="m2361.3 1352.44 76.79 87.63 698.75 46.04-28.83-84.46-746.71-49.21z" class="colorf4a805 svgShape"></path><path fill="#fec87b" d="m2361.39 1352.32 31.41 82.21 759.91 70.92-41.14-106.94-750.18-46.19z" class="colorfec87b svgShape"></path><path fill="#faf897" d="M3104.21 1511.48 3442 1896.92s5.36-114.89 5.62-115.12l-336-383.35Z" class="colorfaf897 svgShape"></path><path fill="#a53f3f" d="m3112.64 1482.58-13-15.47a32.45 32.45 0 0 0-22.65-11.45l-701.7-46.23a31.67 31.67 0 0 0-25 9.35 33 33 0 0 0-7.22 11 32.11 32.11 0 0 0-1.21 20.52 32.8 32.8 0 0 0 6.56 12.29l61.35 72.77 267.54 317.42a32.42 32.42 0 0 0 22.63 11.45l547.25 36 154.46 10.18a31.7 31.7 0 0 0 27-11.57c9.28-11.26 10.93-28.51-.13-41.64Z" class="colora53f3f svgShape"></path><path fill="#8f3332" d="m3112.64 1482.58-13-15.47a32.45 32.45 0 0 0-22.65-11.45l-701.7-46.23a31.67 31.67 0 0 0-25 9.35 33 33 0 0 0-7.22 11 32.11 32.11 0 0 0-1.21 20.52 32.8 32.8 0 0 0 6.56 12.29l61.35 72.77c139.55 4.7 602.45-15.07 653.66 16.77 61.6 38.29 210.73 258 282.41 348.15l55.81 10.18a31.7 31.7 0 0 0 27-11.57c9.28-11.26 10.93-28.51-.13-41.64Z" class="color8f3332 svgShape"></path><path fill="#8f3332" d="m3426.84 1911.16-701.7-46.24a31.91 31.91 0 0 0-8.12.49 32.25 32.25 0 0 0-15.83 7.91l-13.29 12.1-196.1 178.64c190.87-95.47 493-173.21 801.39 43l114.74-104.52 38.59-35.15c12.66-11.56 13.33-28.85 5.61-41.26a31.64 31.64 0 0 0-25.29-14.97Z" class="color8f3332 svgShape"></path><path fill="#feaa6a" d="M3398.09 1723.35 3741 1406.64s-240.74 125.36-342.91 316.71ZM3351.69 1657.22c-1.52 5.28 256.6-263.58 256.6-263.58S3382 1552 3351.69 1657.22ZM3282.15 1595.54l210.45-224.37c-102 46.7-210.45 224.37-210.45 224.37ZM3212.73 1517.86l171.5-165c-123.88 54.57-171.5 165-171.5 165Z" class="colorfeaa6a svgShape"></path><path fill="#a53f3f" d="M3456.72 2143.79a96.45 96.45 0 0 0-152.36 118.3l60.91 78.46h44l-66.12-96c-18.32-26.6-19.59-61.69-2.41-89 16.64-26.55 49.82-44.77 115.98-11.76Z" class="colora53f3f svgShape"></path><path fill="#ff7875" d="M2523.55 1755.5c-31.54 81.84-63 214.73-80.08 271.17-25.66 84.83 10.75 135.32 84.4 147.89s143-92.42 143-92.42L2569.13 1687s-29.71 27.34-45.58 68.5Z" class="colorff7875 svgShape"></path><path fill="#c5663e" d="M2401.74 2415.66s-59.43-2.5-109.38 8.84l-33.62-14.5s-32.2-10.45-43.51-7.17-11.43 18.31-1.91 23.07 20.55 1.94 25.09 5.19-2.12 4.76-5.82 2.38-22.08-6.27-24.89-.22-1.95 11 5.19 12.12c5.62.85 18.06 2.64 23.73 4.74l-.23.23v.9c-12.34-2.56-26.36-6.86-28.71-2.19-2.55 5.07 1.75 11.24 12.78 15.35a114.81 114.81 0 0 0 15.93 4.76v.14c-2.95-.43-8.28-1.31-14.42-2.74-9.3-2.16-13.19 1.73-10.6 7.14 2.15 4.47 17 9.09 25 11.53v1.13c-6.36-.56-11.94-2.93-15.72-2.93-4.54 0-7.78 9.31 3.9 17.74s65.68 37.71 135.86 33.84c83.48 2.53 183.26.25 207.1-13.84 25.24-14.93-93.43-108.3-165.77-105.51Z" class="colorc5663e svgShape"></path><path fill="#2f6489" d="M2604.39 2218.84s-169.09-78.52-341-55.6-144.45 238.46 64.2 302.65 447.09 18.35 447.09 18.35l144.45-243s-191.5-69.97-314.74-22.4Z" class="color2f6489 svgShape"></path><path fill="#3b7c9c" d="M2604.39 2218.84s-169.09-78.52-341-55.6-144.45 238.46 64.2 302.65 447.09 18.35 447.09 18.35l144.45-243s-156.53 58.43-314.74-22.4Z" class="color3b7c9c svgShape"></path><path fill="#2f6489" d="M2541.91 2313.42c32.1 17.2 108.91 22.36 108.91 22.36l12-48.15s-175.4-6-283.73-72.22c52.48 71.36 162.82 98.01 162.82 98.01Z" class="color2f6489 svgShape"></path><path fill="#af5233" d="M2541.91 2313.42s-52.73 9.17-52.73 92.86 45.68 93.82 45.68 93.82h189.33l-28.66-164.9Z" class="coloraf5233 svgShape"></path><path fill="#c5663e" d="M2510.4 2419s-56.13 56.17-142.71 57.82c50.13 56.67 143 65.27 207.47 42.92S2510.4 2419 2510.4 2419Z" class="colorc5663e svgShape"></path><path fill="#3b7c9c" d="M2802.58 2219.27c-38.06-6.37-77.3-1.88-110.87 12.44a105.76 105.76 0 0 0-13.47 6.44 161 161 0 0 0-16.43 10c-27.77 18.63-71.63 56.12-117.6 127.24-11.13 17.22-30 24.9-41.32 36.95 5.21 42.5 35 119.23 67.77 144.68 39.9-4.71 97.54-17.91 111.14-43.07 53 38.52 114.4 34.76 169.36 36.73 134.91 4.84 205.49-80.82 208.93-168.52s-43-182.24-43-182.24-101.45 38.26-214.51 19.35Z" class="color3b7c9c svgShape"></path><path fill="#2f6489" d="M2773.49 2424.62c-51.59 68.79-139.63 119.69-139.63 119.69 120.12-23.52 202.68-109.37 217.3-132.3s-26.08-56.17-77.67 12.61Z" class="color2f6489 svgShape"></path><path fill="#f63d4f" d="M3011.08 1699.12c-52.45-49.87-194.32-111.78-194.32-111.78l-126.35 17.81s-57.94 25.52-121.28 81.82c1.72 20.64 40.42 189.67 55.9 255s-8.6 115.21-20.64 276.85c101.46-18.91 308.67-18.87 381.75 113.5l18.92 22.35s36.61 131.4 83 131.4c25.8-70.51-59-346.35-77-403.09s-41.25-233.4.02-383.86Z" class="colorf63d4f svgShape"></path><path fill="#c5663e" fill-rule="evenodd" d="M2847.83 1410.25c-5.07-32.72-19.5-51.08-39.7-71.14-22.84-22.7-53.6-39.64-97-33.51-95.39 13.46-87.95 81.68-83.84 146 .46 7 .86 13.64 1.32 20 1.05 14.73 2.27 27.72 4.28 39.27 4.56 25.73 13.17 44.29 33.11 59.24 7.58 5.7 11.51 7.58 18.62 11.85 0 0 .36 14.28 4.92 45.9a73 73 0 0 0 15.6 11.85c33.44 19.35 75.93 12.47 102.53-15.55l14-14.76c-4.48-54.42-7.54-84.58-6.51-89.33 1.57-6.97 38.32-45.34 32.67-109.82Z" class="colorc5663e svgShape"></path><path fill="#af5233" d="m2684.63 1581.92 3 34.12c74.1 7.65 89-61.21 89-61.21s-33.26 38.39-92 27.09Z" class="coloraf5233 svgShape"></path><path fill="#c5663e" fill-rule="evenodd" d="M2851.18 1423.79c-6.29-2-27 .5-40.3-2.38 0 0-.7 12.91.24 29.49s8.79 50.75 22.86 51.76c18.7 1.36 35.59-37.51 34.65-54.09-.63-11.5-3.26-20.24-17.45-24.78Z" class="colorc5663e svgShape"></path><path fill="#af5233" d="M2841.91 1436c-14.16 5.51-23.8 18.12-27.09 35.49a4.11 4.11 0 0 0 3.23 4.75 6.7 6.7 0 0 0 1 0 4.1 4.1 0 0 0 3.73-3.28c2.76-14.55 10.58-25 22.06-29.45a4.06 4.06 0 0 0-2.94-7.56Z" class="coloraf5233 svgShape"></path><path fill="#af5233" d="M2829.66 1447.7a4 4 0 0 0-5.25 2.25 4.08 4.08 0 0 0 2.25 5.27c8.56 3.37 14 9.32 15.34 16.74a4 4 0 0 0 4.2 3.32h.5a4 4 0 0 0 3.26-4.71c-1.86-10.32-9.08-18.41-20.3-22.87ZM2696.18 1492.63c-4.1-.54-6.89-1.88-8.51-4-3.91-5.28-2.1-16.91 0-30.33 1.61-10.41 3.47-22.16 3.5-34.9a4 4 0 0 0-4-4 4.08 4.08 0 0 0-4.07 4c0 12.12-1.78 23.56-3.39 33.66-2.48 15.86-4.45 28.4 1.52 36.43 2.95 3.94 7.55 6.28 13.94 7.17h.68a4 4 0 0 0 .33-8Z" class="coloraf5233 svgShape"></path><path fill="#451512" fill-rule="evenodd" d="M2639.86 1399.78c-13.25 2.7-23.44 9.79-22.74 13.27s10.34-.53 23.53-3.27 30.5-4.36 29.77-7.78-17.25-4.88-30.56-2.22ZM2735.57 1389.92c-22.92 2.5-28.9 7.33-28.46 11.35.37 3.5 17.28-.09 30.71-1.57s31.87-.19 31.51-3.63-20.33-7.59-33.76-6.15Z" class="color451512 svgShape"></path><path fill="#af5233" d="M2720.66 1519.83a4 4 0 0 0-5.4 1.62c-3.22 6.1-7.25 9.6-12 10.39-9 1.52-18.46-6.89-18.55-7a4 4 0 0 0-5.64.21 4 4 0 0 0 .31 5.65c.51.45 12.38 11.11 25.3 9 7.29-1.2 13.22-6.07 17.66-14.48a4 4 0 0 0-1.68-5.39Z" class="coloraf5233 svgShape"></path><path fill="#c34344" d="M2759.58 1456.9a20.24 20.24 0 1 0 21.53 18.87 20.25 20.25 0 0 0-21.53-18.87ZM2633.76 1470.52a18.93 18.93 0 0 0-5.14 1c1 14.73 2.27 27.72 4.28 39.26a18 18 0 0 0 3.53.1 20.24 20.24 0 1 0-2.67-40.4Z" class="colorc34344 svgShape"></path><path fill="#451512" d="M2728.12 1434.43a9.72 9.72 0 1 0 10.53 8.83 9.71 9.71 0 0 0-10.53-8.83ZM2648.23 1439.71a9.72 9.72 0 1 0 10.54 8.83 9.71 9.71 0 0 0-10.54-8.83Z" class="color451512 svgShape"></path><path d="M2831.13 1281.92a69.05 69.05 0 0 0-11.49-1s3.81-22.46-11.32-31.09c-38.66-22-103.43-9.46-136.19 1.55a161.89 161.89 0 0 0-15.31 5.49 102.18 102.18 0 0 0-14.5 7.31c-22.25 14-.14 34.26-6.29 55.66l-26.88 21.89s-19.35 25.43 6.83 35.78c19 7.52 44.11 6.75 63.54 7.69 68.95 3.34 107.26-21.23 107.26-21.23s-9.22 22 4 35c5.23 5.17 14.54 5.91 18.67 16.68 5.82 15.19 2.7 31.91 2.7 31.91 4.93-6 10-12.09 14.46-17.3a22.36 22.36 0 0 1 28.87-4.26c2.44-7.69 4.53-15 6.29-22 28.1-34.54 5.15-90.38-14.86-110.32-4.72-4.68-9.46-10.68-15.78-11.76Z" fill="#000000" class="color000 svgShape"></path><path fill="#2f2f2f" d="m2723.25 1287.41-107.94 32.77c62.5 8.82 107.94-32.77 107.94-32.77Z" class="color2f2f2f svgShape"></path><path fill="#ddd5ea" d="M2767.59 1216.64q-5.82-.77-12.05-1.27C2605.09 1203 2610.39 1342 2610.39 1342c38.78 11.78 83.58 16.93 132.88 18.49 41 1.31 85.07.14 131.41-1.75 0 0 32.96-123.74-107.09-142.1Z" class="colorddd5ea svgShape"></path><path fill="#ffffff" d="M2668.54 1242.23c-18.45 11.83-25.64 31.17-17.21 42.51s29-.19 47.45-12 41.79-23.67 33.36-35-45.14-7.34-63.6 4.49Z" class="colorfff svgShape"></path><path fill="#b8b0d7" d="M2767.59 1216.64c16.81 15.77 47.46 47.61 52.29 74 5.92 32.43-22.22 53.29-76.61 69.81 41 1.31 85.07.14 131.41-1.75 0 .04 32.96-123.7-107.09-142.06Z" class="colorb8b0d7 svgShape"></path><path fill="#c51637" d="M2814.93 1568.57s-.63 22.23-27.31 36.13-44.78 13-55.48 17.48a19.17 19.17 0 0 0-11.62 15s-9.22-29.3-35.35-47.81c-14.87 10.62-9 36-9 36s3.47 20.67 31.5 31.52c20.92 8.1 108.69 1.61 124-35.68 6.91-32.67-16.74-52.64-16.74-52.64Z" class="colorc51637 svgShape"></path><path fill="url(#b)" d="M2525.29 1813c-6.3-3.44-127-59.9-127-59.9l-43.28 27.51 158.78 92.87 260.8-96-40.69-28.66s-130.08 32.1-208.61 64.18Z"></path><path fill="#496ad4" d="M2552.23 1833.65h-39.55l-164.51-61.23 85.98 290.04 144.45 57.8h48.15l224.41-54.46-64.49-297.49-234.44 65.34z" class="color496ad4 svgShape"></path><path fill="#496ad4" d="m2512.68 1833.65-164.51-61.23 85.98 290.04 144.45 57.8h48.15l-74.52-286.61h-39.55z" class="color496ad4 svgShape"></path><path fill="#2639a4" d="m2512.68 1833.65 65.92 286.61h48.15l-74.52-286.61h-39.55z" class="color2639a4 svgShape"></path><path fill="#919fff" d="M2769.85 1952.21c-1.43-5.61-2.86-13.93-3.69-19.37a29.13 29.13 0 0 0-4-2.4l-.27.17c1 6.86 2.84 14.66 4.66 21.8a44.32 44.32 0 0 0 1.51 5c.52 1.66 1.71 2.71 4.07 4.17l.36-.33a40.37 40.37 0 0 1-1.91-6ZM2757.3 1951.23l-1.05.74a13.32 13.32 0 0 1 2.71 5 7.63 7.63 0 0 1-.43 5.2 7.19 7.19 0 0 1-4.92 4 11.33 11.33 0 0 1-5.92 0 8 8 0 0 1-4.22-1.93 18.14 18.14 0 0 1-.58-1.87c-1.18-4.63-2.3-10.39-3.52-17.36-.23-1.28-.39-2.74-.74-4.09a3.61 3.61 0 0 0-1.29-2.24 9.88 9.88 0 0 0-2.41-1.4l-.2.15c.55 2.17.17 4.83-.89 7.81a17 17 0 0 0 2.61 1.12c.85 4 1.86 8.93 2.87 12.88a23.7 23.7 0 0 0 3.86 8.58 11 11 0 0 0 4.53 2.44 13.43 13.43 0 0 0 7.19.11 9.21 9.21 0 0 0 6-4.44 10.39 10.39 0 0 0 .52-7.55 17.93 17.93 0 0 0-4.12-7.15ZM2721.63 1930.09c-1.48.4-3.66 2.21-2.71 5.91a4.16 4.16 0 0 0 5 2.9c2.43-.66 3.18-3 2.65-5.08-.86-3.43-3.57-4.09-4.94-3.73Zm1.59 6.41c-1.66.46-3.19-.41-3.28-.77a3.92 3.92 0 0 1 2.74-3.37 2.19 2.19 0 0 1 2.67 1.34c.24.92-.23 2.3-2.13 2.8ZM2703.45 1951.21a16.57 16.57 0 0 0 3.16 2.15c1-1.55 1.91-2.84 2.94-4.2a28.76 28.76 0 0 0-3.27-2.22 31 31 0 0 0-2.83 4.27ZM2729.76 1958.57l-1.26.71a16 16 0 0 1 2.39 4.79c1.63 6.43-1.53 11.51-7.4 13.11a19.92 19.92 0 0 1-11-.15c-2.28-.72-4.67-1.78-4.89-2.64a4.62 4.62 0 0 1 0-1.89 23.8 23.8 0 0 0 3.76-.7 11.44 11.44 0 0 0 5.5-2.9c1.49-1.68 1.54-3.4 1-5.67a7.89 7.89 0 0 0-2.06-3.24c-1.62-1.65-4.08-2.85-6.2-2.28-2.6.71-4.19 3.21-4.85 7.61a26.37 26.37 0 0 0 .45 7.84 16.21 16.21 0 0 0 1.63 4.24 7.2 7.2 0 0 0 3.21 2.66 21.7 21.7 0 0 0 14.74 1.5c6.32-1.71 11.08-7.39 9.17-14.87a20.24 20.24 0 0 0-4.19-8.12Zm-18.67 3c1.83-.5 4.26.32 4.64 1.82.33 1.28-1.08 3.3-5.6 4.53a16.22 16.22 0 0 1-2.93.6c.2-3.81 1.52-6.33 3.89-6.97ZM2709.74 1949.93a16.57 16.57 0 0 0 3.16 2.15c1-1.55 1.91-2.84 2.94-4.2a26.77 26.77 0 0 0-3.28-2.22 31.91 31.91 0 0 0-2.82 4.27ZM2690.86 1941.17a4.59 4.59 0 0 0-5.43-3c-1.22.33-2.47 1.85-1.65 5.1a4.45 4.45 0 0 0 .52 1.24 2.86 2.86 0 0 0-1.05.71l2 1.58a3.18 3.18 0 0 1 .69-.54c2.34 1.68 5.89 2 7.71 2.16.51-.14 2.9-1 3-1.41v-.18c-3.13-.29-6.67-.61-8.94-1.46 2.52-1.15 3.6-2.43 3.15-4.2Zm-5.19 2.75a1.63 1.63 0 0 1-.24-.52c-.32-1.39.26-3.29 1.48-3.62 1-.26 2 .17 2.18.75.26 1.05-1.09 2.28-3.42 3.39ZM2707.72 1984.67c-4.53 1.2-10.09-1.25-13.36-5.21a3.2 3.2 0 0 1-.69-1.26 5.1 5.1 0 0 1 0-1.74 51.25 51.25 0 0 1 2.13-7.79 81.904 81.904 0 0 0-3.25-3.21l-.18.08-1.22 4.76a11.55 11.55 0 0 0-.13 6.25l.86 3.37c.69 2.73 3 5.22 6.21 7.42 2.45 1.43 4.39 1.79 6 1.36a20.57 20.57 0 0 0 7.64-4.6l-.62-.95a12 12 0 0 1-3.39 1.52ZM2679.93 1946.43c-2.21.6-4.29 2.14-6.72 2.81a7.73 7.73 0 0 1-2.74.28 7.65 7.65 0 0 1-2-.49l-.13.2a17.71 17.71 0 0 0 1.52 2 7 7 0 0 0 4.86.25c2-.55 4.19-1.69 5.8-2.13.51-.14 1.37.81 2.39 1.87l.23-.06.61-2.16c-.4-1.4-1.54-3.19-3.82-2.57ZM2683.75 1975.59c-1.43-5.61-2.86-13.93-3.69-19.37a28.07 28.07 0 0 0-4-2.39l-.27.17c1 6.86 2.84 14.65 4.66 21.79a45.2 45.2 0 0 0 1.51 5c.52 1.65 1.71 2.71 4.07 4.16l.36-.33a40.37 40.37 0 0 1-1.91-6ZM2653.71 1966.91a12.67 12.67 0 0 0 3.43 2.28c1-1.47 2-2.79 3-4.18-1.15-.87-2.29-1.71-3.39-2.42a30.27 30.27 0 0 0-3.04 4.32ZM2668.87 1977.18l-1.06 1a13.94 13.94 0 0 1 3.26 5.24 7 7 0 0 1-.8 5.92 9.85 9.85 0 0 1-5.53 3.69 14.61 14.61 0 0 1-8.44-.56c-1.67-.65-2.71-1.36-2.86-1.94a18.45 18.45 0 0 1-.38-5.69 26.12 26.12 0 0 1 1.16-6.77c-1.1-1.08-2.2-2.15-3.46-3.19h-.24a26.08 26.08 0 0 0-.23 13.5c.78 3.06 2.65 6.25 4.26 7.19a16.12 16.12 0 0 0 11.86 1.76c6-1.64 8.87-6.5 7.48-12a16 16 0 0 0-5.02-8.15Z" class="color919fff svgShape"></path><path fill="#919fff" d="m2763.64 1793.83-182.8 49.65L2624 2013.1c1.26-.16 2.52-.32 3.78-.5l-42.39-166.6 175.48-47.66 28.4 111.64c.92-1.56 1.83-3.13 2.71-4.7Z" class="color919fff svgShape"></path><path fill="#919fff" d="m2756.77 1804.14-165 44.82 41.42 162.84c1.23-.2 2.47-.4 3.7-.62l-33.73-132.59a24.75 24.75 0 0 0 3.92-.73c12.68-3.44 20.48-16.09 17.4-28.21a21.71 21.71 0 0 0-2.14-5.31l106-28.78a22 22 0 0 0 .66 5.6c3.09 12.11 15.9 19.16 28.57 15.72a25.31 25.31 0 0 0 3.4-1.2l21.63 85q1.41-2.13 2.76-4.29Zm-150.43 71a21.75 21.75 0 0 1-3.93.69l-1.38-5.42a16.09 16.09 0 0 0 4-.55c8.05-2.18 13-10.19 11-17.88a13.64 13.64 0 0 0-2.59-5.19l5.86-1.59a18.86 18.86 0 0 1 2.25 5.28c2.69 10.52-4.13 21.61-15.21 24.62Zm150.49-41c-11.08 3-22.28-3.16-25-13.75a19 19 0 0 1-.56-5.63l5.85-1.59a13.85 13.85 0 0 0 .24 5.72c1.95 7.69 10.06 12.16 18.11 10a15.74 15.74 0 0 0 3.36-1.35l1.37 5.39a21 21 0 0 1-3.37 1.19Z" class="color919fff svgShape"></path><path fill="#919fff" d="m2789.27 1910 36.31 142.75-175.49 47.66-22.32-87.78c-1.26.18-2.52.34-3.78.5l23.34 91.77 182.8-49.65-38.13-149.98c-.9 1.57-1.81 3.14-2.73 4.73Z" class="color919fff svgShape"></path><path fill="#919fff" d="m2782.57 1920.73 25.07 98.59a24.56 24.56 0 0 0-3.72.7c-12.68 3.44-20.48 16.1-17.4 28.21a21.69 21.69 0 0 0 2.56 6l-106.51 28.92a21.56 21.56 0 0 0-.63-6.65c-3.08-12.11-15.89-19.17-28.57-15.73a25.38 25.38 0 0 0-3.58 1.29l-12.94-50.9c-1.23.22-2.47.42-3.7.62l21 82.76 165-44.82-33.91-133.3q-1.24 2.18-2.67 4.31Zm-103 163.27-6 1.63a13.85 13.85 0 0 0 0-6.83c-2-7.69-10.06-12.15-18.11-10a16 16 0 0 0-3.54 1.45l-1.38-5.4a21.57 21.57 0 0 1 3.58-1.33c11.08-3 22.28 3.16 25 13.75a19.06 19.06 0 0 1 .41 6.73Zm130.2-56.48a16 16 0 0 0-3.77.54c-8.05 2.19-13 10.19-11 17.88a13.7 13.7 0 0 0 3.17 5.86l-6 1.62a18.79 18.79 0 0 1-2.7-6c-2.69-10.59 4.13-21.65 15.21-24.66a21.43 21.43 0 0 1 3.74-.66ZM2717.44 1846l-18.37 5-16.15-8.89-9.83 15.94-18.37 5 4.46 17.56-5.1 8.27q3.16-1.11 6.28-2.32l.24-.38.07.26c1.34-.51 2.67-1 4-1.59l-1-3.73 12.08-19.59 22.56-6.12 10.1 5.55q1.89-1.34 3.75-2.72l-8-4.42 10.13-2.75 1.19 4.66q1.84-1.42 3.66-2.9Zm-55.14 29.53-2.46-9.68 10.13-2.75Zm16.61-19.07 5.43-8.79 8.9 4.9Z" class="color919fff svgShape"></path><path fill="#919fff" d="m2721.9 1863.5-2.73-10.74q-1.82 1.47-3.66 2.9l1.27 5-4.57-2.52q-1.86 1.38-3.75 2.72l9.74 5.36 5.49 21.57-12.08 19.59-22.57 6.13-19.84-10.92-4.53-17.84c-1.33.54-2.66 1.08-4 1.59l3.41 13.43-8.9-4.9 5.18-8.41q-3.12 1.21-6.28 2.32l-4.73 7.67 16.15 8.89 4.47 17.56 18.37-5 16.14 8.88 9.84-15.94 18.37-5-4.47-17.56 9.83-15.94Zm-48.82 54.37-2.46-9.68 12.6 6.93Zm30 3.39-8.91-4.9 14.33-3.9Zm14.36-15.43 7.67-12.44 2.47 9.68Zm9.37-23.06-3.48-13.7 8.91 4.9Z" class="color919fff svgShape"></path><path fill="#919fff" d="M2691.09 1874.18c-5.91 1.61-9.56 7.51-8.12 13.17a10.66 10.66 0 0 0 13.34 7.34 11.08 11.08 0 0 0 8.12-13.17 10.66 10.66 0 0 0-13.34-7.34Zm4.22 16.58a6.57 6.57 0 0 1-8.22-4.53 6.83 6.83 0 0 1 5-8.11 6.58 6.58 0 0 1 8.23 4.52 6.84 6.84 0 0 1-5.01 8.12Z" class="color919fff svgShape"></path><path fill="#c5663e" d="M2665.06 2008.25c-14.71-23.66-46.1-56.53-61.8-60.94s-14.88 14.71-3.43 25.18 21.58 21.25 22.56 22.56c-11.45 3.27-58.37-6.54-84.86-27.14s-38.75-18-44.31-13.41 0 10.14 0 10.14-16.32-7.28-23.51-2.05-5 12.08-2.19 15.11c1.8 1.93 10.66 10.16 10.66 10.16s-12.1 3.6-12.1 12.42 11.45 15.7 11.45 15.7a10 10 0 0 0-4.58 13.08c3.6 9.16 15.7 25.51 55.26 47.74s82.08 23.22 105.62 20.6 38.26 4.25 52.32 9.81 35.65 16.68 35.65 16.68v-85.35s-42.02-6.63-56.74-30.29Z" class="colorc5663e svgShape"></path><path fill="#af5233" d="m2577.19 2014.52-84-48s40.14 37.41 84 48ZM2545.69 2022.64l-67.51-34.78s30.76 25.95 67.51 34.78ZM2548.08 2054.14l-70.55-38.14s22.34 26 70.55 38.14Z" class="coloraf5233 svgShape"></path><path fill="#ff7875" d="M2913.92 1801.11c.86 80-10.89 231.11-10.89 231.11s-121.52-3.39-246.19-41.22c0 0 .29 91.14-30.09 142.29 112.63 49.86 313.83 79.54 378.31 63.2s76.52-59.33 77.38-144.45-24.07-299.08-71.36-353.25-98.02 22.36-97.16 102.32Z" class="colorff7875 svgShape"></path><path fill="#c5663e" d="M2200.5 1466.81c-17.14.8-45.13 21.85-45.13 21.85s11.38-66.77 3.53-68.67-17.67-1-26 34.59c0 0 1.22-27.18-12.85-25.41s-18.45 80.32-18.45 80.32l-38.25 7.13s7.49-47.17-6.57-54.4-20.88.2-18.46 12.22 4.22 36.78-13.28 45.92-31.72 25.46-39.28 65.86l86.67 47.91s3.15-21.94 11-27.35 50.78-9.39 60.28-28.92a128.34 128.34 0 0 0 11.57-36.89s30.92-37.57 52.72-53.24 9.63-21.73-7.5-20.92Z" class="colorc5663e svgShape"></path><path fill="#af5233" d="M2133.47 1538.12c13.12-28-.61-83.53-.61-83.53s.14 84.5.61 83.53ZM2102.43 1544.09l-.86-34.6c-15.57 15.19.86 34.6.86 34.6ZM2014.48 1595.84s46.81-54.68 58.35-53.93c0 0-39.76-3.78-58.35 53.93ZM2200.5 1466.81c-17.14.8-45.13 21.85-45.13 21.85l-.09 52.31s30.92-37.57 52.72-53.24 9.63-21.73-7.5-20.92Z" class="coloraf5233 svgShape"></path><path fill="#7da2ff" d="M1838.07 1741.33c-21.28-62.44-38.33-127.75-42-149.8-8.55-51.36-39.12-158-82.82-174.92 0 0 26.29 377.4 38.24 492.86a44.24 44.24 0 0 0 .14 13.59 21.67 21.67 0 0 0 1.81 5.57c28.49 57.42 32.54 162.47 130.64 105.8 24.4-14.09 225.82-397.78 225.82-397.78l-151.51-73.14s-64.71 92-120.32 177.82Z" class="color7da2ff svgShape"></path><path fill="#7da2ff" d="M1713.25 1416.61s26.29 377.4 38.24 492.86a44.24 44.24 0 0 0 .14 13.59c36.76-67.09 86.44-181.73 86.44-181.73-21.28-62.44-38.33-127.75-42-149.8-8.55-51.36-39.07-158.03-82.82-174.92Z" class="color7da2ff svgShape"></path><path fill="#091c26" d="M1166.36 2299.94c-8 52.31-36 116.9-36 116.9a435.85 435.85 0 0 1 48.09-22.59c26-10.2 64.46-20.59 71.73-46.83l-38.55-133.9s-37.21 34.12-45.27 86.42Z" class="color091c26 svgShape"></path><path fill="#f7b2a1" d="M1579.84 2261.63c-32.92-10.79-40-27.32-76.87-19.22s-133.24 92.29-151.32 103.28-33.56 24.11-47.15 25.88-28 13.65-28 13.65c.75 14.18 40.44 21.16 79.66 19.28s97.76-10 143.71 3.64 87.22 13.69 133 23.93c0 0 52.28-128.05 48.55-129.13s-68.66-30.53-101.58-41.31Z" class="colorf7b2a1 svgShape"></path><path fill="#b90058" d="M2203.74 2367s-188.31-27-247.66-37.44-384.21-78.33-384.21-78.33-3.69 9.66-11.64 57.49 4.54 125.05 17.31 128.23 89.19 15.93 142.91 30.11 246.86 59.95 313.41 66.33 192.34-18.82 246.43-47.75-76.55-118.64-76.55-118.64Z" class="colorb90058 svgShape"></path><path fill="#93003f" d="M2203.74 2367s-188.31-27-247.66-37.44-384.21-78.33-384.21-78.33-3.69 9.66-11.64 57.49c-3.57 21.44-3 48.75-.17 72.68 98.33 13.57 196.24 30 295.44 39.19 79.54 7.34 157.56 14.85 235.72 30.08 65.55 12.77 136 27.61 200.8 7.09-11.02-37.66-88.28-90.76-88.28-90.76Z" class="color93003f svgShape"></path><path fill="#b90058" d="M1977 2121.56c-69.34-40.32-238.68-145.93-238.68-145.93l-275.52-11s-21.88 35.73-32.56 92.13a323.38 323.38 0 0 0-5.24 78.13c3 53.14 55.83 98.51 98.7 118.63s479.52 68 479.52 68 61.68 62.24 102.6 84.9c28.85 16 165.07 76.3 165.07 76.3l9.39 2.9s47.47-37.29 47.85-69.57-23.68-90-57.11-126.32-224.69-127.85-294.02-168.17Z" class="colorb90058 svgShape"></path><path fill="#93003f" d="M1878.73 2223.35c-141.86-92-345.41-127.59-448.49-166.55a323.38 323.38 0 0 0-5.24 78.13c3 53.14 55.83 98.51 98.7 118.63s516 187.18 516 187.18 70.18-67.42-160.97-217.39Z" class="color93003f svgShape"></path><path fill="#f7b2a1" d="M1299.41 2381.63c-32.92-10.79-29.82-53.15-66.66-45-17.88 3.93-48.72 31-74.51 55.81-27.35 26.29-58.75 49.67-68.06 55.32-18.08 11-40.91 15.72-54.5 17.5s-28 13.65-28 13.65c.75 14.18 40.44 21.16 79.66 19.27s109.76-21.66 155.7-8 75.24 25.34 121 35.58c0 0 52.27-128 48.54-129.13s-80.24-4.21-113.17-15Z" class="colorf7b2a1 svgShape"></path><path fill="#b90058" d="M1934.92 2460.66s-188.31-27-247.66-37.45-384.21-78.33-384.21-78.33-3.69 9.67-11.64 57.5 4.55 125 17.31 128.23 89.19 15.93 142.92 30.1 246.85 60 313.4 66.34 192.35-18.82 246.43-47.75-76.55-118.64-76.55-118.64Z" class="colorb90058 svgShape"></path><path fill="#93003f" d="M1934.92 2460.66s-188.31-27-247.66-37.45-384.21-78.33-384.21-78.33-3.69 9.67-11.64 57.5a189.29 189.29 0 0 0-2.16 21.65c122.19 10.95 182.19 16.46 299.81 53.87 80.76 25.69 198.3 65.18 282.52 80.5 38.63 7 99.56-3 143.18-5.6 10.53-36.64-79.84-92.14-79.84-92.14Z" class="color93003f svgShape"></path><path fill="#b90058" d="M1778.52 2204.36c-69.34-40.32-309-135.08-309-135.08l-275.51-11s-28.37 99.12-22.85 198.66c1.66 29.84-4.34 74.31 34.79 101 15 10.21 51.73 18.45 70.53 27.27 42.86 20.11 475.37 107 475.37 107l124.15 45.3 135.45 41.79s47.46-37.3 47.85-69.58-23.69-90-57.11-126.31-154.34-138.73-223.67-179.05Z" class="colorb90058 svgShape"></path><path fill="#c5663e" d="m1609.58 1334.57 6.76-132.81-155.61-53.68s-12 57.35-20.67 86.41-12.48 66-18 74.76c-12.29 19.36-86.5 54.87-86.5 54.87s203.45 110.66 265.2 113.7 30-113.93 30-113.93Z" class="colorc5663e svgShape"></path><path fill="#c5663e" fill-rule="evenodd" d="M1581.43 972.75c-54.27-10.16-93.93 9.43-124 36.71-26.55 24.11-45.75 46.41-54 87.3-10.76 80.82 33.33 131.19 34.87 140 1 6-4.53 43.82-13.23 112l16.81 19.38c31.9 36.76 85 47.81 128.17 25.35a92.05 92.05 0 0 0 20.3-14c7.52-39.54 8.78-57.5 8.78-57.5 9.19-5 14.25-7.11 24.11-13.86 25.93-17.69 37.81-40.57 45-72.69 3.18-14.41 5.45-30.7 7.6-49.18.94-7.93 1.81-16.28 2.79-25 8.87-80.75 22.1-166.18-97.2-188.51Z" class="colorc5663e svgShape"></path><path fill="#af5233" d="M1461.79 1281.29s49.64 88.59 143.33 83.13l5.69-42.77c-74.56 10.91-149.02-40.36-149.02-40.36Z" class="coloraf5233 svgShape"></path><path fill="#c5663e" fill-rule="evenodd" d="M1398.52 1113.61c-18.13 4.91-21.86 15.76-23.37 30.2-2.12 20.81 16.95 70.68 40.56 70 17.77-.47 29.53-43 31.69-63.85s2-37.1 2-37.1c-16.88 2.9-42.86-1.42-50.88.75Z" class="colorc5663e svgShape"></path><path fill="#af5233" d="M1409.49 1129.51a5.11 5.11 0 0 0-4.13 9.35c14.2 6.2 23.45 19.84 26.11 38.31a5.13 5.13 0 0 0 4.51 4.33 6.73 6.73 0 0 0 1.27 0 5.17 5.17 0 0 0 4.33-5.79c-3.16-22.06-14.58-38.47-32.09-46.2Z" class="coloraf5233 svgShape"></path><path fill="#af5233" d="M1424.24 1144.92c-14.36 5-23.9 14.75-26.83 27.58a5.09 5.09 0 0 0 3.84 6.12l.62.07a5.11 5.11 0 0 0 5.48-3.94c2.11-9.27 9.29-16.44 20.25-20.21a5.12 5.12 0 0 0 3.12-6.5 5 5 0 0 0-6.48-3.12ZM1610.07 1122.6a5.14 5.14 0 0 0-4.89-5.29 5.08 5.08 0 0 0-5.32 4.87c-.68 16 1 30.93 2.44 44.12 1.93 17 3.56 31.74-1.67 38.17-2.15 2.55-5.73 4.08-10.93 4.52a5.09 5.09 0 0 0 0 10.14h.86c8.09-.75 14-3.44 18-8.24 8-9.76 6.19-25.66 4-45.76-1.56-12.79-3.16-27.27-2.49-42.53Z" class="coloraf5233 svgShape"></path><path fill="#451512" fill-rule="evenodd" d="M1665.82 1095.31c-16.6-4.1-37.52-3.25-38.58 1.07s20.45 7.39 37 11.47 28.39 9.72 29.43 5.44-11.33-13.84-27.85-17.98ZM1545.93 1077.5c-16.86-2.57-42.14 1.42-42.85 5.84s22.64 3.79 39.46 6.34 37.9 8.09 38.56 3.71c.78-5.03-6.48-11.45-35.17-15.89Z" class="color451512 svgShape"></path><path d="M1658.49 1256.34c-2.3-.61-5.92.67-9.09-.81-5.68-2.66-19.75-26.86-52.68-30.28-8.84-.92-18.57-.29-28.18 0-24.44.69-37.88 19.33-56.29 25.46s-40.17-44.85-42.7-77.65-8.26-92.15-8.26-92.15l-18.7-.09s4.45 31.83 1.6 55.08-9.09 78.66-5.06 101.62 26.28 56.68 60.62 75.66 80.8 23.21 110.82 13 47.81-20.11 54.23-48.61c4.03-17.91 2.48-18.91-6.31-21.23Z" fill="#000000" class="color000 svgShape"></path><path fill="#c34344" d="M1511.93 1160.44a25.51 25.51 0 1 0 22.53 28.18 25.51 25.51 0 0 0-22.53-28.18ZM1641.32 1207.19a25.52 25.52 0 0 0 22.55 28.19 22.91 22.91 0 0 0 4.45.08c3.18-14.42 5.46-30.7 7.6-49.18a23.72 23.72 0 0 0-6.41-1.59 25.52 25.52 0 0 0-28.19 22.5Z" class="colorc34344 svgShape"></path><path fill="#451512" d="M1552.79 1133.93a12.25 12.25 0 1 0 10.53 13.76 12.24 12.24 0 0 0-10.53-13.76ZM1653 1145.09a12.25 12.25 0 1 0 10.53 13.75 12.24 12.24 0 0 0-10.53-13.75Z" class="color451512 svgShape"></path><path d="M1675.15 994.9c-6.52-27.28 22.44-51.48-4.78-70.4a128.57 128.57 0 0 0-17.83-10 203 203 0 0 0-19-7.77c-40.6-15.71-121.41-35.15-171.31-9.63-19.53 10-16 38.48-16 38.48a87.37 87.37 0 0 0-14.51.62c-8 1.06-14.32 8.34-20.52 14-26.32 24-58.35 92.95-24.93 138 1.82 8.89 4 18.19 6.67 28a28.17 28.17 0 0 1 36.1 7c5.26 6.81 11.35 14.78 17.22 22.58 0 0-3-21.22 5.2-40 5.81-13.33 17.56-13.73 24.44-19.94 17.38-15.71 7-43.85 7-43.85s46.83 33.08 133.79 32.77c24.5-.09 38.66-24.12 38.66-24.12s17.38 26.42 41.75 18c33.53-11.55 10.61-44.64 10.61-44.64Z" fill="#000000" class="color000 svgShape"></path><path fill="#ddd5ea" d="M1547.56 854.57c-5.26-.13-10.34-.14-15.28 0-177.9 4.16-153.25 163.59-153.25 163.59 57.8 8.6 112.87 16 164.37 19.87 62 4.67 118.78 4.24 168.94-5.3 0-.02 25.34-173.46-164.78-178.16Z" class="colorddd5ea svgShape"></path><path fill="#ffffff" d="M1654.85 891.17c-21.51-17.3-67-27.28-79-14.21s15.56 31 37.08 48.34 45.72 34.5 57.81 21.43 5.63-38.27-15.89-55.56Z" class="colorfff svgShape"></path><path fill="#b8b0d7" d="M1456.83 940.26c9.6-32.47 52.27-68.22 75.45-85.71-177.9 4.16-153.25 163.59-153.25 163.59 57.8 8.6 112.87 16 164.37 19.87-65.91-28.01-98.35-57.92-86.57-97.75Z" class="colorb8b0d7 svgShape"></path><path fill="#8b89c2" d="M1712.68 995.55q-11.68 1.45-23.48 2.58c-3.69-20.26-8.76-40.53-16.25-59.92 8-.81 15.91-1.77 23.85-2.8a144.5 144.5 0 0 0-2.6-5.11c-4.47.57-8.93 1.2-13.41 1.7-3.31.37-6.63.65-9.94 1a212.25 212.25 0 0 0-17.76-34.28 167.49 167.49 0 0 0-10.87-14.93c3.09-.19 6.16-.46 9.24-.69-2.47-1.64-5-3.28-7.61-4.82-2 .13-4 .27-5.94.38-2-2.24-4-4.41-6.1-6.55-4.37-2-9-3.85-13.85-5.57A154.74 154.74 0 0 1 1630.9 879q-24.72 1.23-49.53 1.1c-5-8.4-10.5-16.59-16.28-24.59-2.37-.2-4.92-.27-7.36-.42 6 8.11 11.79 16.37 17 24.93q-23.18-.3-46.35-1.78c2.23-8 4.68-15.88 7.26-23.74-2.1 0-4.2.05-6.25.12-2.53 7.68-4.92 15.41-7.1 23.2q-17.55-1.25-35.06-3.17a198.52 198.52 0 0 1 14.56-17.65c-3 .44-6 .91-8.82 1.44-4.31 5-8.45 10.12-12.24 15.48q-13.43-1.58-26.81-3.58c-2.91 1.31-5.69 2.69-8.39 4.13 3.37.53 6.73 1.09 10.11 1.58 7.22 1 14.45 2 21.69 2.86a243.41 243.41 0 0 0-24.78 48.36q-26.8-4.08-53.31-9.83c-1 1.61-2 3.24-2.88 4.87 7.36 1.6 14.74 3.16 22.14 4.58 10.69 2 21.42 3.82 32.18 5.47a360.09 360.09 0 0 0-15.3 58.36q-28.43-4.41-56.56-10.42c-.19 1.84-.35 3.64-.47 5.39 11.52 2.45 23.07 4.78 34.67 6.83q10.71 1.89 21.46 3.55c-1.64 9.75-2.94 19.56-4.12 29.39l5.63.76c.17-1.43.31-2.86.48-4.28 1-8.31 2.24-16.68 3.68-25q31.57 4.73 63.38 7.5-.37 15 .1 30l5.81.59c-.24-7.07-.44-14.15-.39-21.22 0-3 .16-5.93.23-8.9q42.09 3.4 84.26 3.39c8.9 0 17.79-.18 26.67-.43a309.69 309.69 0 0 1 2.5 33c2 0 3.87-.09 5.81-.13-.15-6.39-.41-12.79-1-19.18-.38-4.64-.91-9.28-1.5-13.9q29.25-1 58.34-3.58c1.93 10.73 3.44 21.51 4.63 32.32 1.84-.24 3.73-.43 5.56-.69-.36-3.28-.66-6.56-1.09-9.83-1-7.41-2.09-14.89-3.37-22.38 7.67-.74 15.31-1.59 22.94-2.5-.03-1.79-.19-3.6-.35-5.45Zm-119.3-110.06c14-.11 28-.59 42-1.35 12.5 14.91 22.07 31.78 29.41 49.44q-28 2.59-56.18 3.31a337.61 337.61 0 0 0-24.15-51.41c2.98 0 5.95.03 8.92.01Zm-66.49-1.94q25.53 1.68 51.11 1.92c.81 1.38 1.67 2.74 2.46 4.14a330.13 330.13 0 0 1 22.11 47.45q-43.3.84-86.68-2.53a519.79 519.79 0 0 1 11-50.98ZM1503.72 999c-3.6-.31-7.2-.58-10.8-.93-17.31-1.68-34.58-3.86-51.79-6.43a361.15 361.15 0 0 1 15.46-58.35c17.49 2.56 35.05 4.66 52.65 6.17a524.88 524.88 0 0 0-5.52 59.54Zm-4.61-65.87c-13.55-1.32-27.06-3-40.54-5a237 237 0 0 1 25.15-48.48q18.55 2.12 37.15 3.46c-.21.81-.45 1.62-.67 2.43-4.19 16-7.53 32.18-10.17 48.48-3.64-.29-7.28-.55-10.92-.91Zm10.31 66.37a518.78 518.78 0 0 1 5.6-59.61c28.76 2.27 57.6 3.2 86.36 2.65 1 0 2.09-.08 3.14-.1a321.28 321.28 0 0 1 15 60 1021.49 1021.49 0 0 1-110.1-2.96Zm162.9.21q-23.44 1.88-47 2.62a324.35 324.35 0 0 0-14.82-60.08q28.29-.83 56.39-3.43a288.42 288.42 0 0 1 10.18 31.71c2.42 9.32 4.47 18.72 6.28 28.16-3.68.31-7.35.7-11.03 1Z" class="color8b89c2 svgShape"></path><path fill="#732344" d="M1616 1254.48a31.17 31.17 0 0 0-10.78-.37 85.72 85.72 0 0 1-32.81-3.37 38.09 38.09 0 0 0-5.94-1.45 10.8 10.8 0 0 0-3.26.28c-4.54 1.37-5.88 6.41-5.46 10.59.71 7.27 4.93 14.21 11.1 19.32a35.45 35.45 0 0 0 13.57 6.8c11.47 2.93 24.46 0 33-7a29 29 0 0 0 3.54-3.46c3.86-4.67 6.16-10.84 3.75-16.33-1.23-2.71-3.61-4.23-6.71-5.01Z" class="color732344 svgShape"></path><path fill="#ffffff" d="M1605.19 1254.11a85.72 85.72 0 0 1-32.81-3.37 38.09 38.09 0 0 0-5.94-1.45c-.63 2.49-.85 5.11.46 7.25s3.83 3.26 6.21 4.11a71.91 71.91 0 0 0 31.36 3.79c2.91-.24 6-.79 8.17-2.76 2-1.74 2.92-4.44 3.33-7.2a31.17 31.17 0 0 0-10.78-.37Z" class="colorfff svgShape"></path><path fill="#c34344" d="M1587.64 1272c-6.91.43-14.2 2.7-18.82 7.53a35.45 35.45 0 0 0 13.57 6.8c11.47 2.93 24.46 0 33-7-7.88-5.69-18.01-8.05-27.75-7.33Z" class="colorc34344 svgShape"></path><path fill="#575edd" d="M1748.09 1672.19c-7.5-127.85-34.84-255.58-34.84-255.58l-87.28-66.2s11.7 87.25-77.07 82.37c-95.25-5.21-175.77-106.12-175.77-106.12s-168.64 92-180.94 115.29c-46.69 88.53 5.51 267.45-6.55 385.43-7.52 75 13.8 156.32 8.35 230.94 85.3 7.28 143 12.65 229 11.62 114.26-1.37 228-11.77 341.86-20.06-1-26.15-2.07-49.64-3.61-70 2.94-124.83-9.53-246.16-13.15-307.69Z" class="color575edd svgShape"></path><path fill="url(#a)" d="M1475.31 1348.94c-48.24-36.43-74.8-56.65-74.8-56.65l-27.4 34.36s44.15 53.26 97.92 87.22 104.62 22 104.62 22l-11.81-45.34s-40.29-5.17-88.53-41.59Z"></path><path fill="url(#c)" d="M1609.58 1334.57c-1.46 22-26.18 52.39-26.18 52.39l-7.75 48.93s17-3 35.42-21c38.36-37.41 28.08-61 28.08-61Z"></path><path fill="#575edd" d="M1943 2061.51c-48.87-14.56-104.43-43.55-143.43-74.3-23.89-18.84-27.6-56.6-30.07-74.53-9.13-66.2-20-94.07-20-94.07l-559.87-7.23s-5 105.34-2.4 154.3-18.01 190.32-24.35 253.32-32.53 197.85-32.53 197.85l64.36 14.54s86 25.7 140.39-14.11c61.63-45.13 120.78-144.27 159-167.84 72-44.36 182.61-90.59 241.79-71.61s123.5 13.15 188.57-9.07 123.3-36.71 123.3-36.71-25.94-47.05-104.76-70.54Z" class="color575edd svgShape"></path><path fill="#3e41b2" d="M1639.17 2060.76c-97.92-36.58-252.85 62.41-252.85 62.41-1.08 8.61 114-39.81 94.68-14s8.26 25.44 58 .78c91.74-45.48 237.22 61.78 226.83 49.11-36.9-45 53.85-66.47 51.7-82.61s-80.45 20.9-178.36-15.69Z" class="color3e41b2 svgShape"></path><path fill="#ff9f00" d="m1352.79 1601.25 32.11 459.9 348.67-24.34 13.58-445.23-45.69-14.68-348.67 24.35z" class="colorff9f00 svgShape"></path><path fill="url(#d)" d="m1359.45 1607.04 32.11 459.9 348.66-24.34 3.38-448.51-35.48-11.4-348.67 24.35z"></path><path fill="#ff9f00" d="M1414.11 1603.19h349.52v461.02h-349.52z" transform="rotate(-3.99 1590.369 1835.303)" class="colorff9f00 svgShape"></path><path fill="#fec87b" d="M1685.69 1862.8c-.72-9-.74-22-.61-30.57a46 46 0 0 0-5.39-4.81l-.45.18c-.21 10.75.53 23.14 1.44 34.54a77 77 0 0 0 1 8c.37 2.68 1.91 4.63 5.11 7.54l.63-.39a60.76 60.76 0 0 1-1.34-9.74ZM1666.92 1857.61l-1.77.82a21 21 0 0 1 2.81 8.35 11.6 11.6 0 0 1-2 7.78 10.75 10.75 0 0 1-8.48 4.62 17.56 17.56 0 0 1-9-1.69 12.72 12.72 0 0 1-5.91-4.19c-.18-1-.31-2-.39-3-.59-7.39-.81-16.47-.87-27.45 0-2 .11-4.29-.06-6.44a5.73 5.73 0 0 0-1.38-3.78 15.64 15.64 0 0 0-3.29-2.86l-.35.17c.28 3.48-1 7.41-3.36 11.62a25.82 25.82 0 0 0 3.68 2.49c.25 6.33.51 14.13 1 20.44a37.84 37.84 0 0 0 3.64 14.2 17.59 17.59 0 0 0 6.24 5 20.87 20.87 0 0 0 10.87 2.29c4.42-.33 8-2.07 10.23-5 2.13-2.77 3.1-6.58 2.72-11.33-.25-4.08-1.97-8.08-4.33-12.04ZM1618.3 1814.93c-2.34.17-6.1 2.27-5.63 8.19.37 4.65 4.88 6 6.86 5.89 3.87-.29 5.6-3.57 5.33-6.94-.44-5.48-4.42-7.3-6.56-7.14Zm.77 10.23c-2.64.19-4.73-1.57-4.77-2.16a5.85 5.85 0 0 1 5-4.31c1.32-.1 3.54.82 3.7 2.82.14 1.49-.93 3.42-3.93 3.65ZM1590.7 1836a47.09 47.09 0 0 0-5.38 5.66 27 27 0 0 0 4.22 4.22c1.94-2.07 3.64-3.77 5.54-5.54a44.45 44.45 0 0 0-4.38-4.34ZM1623.3 1860.67l-2.1.7a25.42 25.42 0 0 1 2.38 8c.83 10.28-5.27 17.08-14.58 17.78a30.87 30.87 0 0 1-16.69-3.48c-3.26-1.78-6.61-4.09-6.72-5.46a7.23 7.23 0 0 1 .48-2.89 34.46 34.46 0 0 0 5.89.06c3.76-.28 7-1.16 9.08-2.8 2.69-2.12 3.2-4.72 2.91-8.34a12.52 12.52 0 0 0-2.29-5.54c-2-3-5.45-5.54-8.81-5.29-4.11.3-7.17 3.63-9.31 10.14a40.9 40.9 0 0 0-1.33 12.06 25.21 25.21 0 0 0 1.37 6.94c.39 1.59 2.39 3.66 4.19 5 5.32 3.88 13.26 7.28 22 6.63 10-.75 18.69-8 17.73-19.93a32.31 32.31 0 0 0-4.2-13.58Zm-29.07-1c2.89-.21 6.37 1.74 6.57 4.14.16 2.05-2.49 4.71-9.66 5.25a25.47 25.47 0 0 1-4.59.05c1.28-5.69 3.92-9.11 7.68-9.42ZM1600.56 1835.94a46.46 46.46 0 0 0-5.38 5.67 26.55 26.55 0 0 0 4.23 4.21c1.93-2.06 3.63-3.77 5.53-5.53a44.63 44.63 0 0 0-4.38-4.35ZM1568.82 1822.71c-.3-3.77-4.25-6.43-7.45-6.19-1.93.15-4.23 2.09-3.82 7.27a6.92 6.92 0 0 0 .47 2 4.21 4.21 0 0 0-1.77.77l2.64 3a4.57 4.57 0 0 1 1.18-.63c3.12 3.26 8.41 4.84 11.13 5.57.81-.06 4.65-.64 5-1.26l.08-.25c-4.66-1.37-10-2.9-13.17-4.87 3.97-.95 5.94-2.57 5.71-5.41Zm-8.81 1.79c-.12-2.21 1.25-4.92 3.18-5.06 1.52-.12 3 .85 3.11 1.78.13 1.67-2.31 3.13-6.06 4.15a2.81 2.81 0 0 1-.24-.87ZM1583.16 1893.89c-7.17.49-15-4.89-18.9-11.88a5.3 5.3 0 0 1-.73-2.11 8.45 8.45 0 0 1 .51-2.65 75.68 75.68 0 0 1 5.23-11.21c-1.33-2-2.66-3.94-4.1-5.85l-.3.07-3.08 6.88a17.92 17.92 0 0 0-1.79 9.48l.43 5.38c.35 4.36 3.16 8.82 7.49 13.13 3.35 2.9 6.2 4 8.75 3.82 3.76-.28 8-1.92 12.76-4.74l-.7-1.62a18.79 18.79 0 0 1-5.57 1.3ZM1550.9 1827.49c-3.51.26-7.05 2-10.91 2.29a11.43 11.43 0 0 1-4.23-.37 12 12 0 0 1-3-1.35l-.23.26a30.31 30.31 0 0 0 1.76 3.56 11 11 0 0 0 7.31 1.82c3.2-.24 6.79-1.35 9.33-1.54.82-.06 1.87 1.63 3.15 3.56h.36l1.49-3.11c-.16-2.33-1.42-5.39-5.03-5.12ZM1549.18 1873c-.72-9-.75-22-.61-30.57a46.11 46.11 0 0 0-5.4-4.81l-.45.18c-.21 10.74.53 23.14 1.44 34.54a74.17 74.17 0 0 0 1 8.05c.36 2.68 1.9 4.63 5.1 7.54l.63-.39a63.4 63.4 0 0 1-1.34-9.75ZM1511.57 1845.24a45 45 0 0 0-5.68 5.7 20.42 20.42 0 0 0 4.6 4.48c1.84-2 3.7-3.68 5.6-5.49-1.52-1.66-3.03-3.27-4.52-4.69ZM1526.21 1871l-1.85 1.18a22.19 22.19 0 0 1 3.58 8.93c.34 4.16-.88 6.86-2.72 8.77a14.83 14.83 0 0 1-9.34 4 22.8 22.8 0 0 1-12.64-3.34c-2.37-1.5-3.76-2.87-3.84-3.8a28.13 28.13 0 0 1 .89-8.78 41 41 0 0 1 3.49-10c-1.38-2-2.77-3.92-4.41-5.87l-.36-.07a40.07 40.07 0 0 0-3.83 20.47c.39 4.89 2.41 10.3 4.61 12.2a25.2 25.2 0 0 0 17.52 6.18c9.55-.72 15.11-7.29 14.41-16a25.44 25.44 0 0 0-5.51-13.87Z" class="colorfec87b svgShape"></path><path fill="#fec87b" d="m1717.07 1619.94-289.83 21.65 21.7 270.87q2.93.21 5.86.36l-21.32-266.08 278.24-20.74 14.28 178.23c1.79-2.11 3.57-4.22 5.32-6.36Z" class="colorfec87b svgShape"></path><path fill="#fec87b" d="m1704 1633.6-261.68 19.55 20.84 260c1.92.06 3.84.11 5.77.15l-17-211.73a38 38 0 0 0 6.13.05c20.09-1.5 35.18-18.46 33.63-37.8a33.47 33.47 0 0 0-1.88-8.71l168.07-12.56a33.7 33.7 0 0 0-.43 8.72c1.55 19.34 19.16 33.85 39.25 32.35a37.42 37.42 0 0 0 5.46-.83l10.88 135.8q2.68-2.84 5.3-5.72Zm-246.26 63.64a33 33 0 0 1-6.14-.12l-.69-8.65a24.12 24.12 0 0 0 6.15.34c12.76-1 22.31-11.68 21.32-24a21.62 21.62 0 0 0-2.58-8.66l9.29-.7a29.27 29.27 0 0 1 2.05 8.7c1.36 16.95-11.83 31.78-29.4 33.09Zm238.63-18c-17.56 1.31-33-11.38-34.31-28.29a29.44 29.44 0 0 1 .6-8.73l9.28-.7a21.4 21.4 0 0 0-1.12 8.77c1 12.29 12.12 21.47 24.88 20.52a24.18 24.18 0 0 0 5.44-1.08l.69 8.62a33.44 33.44 0 0 1-5.46.9Z" class="colorfec87b svgShape"></path><path fill="#fec87b" d="m1726 1804.25 18.26 228L1466 2053l-11.23-140.18q-2.94-.15-5.86-.36l11.77 146.54 289.83-21.65-19.18-239.47c-1.75 2.12-3.53 4.26-5.33 6.37Z" class="colorfec87b svgShape"></path><path fill="#fec87b" d="m1713.07 1818.65 12.62 157.43a39.08 39.08 0 0 0-5.83 0c-20.1 1.5-35.18 18.46-33.63 37.8a34.07 34.07 0 0 0 2.33 9.92l-168.88 12.61a33.63 33.63 0 0 0 .76-10.31c-1.55-19.34-19.15-33.86-39.25-32.35a36.08 36.08 0 0 0-5.75.89l-6.51-81.27c-1.93 0-3.85-.09-5.77-.15l10.59 132.16 261.67-19.55-17.05-212.87q-2.61 2.85-5.3 5.69Zm-198.21 218.09-9.51.71a21.44 21.44 0 0 0 1.76-10.38c-1-12.29-12.13-21.47-24.89-20.52a23.42 23.42 0 0 0-5.73 1.17l-.69-8.64a33.67 33.67 0 0 1 5.75-1c17.57-1.31 33 11.38 34.31 28.29a29.34 29.34 0 0 1-1 10.37Zm211.88-47.55a23.67 23.67 0 0 0-5.85-.3c-12.76.95-22.31 11.68-21.33 24a21.64 21.64 0 0 0 3.29 9.84l-9.48.71a29.57 29.57 0 0 1-2.56-9.9c-1.36-16.91 11.83-31.74 29.4-33a33.4 33.4 0 0 1 5.84.09ZM1633.63 1685.63l-29.13 2.17-22.19-18.28-19 21.36-29.13 2.18 2.25 28-9.86 11.08c3.38-.52 6.76-1.08 10.12-1.68l.46-.51v.43c2.17-.4 4.32-.81 6.47-1.25l-.47-6 23.35-26.24 35.78-2.68 13.86 11.44c2.15-1 4.27-2 6.39-3l-11-9.09 16.07-1.2.59 7.45q3.18-1.63 6.31-3.34Zm-91.18 28.69-1.23-15.46 16.06-1.2Zm30.09-24.13 10.49-11.78 12.23 10.08Z" class="colorfec87b svgShape"></path><path fill="#fec87b" d="m1635.87 1713.67-1.37-17.16q-3.13 1.71-6.31 3.34l.65 8-6.29-5.18c-2.12 1-4.24 2-6.39 3l13.38 11 2.76 34.44-23.3 26.34-35.78 2.67-27.25-22.46-2.29-28.49c-2.15.44-4.3.85-6.47 1.25l1.72 21.44-12.23-10.09 10-11.26c-3.36.6-6.74 1.16-10.12 1.68l-9.14 10.27 22.18 18.29 2.25 28 29.13-2.18 22.18 18.29 19-21.37 29.13-2.17-2.25-28 19-21.37Zm-88 68.34-1.24-15.46 17.3 14.26Zm44.57 14-12.24-10.09 22.72-1.7Zm25.75-19.25 14.82-16.67 1.24 15.47Zm20.14-32.33-1.76-21.87 12.24 10.08Z" class="colorfec87b svgShape"></path><path fill="#fec87b" d="M1586.43 1720.83c-9.39.7-16.43 8.62-15.71 17.65s9 15.81 18.33 15.11 16.43-8.62 15.7-17.65-8.94-15.81-18.32-15.11Zm2.12 26.47a10.41 10.41 0 0 1-11.3-9.31 10.29 10.29 0 0 1 9.68-10.88 10.4 10.4 0 0 1 11.29 9.31 10.26 10.26 0 0 1-9.67 10.88Z" class="colorfec87b svgShape"></path><path fill="#c5663e" d="M1778.22 1837.24c8.94-18.93 2.74-51.76-17.62-49.36-10 38.81-24.8 33.49-35 44 0 0 3.29-15.86 9.53-20.7s52.89-51.09 13.15-46.36c-44.19 10.91-61.77 53.18-80 85.72s-59.79 39.36-59.79 39.36l19.44 110.54s42.44-22 69.77-22.46 55.45-10.71 68.74-23.37 28.46-33.26 14.82-39.64c1.42-.58 18.86-23.79 5.29-37.5 7.51-11.79 10.6-34.97-8.33-40.23Z" class="colorc5663e svgShape"></path><path fill="#7da2ff" d="M1629.7 1868.78c-41.29 18.53-254.33 60.07-344.68 14.35 2.74-35.32 41.63-242.27 26.69-325.78s-102.22-138-115.42-125.28-25.69 23.26-62.22 142.89-40.67 283.82-40.67 283.82c-3.67 63.73-26.81 272.09 114.4 269.09 281.21-6 451-87.85 451-87.85 23.49-55.38 7-152.91-29.1-171.24Z" class="color7da2ff svgShape"></path><path fill="#fdc332" d="M3335.32 2131.6c-59.57-46.19-91.33-50.6-106.11-102-.1.31-.21.6-.31.9-.31.91-.62 1.8-1 2.69-24.28 67-75.55 71.52-103.72 102.06-28.68 31.07-39.73 73.09-19.77 110.9a1916.3 1916.3 0 0 1 195.63-3.83c33.95 1.13 53.56 2.86 53.56 2.86s46.4-63.4-18.28-113.58Z" class="colorfdc332 svgShape"></path><path fill="#ff9f00" d="M3335.32 2131.6c-59.57-46.19-91.33-50.6-106.11-102-.1.31-.21.6-.31.9l-1 2.62v.07c7 33.62 4.78 47 45 92.23 41.79 47 32.22 99 27.14 116.9 33.95 1.13 53.56 2.86 53.56 2.86s46.4-63.4-18.28-113.58Z" class="colorff9f00 svgShape"></path><path fill="#ffd886" d="M3127.94 2131.5c-2 10.24-1.14 21.47 10.95 29.72 29.05 19.83 58.19 11 76.29-2.08 32.35-23.32 28.49-79.26 14-129.55-22.72 67.56-71.94 74.14-101.24 101.91Z" class="colorffd886 svgShape"></path><path fill="#fdc332" d="M3113.97 2272.37h232.32v227.15h-232.32z" transform="rotate(-.07 3338.02 2465.758)" class="colorfdc332 svgShape"></path><path fill="#ffd886" d="M3113.97 2272.48h56.49v227.15h-56.49z" transform="rotate(-.07 3247.984 2465.703)" class="colorffd886 svgShape"></path><path fill="#ff9f00" d="M3292.99 2272.26h53.31v227.15h-53.31z" transform="rotate(-.07 3428.056 2465.813)" class="colorff9f00 svgShape"></path><path fill="#fdc332" d="m3358.19 2265.85-258.53.32a3.08 3.08 0 0 0-3.07 3.08v.22a3.07 3.07 0 0 0 3.08 3.07l258.53-.33a3.07 3.07 0 0 0 3.07-3.08v-.21a3.07 3.07 0 0 0-3.08-3.07Z" class="colorfdc332 svgShape"></path><path fill="#cf6537" d="m3330.18 2235.43-57.63.08h-88.18l-57.63.07a10.76 10.76 0 0 0-5.58 1.57l-13.69 8.32 76.91-.1h11.31l65.6-.08h11.31l76.91-.09-13.7-8.29a10.81 10.81 0 0 0-5.63-1.48Z" class="colorcf6537 svgShape"></path><path fill="#fdc332" d="m3370.65 2245.25-285.36.36a6.11 6.11 0 0 0-6.1 6.11v.42a6.1 6.1 0 0 0 6.1 6.1l285.37-.36a6.1 6.1 0 0 0 6.09-6.11v-.43a6.09 6.09 0 0 0-6.1-6.09Z" class="colorfdc332 svgShape"></path><path fill="#b85427" d="M3104.67 2258.05h249.83v7.96h-249.83z" transform="rotate(-.07 3329.92 2326.606)" class="colorb85427 svgShape"></path><path fill="#fdc332" d="m3356.63 2499.37-258.53.32a3.07 3.07 0 0 0-3.07 3.08v.22a3.07 3.07 0 0 0 3.08 3.07l258.53-.33a3.08 3.08 0 0 0 3.07-3.08v-.21a3.08 3.08 0 0 0-3.08-3.07Z" class="colorfdc332 svgShape"></path><path fill="#cf6537" d="m3260.64 2526.44-65.6.08h-11.31l-76.91.1 13.71 8.29a10.74 10.74 0 0 0 5.58 1.55l57.64-.07h88.21l57.64-.08a10.75 10.75 0 0 0 5.58-1.56l13.68-8.33-76.91.1Z" class="colorcf6537 svgShape"></path><path fill="#fdc332" d="m3371 2513.67-285.37.36a6.11 6.11 0 0 0-6.09 6.11v.43a6.11 6.11 0 0 0 6.11 6.09l285.37-.36a6.11 6.11 0 0 0 6.09-6.11v-.43a6.1 6.1 0 0 0-6.11-6.09Z" class="colorfdc332 svgShape"></path><path fill="#b85427" d="M3101.8 2505.9h249.83v7.96H3101.8z" transform="rotate(-.07 3321.575 2588.525)" class="colorb85427 svgShape"></path><path fill="#ff9f00" d="M3113.83 2272.37h232.32v6.66h-232.32z" transform="rotate(-.07 3395.36 2392.127)" class="colorff9f00 svgShape"></path><path fill="#cf6537" d="M3229.69 1970.73a24.33 24.33 0 1 0 24.37 24.3 24.32 24.32 0 0 0-24.37-24.3Zm.06 43.42a19.1 19.1 0 1 1 19.07-19.12 19.08 19.08 0 0 1-19.07 19.12Z" class="colorcf6537 svgShape"></path><path fill="#fdc332" d="m3262.85 2058.19-64.07-.42a3.07 3.07 0 0 0-3.07 3.08v.21a3.07 3.07 0 0 0 3.08 3.07l64.07.42a3.08 3.08 0 0 0 3.07-3.08v-.21a3.08 3.08 0 0 0-3.08-3.07Z" class="colorfdc332 svgShape"></path><path fill="#cf6537" d="m3243.38 2052.38-11.79-.24-11.5-.24a6.52 6.52 0 0 0-3.3.93l-8.09 4.92 22.89.23 23.19.22-8.1-4.9a6.32 6.32 0 0 0-3.3-.92Z" class="colorcf6537 svgShape"></path><path fill="#ffd886" d="m3249.22 2029.11-35.66.05a11.13 11.13 0 0 0-11.1 11.13v.78a11.11 11.11 0 0 0 11.12 11.1l35.66-.05a11.12 11.12 0 0 0 11.1-11.13v-.78a11.13 11.13 0 0 0-11.12-11.1Z" class="colorffd886 svgShape"></path><path fill="#ff9f00" d="M3222.73 2012.43h14.72v16.71h-14.72z" transform="rotate(-.07 3321.885 2081.048)" class="colorff9f00 svgShape"></path><path fill="#cf6537" d="M3238.57 2285.16a11.15 11.15 0 0 0-14.6 0c-33.89 28.78-31 56.4-31 56.4v158.22h76.67v-158.22s2.82-27.62-31.07-56.4Z" class="colorcf6537 svgShape"></path><path fill="#ff9f00" d="M3237.44 2293.33a9.42 9.42 0 0 0-12.34 0c-28.64 24.32-26.23 47.66-26.23 47.66v158.79h64.8V2341s2.41-23.35-26.23-47.67Z" class="colorff9f00 svgShape"></path><path fill="#fdc332" d="M3140.69 2293.68a4.59 4.59 0 0 0-7.11.32c-4.81 6.72-13.15 21.89-14.07 47.26v158.84H3159v-161.94s-4.39-28.35-18.23-44.44a.08.08 0 0 1-.08-.04Z" class="colorfdc332 svgShape"></path><path fill="#ff9f00" d="M3137.06 2299.48c-4.58 8.18-9.89 21.83-10.61 41.78v158.84H3159v-161.94s-3.51-22.68-14.16-39a4.58 4.58 0 0 0-7.78.32Z" class="colorff9f00 svgShape"></path><path fill="#cf6537" d="M3322.9 2293.68c-13.84 16.09-18.23 44.44-18.23 44.44v161.98h39.45v-158.84c-.92-25.37-9.26-40.54-14.07-47.26a4.59 4.59 0 0 0-7.15-.32Z" class="colorcf6537 svgShape"></path><path fill="#b85427" d="M3318.79 2299.18c-10.65 16.3-14.16 39-14.16 39v161.92h32.51v-158.84c-.72-20-6-33.6-10.61-41.78a4.58 4.58 0 0 0-7.74-.3Z" class="colorb85427 svgShape"></path></g></svg>